<svg width="521" height="360" viewBox="0 0 521 360" fill="none" xmlns="http://www.w3.org/2000/svg">
<path d="M518.921 218.226C513.617 220.566 504.257 222.126 495.678 222.126C470.875 222.126 452 204.499 452 180.944C452 157.389 470.875 139.762 495.678 139.762C504.257 139.762 513.617 141.322 518.921 144.13V164.565H517.049C512.369 161.445 505.037 158.949 495.678 158.949C483.042 158.949 472.123 167.06 472.123 180.944C472.123 194.827 483.042 202.939 495.678 202.939C505.037 202.939 512.837 200.755 517.049 197.947H518.921V218.226Z" fill="black"/>
<path d="M434.38 214.483C427.361 218.695 416.753 222.127 403.182 222.127C377.443 222.127 362 204.344 362 180.945C362 157.546 378.223 139.763 401.622 139.763C425.021 139.763 441.244 157.546 441.244 180.945C441.244 184.377 441.088 186.092 440.776 188.276H383.059C384.151 195.608 392.419 202.94 404.43 202.94C415.349 202.94 425.333 200.132 432.197 195.92H434.38V214.483ZM419.873 171.117C418.469 164.097 411.138 158.482 401.622 158.482C392.107 158.482 385.555 163.786 383.059 171.117H419.873Z" fill="black"/>
<path d="M291.967 219.942H272V141.946H291.967V170.961H328.625V141.946H348.592V219.942H328.625V190.928H291.967V219.942Z" fill="black"/>
<path d="M218.491 203.408C230.658 203.408 236.742 201.224 236.742 196.076C236.742 190.928 229.878 189.212 218.491 189.212H203.672V172.209H218.491C229.878 172.209 236.742 170.181 236.742 165.033C236.742 159.886 230.346 158.014 218.491 158.014C210.847 158.014 200.864 159.886 196.028 162.07H194.156L194 144.13C198.992 142.259 209.443 139.763 218.491 139.763C243.762 139.763 256.085 148.186 256.085 165.033C256.085 172.209 251.249 177.513 246.257 179.853V180.789C251.405 182.349 258.113 187.028 258.113 196.076C258.113 212.611 243.762 222.127 218.491 222.127C210.847 222.127 198.836 220.567 194 218.383V199.82H195.872C201.332 202.472 211.159 203.408 218.491 203.408Z" fill="black"/>
<path d="M118.499 219.942H99V141.946H118.499V189.368L119.279 189.524L157.653 141.946H177.152V219.942H157.653V172.521L156.873 172.209L118.499 219.942Z" fill="black"/>
<path d="M43.4299 221.503C19.5631 221.503 1 203.876 1 167.685C1 131.807 21.747 118.86 45.7698 117.612C52.1655 117.3 59.6531 117.3 64.3329 116.988C69.6367 116.676 75.0964 115.74 79.1522 114.336L80.2441 114.804V133.523C76.1883 134.615 68.3887 135.551 63.5529 135.707L47.3297 136.019C31.5745 136.487 23.1509 143.351 20.1871 153.958L20.811 154.426C27.6747 147.718 36.2543 144.754 46.8618 144.754C67.2968 144.754 83.9879 159.73 83.9879 183.285C83.9879 206.839 66.9848 221.503 43.4299 221.503ZM22.9949 183.285C22.9949 194.36 32.0425 202.16 43.4299 202.16C54.6614 202.16 63.8649 194.36 63.8649 183.285C63.8649 172.209 54.6614 164.721 43.4299 164.721C32.0425 164.721 22.9949 172.209 22.9949 183.285Z" fill="black"/>
<path d="M520.06 93.9064H500.093V87.0427L499.469 86.7307C494.789 90.7865 488.082 96.0902 475.602 96.0902C454.231 96.0902 443 80.179 443 54.9083V15.9102H462.967V51.1644C462.967 69.5715 469.675 76.7472 481.53 76.7472C493.386 76.7472 500.093 69.5715 500.093 51.1644V15.9102H520.06V93.9064Z" fill="black"/>
<path d="M399.817 23.0858C404.808 18.562 414.168 15.9102 423.215 15.9102H433.199V35.5652H422.747C407.148 35.5652 399.193 44.6128 399.193 62.0839V93.9063H379.226V15.9102H399.193V22.7738L399.817 23.0858Z" fill="black"/>
<path d="M342.585 71.2891H365.516V93.908H342.585V71.2891Z" fill="black"/>
<path d="M295.038 96.0905C271.171 96.0905 252.92 78.4634 252.92 54.9086C252.92 31.3537 271.171 13.7266 295.038 13.7266C318.905 13.7266 337.156 31.3537 337.156 54.9086C337.156 78.4634 318.905 96.0905 295.038 96.0905ZM273.043 54.9086C273.043 66.452 282.402 76.9035 295.038 76.9035C307.673 76.9035 317.033 66.452 317.033 54.9086C317.033 43.3651 307.673 32.9136 295.038 32.9136C282.402 32.9136 273.043 43.3651 273.043 54.9086Z" fill="black"/>
<path d="M245.162 74.4084V93.9074H226.131C204.916 93.9074 190.877 79.2441 190.877 58.4972V0H210.844V15.9112H245.162V35.0983H210.844V52.4134C210.844 67.2327 218.332 74.4084 233.151 74.4084H245.162Z" fill="black"/>
<path d="M176.115 93.9064H156.148V87.0427L155.524 86.7307C150.844 90.7865 144.136 96.0902 131.657 96.0902C110.286 96.0902 99.0547 80.179 99.0547 54.9083V15.9102H119.022V51.1644C119.022 69.5715 125.729 76.7472 137.585 76.7472C149.44 76.7472 156.148 69.5715 156.148 51.1644V15.9102H176.115V93.9064Z" fill="black"/>
<path d="M20.591 54.9086C20.591 66.452 30.1065 77.2155 42.5859 77.2155C55.0653 77.2155 64.5809 66.452 64.5809 54.9086C64.5809 43.3651 55.0653 32.6016 42.5859 32.6016C30.1065 32.6016 20.591 43.3651 20.591 54.9086ZM84.2359 15.9105V93.9066H64.5809V87.043L63.9569 86.731C59.2771 90.9428 51.7895 96.0905 38.8421 96.0905C16.0672 96.0905 0 77.8394 0 54.9086C0 31.9777 16.0672 13.7266 38.8421 13.7266C51.7895 13.7266 59.2771 18.8743 63.9569 23.0861L64.5809 22.7741V15.9105H84.2359Z" fill="black"/>
<rect x="62.5" y="270" width="394" height="90" rx="20" fill="black"/>
<path d="M106.324 337H98.26V295.272H106.324V310.184L130.9 295.208H131.86V304.616L112.404 316.072L131.86 327.4V337H130.9L106.324 321.96V337ZM182.728 337H173.64L171.08 329.512H153.864L151.368 337H142.728L157.128 295.208H167.624L182.728 337ZM156.68 321.32H168.2L162.568 304.936H162.184L156.68 321.32ZM194.248 337V295.208H224.712V303.4H202.44V311.08H213.32C222.536 311.08 226.888 316.776 226.888 323.944C226.888 331.112 222.536 337 213.32 337H194.248ZM212.68 328.744C215.944 328.744 218.44 326.888 218.44 323.944C218.44 321 215.944 319.144 212.68 319.144H202.44V328.744H212.68ZM249.137 337H240.945V295.208H249.137V322.984L249.521 323.112L270.385 295.208H278.577V337H270.385V309.032L270.001 308.968L249.137 337ZM304.214 337H295.83V295.208H304.214V311.848H325.398V295.208H333.782V337H325.398V320.36H304.214V337ZM351.09 337V295.208H380.082V303.528H359.154V311.976H377.522V320.232H359.154V328.68H380.53V337H351.09ZM412.923 337H404.347V303.592H391.803V295.208H425.403V303.592H412.923V337Z" fill="white"/>
</svg>
