<svg width="1010" height="185" viewBox="0 0 1010 185" fill="none" xmlns="http://www.w3.org/2000/svg">
<path d="M702.48 139.199H659.98V181.699H702.48V139.199Z" fill="white"/>
<path d="M567.669 184.339C516.599 184.339 487.879 149.279 487.879 106.029C487.879 62.7787 518.289 27.7188 567.669 27.7188C617.049 27.7188 647.459 62.2987 647.459 106.029C647.459 149.759 617.679 184.339 567.669 184.339ZM567.669 64.6787C542.209 64.6787 526.009 81.7687 526.009 106.129C526.009 128.349 541.889 147.859 567.669 147.859C593.449 147.859 608.929 128.349 608.929 106.129C608.929 81.3287 592.779 64.6787 567.669 64.6787Z" fill="white"/>
<path d="M471 181.7H439.88C395.23 181.7 368.08 154.99 368.08 105.03V0H406.35V100.62C406.35 129.15 417.83 143.9 443.24 143.9H471V181.7Z" fill="white"/>
<path d="M471 31H393V68H471V31Z" fill="white"/>
<path d="M254.309 184.198C207.249 184.198 188.439 149.348 188.439 102.738V30.8984H227.269V97.0984C227.269 130.448 237.929 146.298 263.619 146.298C289.309 146.298 300.219 129.798 300.219 97.0984V30.8984H338.769V64.0884C338.769 111.168 303.429 184.198 254.299 184.198H254.309Z" fill="white"/>
<path d="M338.669 30.6992H300.119V181.699H338.669V30.6992Z" fill="white"/>
<path d="M309.18 152.898H284.33V164.018H309.18V152.898Z" fill="white"/>
<path d="M924.47 184.198C877.41 184.198 858.6 146.618 858.6 106.138V30.8984H897.43V97.0984C897.43 130.448 908.09 146.298 933.78 146.298C959.47 146.298 970.38 129.798 970.38 97.0984V30.8984H1008.93V64.0884C1008.93 111.168 973.59 184.198 924.46 184.198H924.47Z" fill="white"/>
<path d="M1008.83 30.6992H970.279V181.699H1008.83V30.6992Z" fill="white"/>
<path d="M979.34 152.898H954.49V164.018H979.34V152.898Z" fill="white"/>
<path d="M810.941 30.6289H836.261V68.4989L809.951 68.5689C784.261 68.5689 766.421 89.8989 766.421 127.919V181.349H727.871V148.159C727.871 112.819 742.121 80.6889 760.391 57.7089C774.081 40.4889 789.801 30.6289 810.931 30.6289H810.941Z" fill="white"/>
<path d="M727.98 181.539H766.531V30.5391H727.98V181.539Z" fill="white"/>
<path d="M781.551 48.209H756.701V59.329H781.551V48.209Z" fill="white"/>
<path d="M0 106.2C0 59.8304 31.08 27.9004 76.42 27.9004C98.6 27.9004 113.46 37.7504 122.1 53.1804C131.29 69.5704 140.29 87.7004 140.29 106.2C140.29 131.72 126.25 160.2 109.45 173.89C100.22 181.41 88.46 184.21 76.41 184.21C31.08 184.21 0 152.39 0 106.2ZM79.66 64.4004C50.39 64.4004 37.7 84.1004 37.7 106.2C37.7 128.3 51.94 147.66 79.66 147.66C105.78 147.66 121.39 128.3 121.39 106.2C121.39 84.1004 107.05 64.4004 79.66 64.4004Z" fill="white"/>
<path d="M160.04 30.7012H121.49V181.701H160.04V30.7012Z" fill="white"/>
<path d="M130.75 48.2812H105.9V59.4013H130.75V48.2812Z" fill="white"/>
<path d="M130.75 152.9H105.9V164.02H130.75V152.9Z" fill="white"/>
</svg>
