<svg width="991" height="185" viewBox="0 0 991 185" fill="none" xmlns="http://www.w3.org/2000/svg">
<path d="M556.036 184.025C512.46 184.025 477 149.107 477 106.169C477 63.2297 512.46 28.3125 556.036 28.3125C599.611 28.3125 635.071 63.2297 635.071 106.169C635.071 149.107 599.611 184.025 556.036 184.025ZM556.036 66.0609C533.269 66.0609 514.748 84.0621 514.748 106.169C514.748 128.275 533.269 146.276 556.036 146.276C578.803 146.276 597.323 128.275 597.323 106.169C597.323 84.0621 578.803 66.0609 556.036 66.0609Z" fill="white"/>
<path d="M463.001 181.664H421.614C390.613 181.664 365.416 156.443 365.416 125.466V0H403.164V125.466C403.164 135.635 411.445 143.916 421.614 143.916H463.001V181.664Z" fill="white"/>
<path d="M463 31H390V68H463V31Z" fill="white"/>
<path d="M76.6764 184.023C33.1006 184.023 0 149.105 0 106.167C0 63.2278 33.1006 28.3105 76.6764 28.3105C117.964 28.3105 139.197 63.6996 139.197 106.167C139.197 148.633 117.964 184.023 76.6764 184.023ZM79.0357 66.0589C56.2687 66.0589 37.7484 84.0602 37.7484 106.167C37.7484 128.273 56.2687 146.274 79.0357 146.274C101.803 146.274 120.323 128.273 120.323 106.167C120.323 84.0602 101.803 66.0589 79.0357 66.0589Z" fill="white"/>
<path d="M158.071 30.6699H120.322V181.663H158.071V30.6699Z" fill="white"/>
<path d="M689.334 139.197H646.867V181.664H689.334V139.197Z" fill="white"/>
<path d="M259.368 184.023C218.222 184.023 187.127 151.041 187.127 110.508V30.8594H224.875V110.485C224.875 130.208 241.414 146.251 261.727 146.251C282.041 146.251 298.579 130.208 298.579 110.485V30.8594H336.327V87.2932C336.327 127.826 300.49 184.023 259.368 184.023Z" fill="white"/>
<path d="M336.35 30.6699H298.602V181.663H336.35V30.6699Z" fill="white"/>
<path d="M753.332 181.663H715.584V132.119C715.584 89.3451 750.383 30.6699 793.157 30.6699H817.149V68.4183H793.157C771.216 68.4183 753.332 86.278 753.332 108.243V181.663Z" fill="white"/>
<path d="M753.332 30.6699H715.584V181.663H753.332V30.6699Z" fill="white"/>
<path d="M913.241 184.025C872.095 184.025 841 151.043 841 110.51V30.8613H878.748V110.487C878.748 130.21 895.287 146.253 915.6 146.253C935.914 146.253 952.452 130.21 952.452 110.487V30.8613H990.2V87.2951C990.2 127.827 954.363 184.025 913.241 184.025Z" fill="white"/>
<path d="M990.225 30.6719H952.477V181.665H990.225V30.6719Z" fill="white"/>
</svg>
