<svg width="239" height="43" viewBox="0 0 239 43" fill="none" xmlns="http://www.w3.org/2000/svg">
<path opacity="0.6" d="M4.1386 7.44995H3.23138L2.09736 5.23861L3.23138 3.02727H4.1386L3.00458 5.23861L4.1386 7.44995ZM2.25613 7.44995H1.34891L0.214888 5.23861L1.34891 3.02727H2.25613L1.13344 5.23861L2.25613 7.44995ZM10.1731 8.23242H9.19784L8.59681 5.83964H6.15866L5.53495 8.23242H4.67309L6.81639 0.101494H8.06382L10.1731 8.23242ZM6.37413 5.00046H8.38134L7.39474 1.09943L6.37413 5.00046ZM11.2525 0.101494H13.1122C13.8758 0.101494 14.4617 0.252697 14.87 0.555102C15.2858 0.857507 15.4937 1.36782 15.4937 2.08603C15.4937 2.66816 15.3576 3.11043 15.0854 3.41283C14.8208 3.70768 14.4731 3.90802 14.0421 4.01387C14.5789 4.09703 14.9909 4.28603 15.2782 4.58088C15.5655 4.87572 15.7092 5.31421 15.7092 5.89634C15.7092 6.45579 15.592 6.9094 15.3576 7.25716C15.1308 7.59737 14.8171 7.84685 14.4164 8.00562C14.0232 8.15682 13.581 8.23242 13.0896 8.23242H11.2525V0.101494ZM13.1122 3.6283C13.5356 3.6283 13.8796 3.5149 14.1442 3.28809C14.4088 3.05373 14.5411 2.67572 14.5411 2.15407C14.5411 1.71558 14.4201 1.4094 14.1782 1.23551C13.9363 1.05407 13.5961 0.963349 13.1576 0.963349H12.1937V3.6283H13.1122ZM13.1463 7.37057C13.615 7.37057 13.993 7.26472 14.2803 7.05304C14.5751 6.84136 14.7226 6.46335 14.7226 5.91902C14.7226 5.39737 14.5865 5.0307 14.3143 4.81902C14.0421 4.59978 13.6263 4.49015 13.0669 4.49015H12.1937V7.37057H13.1463ZM16.2032 0.974689V0.101494H21.2269V0.974689H19.1856V8.23242H18.2444V0.974689H16.2032ZM24.3234 8.34582C23.4388 8.34582 22.7433 7.98294 22.2368 7.25716C21.7378 6.52383 21.4883 5.48431 21.4883 4.13861C21.4883 2.78534 21.7378 1.75716 22.2368 1.05407C22.7433 0.350978 23.4388 -0.000567912 24.3234 -0.000567912C25.2155 -0.000567912 25.911 0.354758 26.41 1.06541C26.9089 1.7685 27.1584 2.79668 27.1584 4.14995C27.1584 5.48809 26.9089 6.52383 26.41 7.25716C25.911 7.98294 25.2155 8.34582 24.3234 8.34582ZM24.3234 7.48397C24.8979 7.48397 25.3478 7.22314 25.6729 6.70149C25.9979 6.17984 26.1605 5.33689 26.1605 4.17263C26.1605 3.00081 25.9979 2.15785 25.6729 1.64376C25.3478 1.12211 24.8979 0.861287 24.3234 0.861287C23.7488 0.861287 23.299 1.12211 22.9739 1.64376C22.6488 2.15785 22.4863 3.00081 22.4863 4.17263C22.4863 5.33689 22.6488 6.17984 22.9739 6.70149C23.299 7.22314 23.7488 7.48397 24.3234 7.48397ZM28.4722 8.30046C28.2832 8.30046 28.1282 8.2362 28.0073 8.10768C27.8939 7.97916 27.8371 7.82039 27.8371 7.63139C27.8371 7.43483 27.8939 7.27606 28.0073 7.1551C28.1282 7.02658 28.2832 6.96232 28.4722 6.96232C28.6461 6.96232 28.7935 7.02658 28.9145 7.1551C29.0354 7.27606 29.0959 7.43483 29.0959 7.63139C29.0959 7.82039 29.0354 7.97916 28.9145 8.10768C28.7935 8.2362 28.6461 8.30046 28.4722 8.30046ZM30.3337 0.101494H32.0801C32.8663 0.101494 33.4787 0.290497 33.9172 0.668504C34.3632 1.04651 34.5863 1.6362 34.5863 2.43758C34.5863 3.04239 34.4766 3.5338 34.2574 3.9118C34.0457 4.28981 33.7471 4.56575 33.3615 4.73964C32.9759 4.91352 32.5337 5.00046 32.0347 5.00046H31.2749V8.23242H30.3337V0.101494ZM32.0347 4.13861C32.5261 4.13861 32.9155 4.01008 33.2027 3.75304C33.4976 3.48844 33.645 3.05373 33.645 2.44892C33.645 1.93483 33.5089 1.5606 33.2368 1.32624C32.9646 1.08431 32.579 0.963349 32.0801 0.963349H31.2749V4.13861H32.0347ZM35.7285 7.33655C35.789 7.34411 35.857 7.35167 35.9326 7.35923C36.0082 7.35923 36.0876 7.35923 36.1708 7.35923C36.4656 7.35923 36.7113 7.27606 36.9079 7.10974C37.112 6.93586 37.2821 6.66369 37.4182 6.29325L35.1502 0.101494H36.1935L37.8832 4.87572L39.3234 0.101494H40.2759L38.3821 6.03242C38.1251 6.8338 37.8302 7.40459 37.4976 7.74479C37.1725 8.07744 36.7454 8.24376 36.2161 8.24376C36.1179 8.24376 36.0309 8.23998 35.9553 8.23242C35.8873 8.23242 35.8117 8.22864 35.7285 8.22108V7.33655ZM45.4091 8.34582C44.5245 8.34582 43.829 7.98294 43.3225 7.25716C42.8235 6.52383 42.574 5.48431 42.574 4.13861C42.574 2.78534 42.8235 1.75716 43.3225 1.05407C43.829 0.350978 44.5245 -0.000567912 45.4091 -0.000567912C46.3012 -0.000567912 46.9967 0.354758 47.4957 1.06541C47.9946 1.7685 48.2441 2.79668 48.2441 4.14995C48.2441 5.48809 47.9946 6.52383 47.4957 7.25716C46.9967 7.98294 46.3012 8.34582 45.4091 8.34582ZM45.4091 7.48397C45.9836 7.48397 46.4335 7.22314 46.7585 6.70149C47.0836 6.17984 47.2462 5.33689 47.2462 4.17263C47.2462 3.00081 47.0836 2.15785 46.7585 1.64376C46.4335 1.12211 45.9836 0.861287 45.4091 0.861287C44.8345 0.861287 44.3847 1.12211 44.0596 1.64376C43.7345 2.15785 43.572 3.00081 43.572 4.17263C43.572 5.33689 43.7345 6.17984 44.0596 6.70149C44.3847 7.22314 44.8345 7.48397 45.4091 7.48397ZM49.581 8.23242V0.101494H50.5223V7.37057H53.3346V0.101494H54.2759V7.37057H55.1264V9.84273H54.2872L54.1965 8.23242H49.581ZM56.1703 0.101494H60.0487V0.974689H57.1115V3.56026H59.595V4.42211H57.1115V7.35923H60.094V8.23242H56.1703V0.101494ZM61.3421 0.101494H62.2833V3.76438H65.2431V0.101494H66.1957V8.23242H65.2431V4.63758H62.2833V8.23242H61.3421V0.101494ZM72.4066 8.23242H71.2725L69.356 4.63758H68.5736V8.23242H67.6323V0.101494H68.5736V3.77572H69.356L71.2725 0.101494H72.3158L70.1839 4.12727L72.4066 8.23242ZM78.2586 8.23242H77.2834L76.6823 5.83964H74.2442L73.6205 8.23242H72.7586L74.9019 0.101494H76.1493L78.2586 8.23242ZM74.4597 5.00046H76.4669L75.4803 1.09943L74.4597 5.00046ZM80.8349 7.44995L81.9576 5.23861L80.8349 3.02727H81.7421L82.8761 5.23861L81.7421 7.44995H80.8349ZM78.9524 7.44995L80.0864 5.23861L78.9524 3.02727H79.8596L80.9937 5.23861L79.8596 7.44995H78.9524ZM85.7501 0.101494H90.4449V8.23242H89.5037V0.974689H86.6913V8.23242H85.7501V0.101494ZM94.3912 8.34582C93.5067 8.34582 92.8112 7.98294 92.3046 7.25716C91.8057 6.52383 91.5562 5.48431 91.5562 4.13861C91.5562 2.78534 91.8057 1.75716 92.3046 1.05407C92.8112 0.350978 93.5067 -0.000567912 94.3912 -0.000567912C95.2833 -0.000567912 95.9789 0.354758 96.4778 1.06541C96.9768 1.7685 97.2263 2.79668 97.2263 4.14995C97.2263 5.48809 96.9768 6.52383 96.4778 7.25716C95.9789 7.98294 95.2833 8.34582 94.3912 8.34582ZM94.3912 7.48397C94.9658 7.48397 95.4156 7.22314 95.7407 6.70149C96.0658 6.17984 96.2283 5.33689 96.2283 4.17263C96.2283 3.00081 96.0658 2.15785 95.7407 1.64376C95.4156 1.12211 94.9658 0.861287 94.3912 0.861287C93.8167 0.861287 93.3668 1.12211 93.0417 1.64376C92.7167 2.15785 92.5541 3.00081 92.5541 4.17263C92.5541 5.33689 92.7167 6.17984 93.0417 6.70149C93.3668 7.22314 93.8167 7.48397 94.3912 7.48397ZM103.337 8.23242H102.203L100.287 4.63758H99.5044V8.23242H98.5632V0.101494H99.5044V3.77572H100.287L102.203 0.101494H103.247L101.115 4.12727L103.337 8.23242ZM109.189 8.23242H108.214L107.613 5.83964H105.175L104.551 8.23242H103.689L105.833 0.101494H107.08L109.189 8.23242ZM105.391 5.00046H107.398L106.411 1.09943L105.391 5.00046ZM111.744 8.34582C111.102 8.34582 110.505 8.18328 109.953 7.8582V6.93964C110.27 7.12864 110.569 7.2685 110.849 7.35923C111.136 7.44239 111.431 7.48397 111.733 7.48397C112.005 7.48397 112.258 7.43483 112.493 7.33655C112.735 7.23826 112.928 7.07572 113.071 6.84892C113.222 6.61455 113.298 6.30459 113.298 5.91902C113.298 5.38981 113.169 5.01558 112.912 4.79634C112.655 4.5771 112.266 4.46747 111.744 4.46747H111.03V3.65098H111.744C112.183 3.65098 112.519 3.52246 112.754 3.26541C112.988 3.00837 113.105 2.63414 113.105 2.14273C113.105 1.68156 112.984 1.3527 112.742 1.15613C112.508 0.959569 112.206 0.861287 111.835 0.861287C111.268 0.861287 110.667 1.04273 110.032 1.40562V0.487061C110.607 0.161975 111.223 -0.000567912 111.88 -0.000567912C112.538 -0.000567912 113.064 0.169535 113.457 0.509741C113.857 0.849947 114.058 1.35648 114.058 2.02933C114.058 2.5661 113.933 3.00081 113.684 3.33345C113.442 3.65854 113.101 3.88156 112.663 4.00252C113.177 4.08569 113.574 4.28225 113.854 4.59222C114.133 4.90218 114.273 5.33689 114.273 5.89634C114.273 6.47091 114.156 6.93964 113.922 7.30252C113.687 7.66541 113.377 7.93002 112.992 8.09634C112.606 8.26266 112.19 8.34582 111.744 8.34582ZM115.43 8.23242V0.101494H116.371V3.17469H117.289C118.076 3.17469 118.688 3.37503 119.126 3.77572C119.572 4.16885 119.796 4.77366 119.796 5.59015C119.796 6.21009 119.686 6.71661 119.467 7.10974C119.255 7.49531 118.956 7.77881 118.571 7.96026C118.185 8.1417 117.743 8.23242 117.244 8.23242H115.43ZM120.521 0.112834H121.463V8.23242H120.521V0.112834ZM117.244 7.37057C117.735 7.37057 118.125 7.23448 118.412 6.96232C118.707 6.68259 118.854 6.22899 118.854 5.60149C118.854 5.07228 118.718 4.67916 118.446 4.42211C118.174 4.16507 117.788 4.03655 117.289 4.03655H116.371V7.37057H117.244ZM122.916 0.101494H124.776C125.539 0.101494 126.125 0.252697 126.533 0.555102C126.949 0.857507 127.157 1.36782 127.157 2.08603C127.157 2.66816 127.021 3.11043 126.749 3.41283C126.484 3.70768 126.136 3.90802 125.706 4.01387C126.242 4.09703 126.654 4.28603 126.942 4.58088C127.229 4.87572 127.373 5.31421 127.373 5.89634C127.373 6.45579 127.255 6.9094 127.021 7.25716C126.794 7.59737 126.48 7.84685 126.08 8.00562C125.687 8.15682 125.244 8.23242 124.753 8.23242H122.916V0.101494ZM124.776 3.6283C125.199 3.6283 125.543 3.5149 125.808 3.28809C126.072 3.05373 126.204 2.67572 126.204 2.15407C126.204 1.71558 126.084 1.4094 125.842 1.23551C125.6 1.05407 125.259 0.963349 124.821 0.963349H123.857V3.6283H124.776ZM124.81 7.37057C125.278 7.37057 125.656 7.26472 125.944 7.05304C126.239 6.84136 126.386 6.46335 126.386 5.91902C126.386 5.39737 126.25 5.0307 125.978 4.81902C125.706 4.59978 125.29 4.49015 124.73 4.49015H123.857V7.37057H124.81ZM133.354 8.23242H132.379L131.778 5.83964H129.339L128.716 8.23242H127.854L129.997 0.101494H131.245L133.354 8.23242ZM129.555 5.00046H131.562L130.576 1.09943L129.555 5.00046ZM134.433 0.101494H138.312V0.974689H135.374V3.56026H137.858V4.42211H135.374V7.35923H138.357V8.23242H134.433V0.101494ZM139.096 0.974689V0.101494H144.12V0.974689H142.078V8.23242H141.137V0.974689H139.096ZM149.376 8.34582C148.491 8.34582 147.796 7.98294 147.289 7.25716C146.79 6.52383 146.541 5.48431 146.541 4.13861C146.541 2.78534 146.79 1.75716 147.289 1.05407C147.796 0.350978 148.491 -0.000567912 149.376 -0.000567912C150.268 -0.000567912 150.963 0.354758 151.462 1.06541C151.961 1.7685 152.211 2.79668 152.211 4.14995C152.211 5.48809 151.961 6.52383 151.462 7.25716C150.963 7.98294 150.268 8.34582 149.376 8.34582ZM149.376 7.48397C149.95 7.48397 150.4 7.22314 150.725 6.70149C151.05 6.17984 151.213 5.33689 151.213 4.17263C151.213 3.00081 151.05 2.15785 150.725 1.64376C150.4 1.12211 149.95 0.861287 149.376 0.861287C148.801 0.861287 148.351 1.12211 148.026 1.64376C147.701 2.15785 147.539 3.00081 147.539 4.17263C147.539 5.33689 147.701 6.17984 148.026 6.70149C148.351 7.22314 148.801 7.48397 149.376 7.48397ZM153.548 0.101494H155.294C156.08 0.101494 156.693 0.290497 157.131 0.668504C157.577 1.04651 157.8 1.6362 157.8 2.43758C157.8 3.04239 157.691 3.5338 157.471 3.9118C157.26 4.28981 156.961 4.56575 156.576 4.73964C156.19 4.91352 155.748 5.00046 155.249 5.00046H154.489V8.23242H153.548V0.101494ZM155.249 4.13861C155.74 4.13861 156.129 4.01008 156.417 3.75304C156.712 3.48844 156.859 3.05373 156.859 2.44892C156.859 1.93483 156.723 1.5606 156.451 1.32624C156.179 1.08431 155.793 0.963349 155.294 0.963349H154.489V4.13861H155.249ZM159.872 8.23242H158.874V0.101494H159.816V6.57675L162.889 0.101494H163.887V8.23242H162.946V1.75716L159.872 8.23242ZM165.342 0.101494H169.22V0.974689H166.283V3.56026H168.767V4.42211H166.283V7.35923H169.266V8.23242H165.342V0.101494ZM170.514 0.101494H171.455V3.76438H174.415V0.101494H175.367V8.23242H174.415V4.63758H171.455V8.23242H170.514V0.101494ZM176.35 0.974689V0.101494H181.374V0.974689H179.333V8.23242H178.392V0.974689H176.35ZM183.372 8.23242H182.374V0.101494H183.316V6.57675L186.389 0.101494H187.387V8.23242H186.446V1.75716L183.372 8.23242ZM188.842 0.101494H190.588C191.374 0.101494 191.987 0.290497 192.425 0.668504C192.871 1.04651 193.094 1.6362 193.094 2.43758C193.094 3.04239 192.985 3.5338 192.766 3.9118C192.554 4.28981 192.255 4.56575 191.87 4.73964C191.484 4.91352 191.042 5.00046 190.543 5.00046H189.783V8.23242H188.842V0.101494ZM190.543 4.13861C191.034 4.13861 191.424 4.01008 191.711 3.75304C192.006 3.48844 192.153 3.05373 192.153 2.44892C192.153 1.93483 192.017 1.5606 191.745 1.32624C191.473 1.08431 191.087 0.963349 190.588 0.963349H189.783V4.13861H190.543ZM196.663 8.34582C195.779 8.34582 195.083 7.98294 194.577 7.25716C194.078 6.52383 193.828 5.48431 193.828 4.13861C193.828 2.78534 194.078 1.75716 194.577 1.05407C195.083 0.350978 195.779 -0.000567912 196.663 -0.000567912C197.556 -0.000567912 198.251 0.354758 198.75 1.06541C199.249 1.7685 199.499 2.79668 199.499 4.14995C199.499 5.48809 199.249 6.52383 198.75 7.25716C198.251 7.98294 197.556 8.34582 196.663 8.34582ZM196.663 7.48397C197.238 7.48397 197.688 7.22314 198.013 6.70149C198.338 6.17984 198.501 5.33689 198.501 4.17263C198.501 3.00081 198.338 2.15785 198.013 1.64376C197.688 1.12211 197.238 0.861287 196.663 0.861287C196.089 0.861287 195.639 1.12211 195.314 1.64376C194.989 2.15785 194.826 3.00081 194.826 4.17263C194.826 5.33689 194.989 6.17984 195.314 6.70149C195.639 7.22314 196.089 7.48397 196.663 7.48397ZM200.835 0.101494H202.695C203.459 0.101494 204.045 0.252697 204.453 0.555102C204.869 0.857507 205.077 1.36782 205.077 2.08603C205.077 2.66816 204.941 3.11043 204.668 3.41283C204.404 3.70768 204.056 3.90802 203.625 4.01387C204.162 4.09703 204.574 4.28603 204.861 4.58088C205.149 4.87572 205.292 5.31421 205.292 5.89634C205.292 6.45579 205.175 6.9094 204.941 7.25716C204.714 7.59737 204.4 7.84685 203.999 8.00562C203.606 8.15682 203.164 8.23242 202.673 8.23242H200.835V0.101494ZM202.695 3.6283C203.119 3.6283 203.463 3.5149 203.727 3.28809C203.992 3.05373 204.124 2.67572 204.124 2.15407C204.124 1.71558 204.003 1.4094 203.761 1.23551C203.519 1.05407 203.179 0.963349 202.741 0.963349H201.777V3.6283H202.695ZM202.729 7.37057C203.198 7.37057 203.576 7.26472 203.863 7.05304C204.158 6.84136 204.306 6.46335 204.306 5.91902C204.306 5.39737 204.169 5.0307 203.897 4.81902C203.625 4.59978 203.209 4.49015 202.65 4.49015H201.777V7.37057H202.729ZM208.901 8.34582C208.016 8.34582 207.321 7.98294 206.814 7.25716C206.315 6.52383 206.066 5.48431 206.066 4.13861C206.066 2.78534 206.315 1.75716 206.814 1.05407C207.321 0.350978 208.016 -0.000567912 208.901 -0.000567912C209.793 -0.000567912 210.488 0.354758 210.987 1.06541C211.486 1.7685 211.736 2.79668 211.736 4.14995C211.736 5.48809 211.486 6.52383 210.987 7.25716C210.488 7.98294 209.793 8.34582 208.901 8.34582ZM208.901 7.48397C209.475 7.48397 209.925 7.22314 210.25 6.70149C210.575 6.17984 210.738 5.33689 210.738 4.17263C210.738 3.00081 210.575 2.15785 210.25 1.64376C209.925 1.12211 209.475 0.861287 208.901 0.861287C208.326 0.861287 207.876 1.12211 207.551 1.64376C207.226 2.15785 207.064 3.00081 207.064 4.17263C207.064 5.33689 207.226 6.17984 207.551 6.70149C207.876 7.22314 208.326 7.48397 208.901 7.48397ZM212.738 2.77778V0.101494H213.679V2.6984C213.679 3.25029 213.789 3.67366 214.008 3.9685C214.235 4.25579 214.598 4.39943 215.097 4.39943C215.354 4.39943 215.592 4.35785 215.811 4.27469C216.038 4.19153 216.242 4.05545 216.423 3.86644V0.101494H217.365V8.23242H216.423V4.6716C215.985 5.03448 215.471 5.21593 214.881 5.21593C214.216 5.21593 213.69 5.01558 213.305 4.6149C212.927 4.20665 212.738 3.59428 212.738 2.77778ZM218.82 0.101494H219.762V3.76438H222.721V0.101494H223.674V8.23242H222.721V4.63758H219.762V8.23242H218.82V0.101494ZM225.179 7.33655C225.239 7.34411 225.307 7.35167 225.383 7.35923C225.458 7.35923 225.538 7.35923 225.621 7.35923C225.916 7.35923 226.161 7.27606 226.358 7.10974C226.562 6.93586 226.732 6.66369 226.868 6.29325L224.6 0.101494H225.644L227.333 4.87572L228.773 0.101494H229.726L227.832 6.03242C227.575 6.8338 227.28 7.40459 226.948 7.74479C226.623 8.07744 226.195 8.24376 225.666 8.24376C225.568 8.24376 225.481 8.23998 225.405 8.23242C225.337 8.23242 225.262 8.22864 225.179 8.22108V7.33655ZM235.4 8.34582C234.901 8.34582 234.448 8.2173 234.04 7.96026C233.631 7.70321 233.299 7.30252 233.042 6.75819C232.792 6.21387 232.649 5.50699 232.611 4.63758H231.545V8.23242H230.603V0.101494H231.545V3.76438H232.611C232.649 2.8874 232.792 2.17297 233.042 1.62108C233.299 1.06919 233.631 0.660944 234.04 0.396339C234.448 0.131734 234.901 -0.000567912 235.4 -0.000567912C235.922 -0.000567912 236.395 0.143075 236.818 0.43036C237.241 0.710085 237.574 1.15613 237.816 1.7685C238.065 2.37332 238.19 3.16335 238.19 4.13861C238.19 5.11387 238.065 5.91146 237.816 6.53139C237.574 7.15132 237.241 7.60871 236.818 7.90356C236.395 8.1984 235.922 8.34582 235.4 8.34582ZM235.4 7.48397C235.748 7.48397 236.054 7.38569 236.319 7.18912C236.591 6.99256 236.807 6.65613 236.965 6.17984C237.124 5.696 237.203 5.02692 237.203 4.17263C237.203 3.31833 237.124 2.65304 236.965 2.17675C236.807 1.6929 236.591 1.3527 236.319 1.15613C236.054 0.959569 235.748 0.861287 235.4 0.861287C235.06 0.861287 234.754 0.959569 234.482 1.15613C234.21 1.3527 233.994 1.6929 233.835 2.17675C233.684 2.65304 233.609 3.31833 233.609 4.17263C233.609 5.02692 233.684 5.696 233.835 6.17984C233.994 6.65613 234.21 6.99256 234.482 7.18912C234.754 7.38569 235.06 7.48397 235.4 7.48397ZM0.532414 19.2324V11.1015H1.47365V18.3706H4.28602V11.1015H5.22726V18.3706H6.07777V20.8427H5.2386L5.14788 19.2324H0.532414ZM7.12169 11.1015H11V11.9747H8.06293V14.5603H10.5464V15.4221H8.06293V18.3592H11.0454V19.2324H7.12169V11.1015ZM12.2934 11.1015H13.2347V14.7644H16.1945V11.1015H17.1471V19.2324H16.1945V15.6376H13.2347V19.2324H12.2934V11.1015ZM18.6518 18.3365C18.7122 18.3441 18.7803 18.3517 18.8559 18.3592C18.9315 18.3592 19.0109 18.3592 19.094 18.3592C19.3889 18.3592 19.6346 18.2761 19.8311 18.1097C20.0353 17.9359 20.2054 17.6637 20.3415 17.2932L18.0734 11.1015H19.1167L20.8064 15.8757L22.2466 11.1015H23.1992L21.3054 17.0324C21.0483 17.8338 20.7535 18.4046 20.4208 18.7448C20.0957 19.0774 19.6686 19.2438 19.1394 19.2438C19.0411 19.2438 18.9542 19.24 18.8786 19.2324C18.8105 19.2324 18.7349 19.2286 18.6518 19.2211V18.3365ZM23.378 19.3005C23.189 19.3005 23.034 19.2362 22.913 19.1077C22.7996 18.9792 22.7429 18.8204 22.7429 18.6314C22.7429 18.4348 22.7996 18.2761 22.913 18.1551C23.034 18.0266 23.189 17.9623 23.378 17.9623C23.5519 17.9623 23.6993 18.0266 23.8202 18.1551C23.9412 18.2761 24.0017 18.4348 24.0017 18.6314C24.0017 18.8204 23.9412 18.9792 23.8202 19.1077C23.6993 19.2362 23.5519 19.3005 23.378 19.3005ZM26.3879 18.3706H26.8982C27.0192 18.1967 27.1212 17.9963 27.2044 17.7695C27.2951 17.5427 27.3669 17.2592 27.4199 16.919C27.4803 16.5713 27.5257 16.1403 27.5559 15.6262C27.5937 15.1121 27.6202 14.4884 27.6353 13.7551C27.658 13.0142 27.6769 12.1297 27.692 11.1015H31.8539V18.3706H32.7044V20.8427H31.8652L31.7745 19.2324H27.3065L27.2157 20.8427H26.3879V18.3706ZM27.9075 18.3706H30.9127V11.9747H28.5652C28.5577 13.0255 28.5388 13.9139 28.5085 14.6396C28.4858 15.3579 28.448 15.9551 28.3951 16.4314C28.3498 16.9001 28.2855 17.2895 28.2023 17.5994C28.1267 17.9018 28.0285 18.1589 27.9075 18.3706ZM36.018 19.3458C35.1334 19.3458 34.4379 18.9829 33.9314 18.2572C33.4324 17.5238 33.1829 16.4843 33.1829 15.1386C33.1829 13.7853 33.4324 12.7572 33.9314 12.0541C34.4379 11.351 35.1334 10.9994 36.018 10.9994C36.9101 10.9994 37.6056 11.3548 38.1046 12.0654C38.6035 12.7685 38.853 13.7967 38.853 15.1499C38.853 16.4881 38.6035 17.5238 38.1046 18.2572C37.6056 18.9829 36.9101 19.3458 36.018 19.3458ZM36.018 18.484C36.5925 18.484 37.0424 18.2231 37.3674 17.7015C37.6925 17.1798 37.8551 16.3369 37.8551 15.1726C37.8551 14.0008 37.6925 13.1579 37.3674 12.6438C37.0424 12.1221 36.5925 11.8613 36.018 11.8613C35.4434 11.8613 34.9936 12.1221 34.6685 12.6438C34.3434 13.1579 34.1808 14.0008 34.1808 15.1726C34.1808 16.3369 34.3434 17.1798 34.6685 17.7015C34.9936 18.2231 35.4434 18.484 36.018 18.484ZM42.8662 19.3458C41.9061 19.3458 41.1614 18.9754 40.6322 18.2345C40.1105 17.4936 39.8497 16.473 39.8497 15.1726C39.8497 13.8647 40.1105 12.8441 40.6322 12.1108C41.1538 11.3699 41.9098 10.9994 42.9002 10.9994C43.6411 10.9994 44.2459 11.1884 44.7147 11.5664V12.485C44.4803 12.2884 44.2006 12.1372 43.8755 12.0314C43.5504 11.918 43.2291 11.8613 42.9116 11.8613C42.1933 11.8613 41.6717 12.141 41.3466 12.7005C41.0215 13.2599 40.859 14.084 40.859 15.1726C40.859 16.2613 41.0291 17.0853 41.3693 17.6448C41.7171 18.2042 42.2538 18.484 42.9796 18.484C43.6147 18.484 44.193 18.2458 44.7147 17.7695V18.6881C44.5181 18.8847 44.2497 19.0434 43.9095 19.1644C43.5769 19.2853 43.2291 19.3458 42.8662 19.3458ZM45.5172 11.9747V11.1015H50.5409V11.9747H48.4996V19.2324H47.5584V11.9747H45.5172ZM51.72 18.3365C51.7805 18.3441 51.8485 18.3517 51.9241 18.3592C51.9997 18.3592 52.0791 18.3592 52.1622 18.3592C52.4571 18.3592 52.7028 18.2761 52.8994 18.1097C53.1035 17.9359 53.2736 17.6637 53.4097 17.2932L51.1416 11.1015H52.1849L53.8746 15.8757L55.3148 11.1015H56.2674L54.3736 17.0324C54.1165 17.8338 53.8217 18.4046 53.489 18.7448C53.164 19.0774 52.7368 19.2438 52.2076 19.2438C52.1093 19.2438 52.0224 19.24 51.9468 19.2324C51.8787 19.2324 51.8031 19.2286 51.72 19.2211V18.3365ZM57.1448 11.1015H61.8397V19.2324H60.8985V11.9747H58.0861V19.2324H57.1448V11.1015ZM63.2912 11.1015H64.2324V14.7644H67.1922V11.1015H68.1448V19.2324H67.1922V15.6376H64.2324V19.2324H63.2912V11.1015ZM72.0763 19.3458C71.1917 19.3458 70.4962 18.9829 69.9897 18.2572C69.4907 17.5238 69.2412 16.4843 69.2412 15.1386C69.2412 13.7853 69.4907 12.7572 69.9897 12.0541C70.4962 11.351 71.1917 10.9994 72.0763 10.9994C72.9684 10.9994 73.6639 11.3548 74.1629 12.0654C74.6618 12.7685 74.9113 13.7967 74.9113 15.1499C74.9113 16.4881 74.6618 17.5238 74.1629 18.2572C73.6639 18.9829 72.9684 19.3458 72.0763 19.3458ZM72.0763 18.484C72.6508 18.484 73.1007 18.2231 73.4258 17.7015C73.7508 17.1798 73.9134 16.3369 73.9134 15.1726C73.9134 14.0008 73.7508 13.1579 73.4258 12.6438C73.1007 12.1221 72.6508 11.8613 72.0763 11.8613C71.5017 11.8613 71.0519 12.1221 70.7268 12.6438C70.4017 13.1579 70.2392 14.0008 70.2392 15.1726C70.2392 16.3369 70.4017 17.1798 70.7268 17.7015C71.0519 18.2231 71.5017 18.484 72.0763 18.484ZM77.3967 18.3706H77.907C78.028 18.1967 78.13 17.9963 78.2132 17.7695C78.3039 17.5427 78.3757 17.2592 78.4286 16.919C78.4891 16.5713 78.5345 16.1403 78.5647 15.6262C78.6025 15.1121 78.629 14.4884 78.6441 13.7551C78.6668 13.0142 78.6857 12.1297 78.7008 11.1015H82.8627V18.3706H83.7132V20.8427H82.874L82.7833 19.2324H78.3152L78.2245 20.8427H77.3967V18.3706ZM78.9163 18.3706H81.9214V11.9747H79.574C79.5664 13.0255 79.5475 13.9139 79.5173 14.6396C79.4946 15.3579 79.4568 15.9551 79.4039 16.4314C79.3585 16.9001 79.2943 17.2895 79.2111 17.5994C79.1355 17.9018 79.0372 18.1589 78.9163 18.3706ZM84.2531 18.2912C84.6235 18.3139 84.8768 18.2345 85.0129 18.053C85.1565 17.864 85.2548 17.5238 85.3077 17.0324C85.338 16.7678 85.3606 16.4768 85.3758 16.1592C85.3984 15.8341 85.4173 15.4486 85.4325 15.0025C85.4476 14.5565 85.4589 14.0197 85.4665 13.3922C85.474 12.7572 85.4778 11.9936 85.4778 11.1015H89.4696V19.2324H88.5283V11.9747H86.3624C86.3548 13.2372 86.3397 14.2805 86.317 15.1046C86.2943 15.9211 86.2565 16.5864 86.2036 17.1005C86.128 17.9018 85.9352 18.4726 85.6252 18.8128C85.3153 19.153 84.8579 19.308 84.2531 19.2778V18.2912ZM90.8311 13.4943C90.8311 12.6853 91.0466 12.0843 91.4775 11.6912C91.9084 11.2981 92.4906 11.1015 93.2239 11.1015H95.2084V19.2324H94.2672V15.9211H93.1785L91.4548 19.2324H90.3888L92.26 15.717C91.7837 15.5733 91.4246 15.3201 91.1827 14.9572C90.9483 14.5943 90.8311 14.1066 90.8311 13.4943ZM93.1445 15.0592H94.2672V11.9633H93.2239C92.7778 11.9633 92.4263 12.0805 92.1693 12.3149C91.9122 12.5493 91.7837 12.9499 91.7837 13.517C91.7837 14.0462 91.8971 14.4355 92.1239 14.685C92.3583 14.9345 92.6985 15.0592 93.1445 15.0592ZM103.398 19.2324H102.422L101.821 16.8396H99.3831L98.7594 19.2324H97.8976L100.041 11.1015H101.288L103.398 19.2324ZM99.5986 16.0005H101.606L100.619 12.0994L99.5986 16.0005ZM104.477 11.1015H106.337C107.1 11.1015 107.686 11.2527 108.094 11.5551C108.51 11.8575 108.718 12.3678 108.718 13.086C108.718 13.6682 108.582 14.1104 108.31 14.4128C108.045 14.7077 107.698 14.908 107.267 15.0139C107.803 15.097 108.215 15.286 108.503 15.5809C108.79 15.8757 108.934 16.3142 108.934 16.8963C108.934 17.4558 108.816 17.9094 108.582 18.2572C108.355 18.5974 108.042 18.8469 107.641 19.0056C107.248 19.1568 106.805 19.2324 106.314 19.2324H104.477V11.1015ZM106.337 14.6283C106.76 14.6283 107.104 14.5149 107.369 14.2881C107.633 14.0537 107.766 13.6757 107.766 13.1541C107.766 12.7156 107.645 12.4094 107.403 12.2355C107.161 12.0541 106.821 11.9633 106.382 11.9633H105.418V14.6283H106.337ZM106.371 18.3706C106.839 18.3706 107.217 18.2647 107.505 18.053C107.8 17.8414 107.947 17.4633 107.947 16.919C107.947 16.3974 107.811 16.0307 107.539 15.819C107.267 15.5998 106.851 15.4902 106.291 15.4902H105.418V18.3706H106.371ZM109.428 11.9747V11.1015H114.451V11.9747H112.41V19.2324H111.469V11.9747H109.428ZM117.548 19.3458C116.663 19.3458 115.968 18.9829 115.461 18.2572C114.962 17.5238 114.713 16.4843 114.713 15.1386C114.713 13.7853 114.962 12.7572 115.461 12.0541C115.968 11.351 116.663 10.9994 117.548 10.9994C118.44 10.9994 119.135 11.3548 119.634 12.0654C120.133 12.7685 120.383 13.7967 120.383 15.1499C120.383 16.4881 120.133 17.5238 119.634 18.2572C119.135 18.9829 118.44 19.3458 117.548 19.3458ZM117.548 18.484C118.122 18.484 118.572 18.2231 118.897 17.7015C119.222 17.1798 119.385 16.3369 119.385 15.1726C119.385 14.0008 119.222 13.1579 118.897 12.6438C118.572 12.1221 118.122 11.8613 117.548 11.8613C116.973 11.8613 116.523 12.1221 116.198 12.6438C115.873 13.1579 115.711 14.0008 115.711 15.1726C115.711 16.3369 115.873 17.1798 116.198 17.7015C116.523 18.2231 116.973 18.484 117.548 18.484ZM125.145 17.9963H124.283L122.582 12.6664V19.2324H121.72V11.1015H123.047L124.782 16.5448L126.573 11.1015H127.832V19.2324H126.891V12.6891L125.145 17.9963ZM131.767 19.3458C130.883 19.3458 130.187 18.9829 129.681 18.2572C129.182 17.5238 128.932 16.4843 128.932 15.1386C128.932 13.7853 129.182 12.7572 129.681 12.0541C130.187 11.351 130.883 10.9994 131.767 10.9994C132.659 10.9994 133.355 11.3548 133.854 12.0654C134.353 12.7685 134.602 13.7967 134.602 15.1499C134.602 16.4881 134.353 17.5238 133.854 18.2572C133.355 18.9829 132.659 19.3458 131.767 19.3458ZM131.767 18.484C132.342 18.484 132.792 18.2231 133.117 17.7015C133.442 17.1798 133.605 16.3369 133.605 15.1726C133.605 14.0008 133.442 13.1579 133.117 12.6438C132.792 12.1221 132.342 11.8613 131.767 11.8613C131.193 11.8613 130.743 12.1221 130.418 12.6438C130.093 13.1579 129.93 14.0008 129.93 15.1726C129.93 16.3369 130.093 17.1798 130.418 17.7015C130.743 18.2231 131.193 18.484 131.767 18.484ZM135.939 19.2324V11.1015H139.863V11.9747H136.881V14.4242H137.72C138.483 14.4242 139.084 14.6094 139.523 14.9798C139.961 15.3427 140.181 15.9286 140.181 16.7376C140.181 17.3348 140.071 17.8187 139.852 18.1891C139.632 18.552 139.33 18.8166 138.945 18.9829C138.559 19.1493 138.12 19.2324 137.629 19.2324H135.939ZM137.708 18.3706C138.162 18.3706 138.525 18.2534 138.797 18.019C139.069 17.7847 139.205 17.3726 139.205 16.7829C139.205 15.785 138.729 15.286 137.776 15.286H136.881V18.3706H137.708ZM142.364 19.2324H141.366V11.1015H142.307V17.5768L145.38 11.1015H146.378V19.2324H145.437V12.7572L142.364 19.2324ZM147.278 18.2912C147.648 18.3139 147.901 18.2345 148.037 18.053C148.181 17.864 148.279 17.5238 148.332 17.0324C148.362 16.7678 148.385 16.4768 148.4 16.1592C148.423 15.8341 148.442 15.4486 148.457 15.0025C148.472 14.5565 148.483 14.0197 148.491 13.3922C148.499 12.7572 148.502 11.9936 148.502 11.1015H152.494V19.2324H151.553V11.9747H149.387C149.379 13.2372 149.364 14.2805 149.342 15.1046C149.319 15.9211 149.281 16.5864 149.228 17.1005C149.153 17.9018 148.96 18.4726 148.65 18.8128C148.34 19.153 147.882 19.308 147.278 19.2778V18.2912ZM153.946 11.1015H157.825V11.9747H154.888V14.5603H157.371V15.4221H154.888V18.3592H157.87V19.2324H153.946V11.1015ZM161.624 10.6479C161.125 10.6479 160.755 10.4929 160.513 10.1829C160.271 9.86541 160.15 9.47984 160.15 9.02624H160.989C160.989 9.36644 161.046 9.61215 161.159 9.76335C161.28 9.90699 161.435 9.97881 161.624 9.97881C161.821 9.97881 161.976 9.90699 162.089 9.76335C162.21 9.61215 162.271 9.36644 162.271 9.02624H163.099C163.099 9.47984 162.978 9.86541 162.736 10.1829C162.494 10.4929 162.123 10.6479 161.624 10.6479ZM160.116 19.2324H159.118V11.1015H160.059V17.5768L163.133 11.1015H164.13V19.2324H163.189V12.7572L160.116 19.2324ZM166.017 20.4118H165.37C165.484 20.253 165.589 20.064 165.688 19.8448C165.786 19.6331 165.843 19.4403 165.858 19.2664C165.714 19.2438 165.597 19.1757 165.506 19.0623C165.423 18.9414 165.381 18.8015 165.381 18.6427C165.381 18.4386 165.438 18.2761 165.552 18.1551C165.673 18.0266 165.827 17.9623 166.017 17.9623C166.198 17.9623 166.345 18.0266 166.459 18.1551C166.58 18.2836 166.64 18.4651 166.64 18.6994C166.64 19.0396 166.568 19.3685 166.425 19.686C166.289 20.0036 166.153 20.2455 166.017 20.4118ZM170.637 19.2324H169.639V11.1015H170.58V17.5768L173.653 11.1015H174.651V19.2324H173.71V12.7572L170.637 19.2324ZM176.106 11.1015H177.048V14.7644H180.007V11.1015H180.96V19.2324H180.007V15.6376H177.048V19.2324H176.106V11.1015ZM185.096 10.886H186.037V11.8273C186.657 11.8651 187.205 12.0087 187.681 12.2582C188.165 12.5001 188.543 12.8554 188.815 13.3242C189.087 13.7929 189.223 14.375 189.223 15.0706C189.223 15.751 189.087 16.3331 188.815 16.817C188.543 17.2932 188.165 17.6675 187.681 17.9396C187.205 18.2042 186.657 18.3554 186.037 18.3932V19.4592H185.096V18.3932C184.483 18.363 183.935 18.2269 183.451 17.985C182.967 17.7355 182.586 17.3764 182.306 16.9077C182.034 16.439 181.898 15.8568 181.898 15.1613C181.898 14.4733 182.034 13.8912 182.306 13.4149C182.586 12.931 182.967 12.5568 183.451 12.2922C183.935 12.0201 184.483 11.8651 185.096 11.8273V10.886ZM182.873 15.1386C182.873 15.7056 182.967 16.1668 183.156 16.5221C183.353 16.8774 183.617 17.142 183.95 17.3159C184.283 17.4823 184.665 17.5805 185.096 17.6108V12.5984C184.665 12.6362 184.283 12.7458 183.95 12.9273C183.617 13.1087 183.353 13.3809 183.156 13.7438C182.967 14.1066 182.873 14.5716 182.873 15.1386ZM188.259 15.0932C188.259 14.5262 188.165 14.0651 187.976 13.7097C187.787 13.3544 187.522 13.0936 187.182 12.9273C186.849 12.7534 186.468 12.6513 186.037 12.6211V17.6221C186.468 17.5843 186.849 17.4747 187.182 17.2932C187.522 17.1118 187.787 16.8434 187.976 16.4881C188.165 16.1252 188.259 15.6603 188.259 15.0932ZM192.666 19.3458C191.781 19.3458 191.086 18.9829 190.579 18.2572C190.08 17.5238 189.831 16.4843 189.831 15.1386C189.831 13.7853 190.08 12.7572 190.579 12.0541C191.086 11.351 191.781 10.9994 192.666 10.9994C193.558 10.9994 194.253 11.3548 194.752 12.0654C195.251 12.7685 195.501 13.7967 195.501 15.1499C195.501 16.4881 195.251 17.5238 194.752 18.2572C194.253 18.9829 193.558 19.3458 192.666 19.3458ZM192.666 18.484C193.24 18.484 193.69 18.2231 194.015 17.7015C194.34 17.1798 194.503 16.3369 194.503 15.1726C194.503 14.0008 194.34 13.1579 194.015 12.6438C193.69 12.1221 193.24 11.8613 192.666 11.8613C192.091 11.8613 191.641 12.1221 191.316 12.6438C190.991 13.1579 190.829 14.0008 190.829 15.1726C190.829 16.3369 190.991 17.1798 191.316 17.7015C191.641 18.2231 192.091 18.484 192.666 18.484ZM196.838 11.1015H198.584C199.37 11.1015 199.983 11.2905 200.421 11.6685C200.867 12.0465 201.09 12.6362 201.09 13.4376C201.09 14.0424 200.981 14.5338 200.761 14.9118C200.55 15.2898 200.251 15.5658 199.865 15.7396C199.48 15.9135 199.038 16.0005 198.539 16.0005H197.779V19.2324H196.838V11.1015ZM198.539 15.1386C199.03 15.1386 199.419 15.0101 199.707 14.753C200.002 14.4884 200.149 14.0537 200.149 13.4489C200.149 12.9348 200.013 12.5606 199.741 12.3262C199.469 12.0843 199.083 11.9633 198.584 11.9633H197.779V15.1386H198.539ZM205.589 17.9963H204.727L203.026 12.6664V19.2324H202.164V11.1015H203.491L205.226 16.5448L207.018 11.1015H208.277V19.2324H207.336V12.6891L205.589 17.9963ZM214.695 19.2324H213.72L213.119 16.8396H210.681L210.057 19.2324H209.195L211.339 11.1015H212.586L214.695 19.2324ZM210.897 16.0005H212.904L211.917 12.0994L210.897 16.0005ZM215.775 19.2324V11.1015H216.716V18.3706H219.528V11.1015H220.47V18.3706H221.32V20.8427H220.481L220.39 19.2324H215.775ZM223.362 19.2324H222.364V11.1015H223.305V17.5768L226.379 11.1015H227.376V19.2324H226.435V12.7572L223.362 19.2324ZM228.741 13.4943C228.741 12.6853 228.956 12.0843 229.387 11.6912C229.818 11.2981 230.4 11.1015 231.134 11.1015H233.118V19.2324H232.177V15.9211H231.088L229.365 19.2324H228.299L230.17 15.717C229.693 15.5733 229.334 15.3201 229.092 14.9572C228.858 14.5943 228.741 14.1066 228.741 13.4943ZM231.054 15.0592H232.177V11.9633H231.134C230.688 11.9633 230.336 12.0805 230.079 12.3149C229.822 12.5493 229.693 12.9499 229.693 13.517C229.693 14.0462 229.807 14.4355 230.034 14.685C230.268 14.9345 230.608 15.0592 231.054 15.0592ZM3.02726 30.3458C2.14272 30.3458 1.44719 29.9829 0.940661 29.2572C0.441692 28.5238 0.192208 27.4843 0.192208 26.1386C0.192208 24.7853 0.441692 23.7572 0.940661 23.0541C1.44719 22.351 2.14272 21.9994 3.02726 21.9994C3.91936 21.9994 4.61489 22.3548 5.11386 23.0654C5.61283 23.7685 5.86231 24.7967 5.86231 26.1499C5.86231 27.4881 5.61283 28.5238 5.11386 29.2572C4.61489 29.9829 3.91936 30.3458 3.02726 30.3458ZM3.02726 29.484C3.60183 29.484 4.05166 29.2231 4.37674 28.7015C4.70183 28.1798 4.86437 27.3369 4.86437 26.1726C4.86437 25.0008 4.70183 24.1579 4.37674 23.6438C4.05166 23.1221 3.60183 22.8613 3.02726 22.8613C2.45269 22.8613 2.00286 23.1221 1.67777 23.6438C1.35269 24.1579 1.19015 25.0008 1.19015 26.1726C1.19015 27.3369 1.35269 28.1798 1.67777 28.7015C2.00286 29.2231 2.45269 29.484 3.02726 29.484ZM13.7343 30.2324H12.6003L10.6838 26.6376H9.90128V30.2324H8.96005V22.1015H9.90128V25.7757H10.6838L12.6003 22.1015H13.6436L11.5116 26.1273L13.7343 30.2324ZM16.5381 30.3458C15.6535 30.3458 14.958 29.9829 14.4515 29.2572C13.9525 28.5238 13.703 27.4843 13.703 26.1386C13.703 24.7853 13.9525 23.7572 14.4515 23.0541C14.958 22.351 15.6535 21.9994 16.5381 21.9994C17.4301 21.9994 18.1257 22.3548 18.6247 23.0654C19.1236 23.7685 19.3731 24.7967 19.3731 26.1499C19.3731 27.4881 19.1236 28.5238 18.6247 29.2572C18.1257 29.9829 17.4301 30.3458 16.5381 30.3458ZM16.5381 29.484C17.1126 29.484 17.5625 29.2231 17.8875 28.7015C18.2126 28.1798 18.3752 27.3369 18.3752 26.1726C18.3752 25.0008 18.2126 24.1579 17.8875 23.6438C17.5625 23.1221 17.1126 22.8613 16.5381 22.8613C15.9635 22.8613 15.5137 23.1221 15.1886 23.6438C14.8635 24.1579 14.7009 25.0008 14.7009 26.1726C14.7009 27.3369 14.8635 28.1798 15.1886 28.7015C15.5137 29.2231 15.9635 29.484 16.5381 29.484ZM19.8577 22.9747V22.1015H24.8814V22.9747H22.8402V30.2324H21.899V22.9747H19.8577ZM27.9779 30.3458C27.0934 30.3458 26.3979 29.9829 25.8913 29.2572C25.3924 28.5238 25.1429 27.4843 25.1429 26.1386C25.1429 24.7853 25.3924 23.7572 25.8913 23.0541C26.3979 22.351 27.0934 21.9994 27.9779 21.9994C28.87 21.9994 29.5656 22.3548 30.0645 23.0654C30.5635 23.7685 30.813 24.7967 30.813 26.1499C30.813 27.4881 30.5635 28.5238 30.0645 29.2572C29.5656 29.9829 28.87 30.3458 27.9779 30.3458ZM27.9779 29.484C28.5525 29.484 29.0023 29.2231 29.3274 28.7015C29.6525 28.1798 29.815 27.3369 29.815 26.1726C29.815 25.0008 29.6525 24.1579 29.3274 23.6438C29.0023 23.1221 28.5525 22.8613 27.9779 22.8613C27.4034 22.8613 26.9535 23.1221 26.6284 23.6438C26.3034 24.1579 26.1408 25.0008 26.1408 26.1726C26.1408 27.3369 26.3034 28.1798 26.6284 28.7015C26.9535 29.2231 27.4034 29.484 27.9779 29.484ZM32.1499 22.1015H33.8963C34.6825 22.1015 35.2949 22.2905 35.7334 22.6685C36.1794 23.0465 36.4025 23.6362 36.4025 24.4376C36.4025 25.0424 36.2928 25.5338 36.0736 25.9118C35.8619 26.2898 35.5633 26.5658 35.1777 26.7396C34.7922 26.9135 34.3499 27.0005 33.8509 27.0005H33.0911V30.2324H32.1499V22.1015ZM33.8509 26.1386C34.3423 26.1386 34.7317 26.0101 35.019 25.753C35.3138 25.4884 35.4612 25.0537 35.4612 24.4489C35.4612 23.9348 35.3251 23.5606 35.053 23.3262C34.7808 23.0843 34.3952 22.9633 33.8963 22.9633H33.0911V26.1386H33.8509ZM37.4767 30.2324V22.1015H38.4179V25.1747H39.3365C40.1227 25.1747 40.7351 25.375 41.1736 25.7757C41.6196 26.1688 41.8427 26.7737 41.8427 27.5902C41.8427 28.2101 41.733 28.7166 41.5138 29.1097C41.3021 29.4953 41.0035 29.7788 40.6179 29.9603C40.2324 30.1417 39.7901 30.2324 39.2911 30.2324H37.4767ZM42.5684 22.1128H43.5097V30.2324H42.5684V22.1128ZM39.2911 29.3706C39.7825 29.3706 40.1719 29.2345 40.4592 28.9623C40.754 28.6826 40.9014 28.229 40.9014 27.6015C40.9014 27.0723 40.7653 26.6792 40.4932 26.4221C40.221 26.1651 39.8354 26.0365 39.3365 26.0365H38.4179V29.3706H39.2911ZM44.5547 22.1015H45.6547L47.129 25.186L48.5692 22.1015H49.5444L47.6053 25.9912L49.7032 30.2324H48.5919L46.9815 26.819L45.3259 30.2324H44.3506L46.5053 25.9912L44.5547 22.1015ZM54.9595 30.3458C53.9993 30.3458 53.2547 29.9754 52.7254 29.2345C52.2038 28.4936 51.943 27.473 51.943 26.1726C51.943 24.8647 52.2038 23.8441 52.7254 23.1108C53.2471 22.3699 54.0031 21.9994 54.9935 21.9994C55.7344 21.9994 56.3392 22.1884 56.8079 22.5664V23.485C56.5736 23.2884 56.2938 23.1372 55.9687 23.0314C55.6437 22.918 55.3224 22.8613 55.0048 22.8613C54.2866 22.8613 53.765 23.141 53.4399 23.7005C53.1148 24.2599 52.9523 25.084 52.9523 26.1726C52.9523 27.2613 53.1224 28.0853 53.4626 28.6448C53.8103 29.2042 54.3471 29.484 55.0729 29.484C55.7079 29.484 56.2863 29.2458 56.8079 28.7695V29.6881C56.6114 29.8847 56.343 30.0434 56.0028 30.1644C55.6701 30.2853 55.3224 30.3458 54.9595 30.3458ZM60.3928 30.3458C59.5082 30.3458 58.8127 29.9829 58.3062 29.2572C57.8072 28.5238 57.5577 27.4843 57.5577 26.1386C57.5577 24.7853 57.8072 23.7572 58.3062 23.0541C58.8127 22.351 59.5082 21.9994 60.3928 21.9994C61.2849 21.9994 61.9804 22.3548 62.4794 23.0654C62.9783 23.7685 63.2278 24.7967 63.2278 26.1499C63.2278 27.4881 62.9783 28.5238 62.4794 29.2572C61.9804 29.9829 61.2849 30.3458 60.3928 30.3458ZM60.3928 29.484C60.9673 29.484 61.4172 29.2231 61.7422 28.7015C62.0673 28.1798 62.2299 27.3369 62.2299 26.1726C62.2299 25.0008 62.0673 24.1579 61.7422 23.6438C61.4172 23.1221 60.9673 22.8613 60.3928 22.8613C59.8182 22.8613 59.3684 23.1221 59.0433 23.6438C58.7182 24.1579 58.5556 25.0008 58.5556 26.1726C58.5556 27.3369 58.7182 28.1798 59.0433 28.7015C59.3684 29.2231 59.8182 29.484 60.3928 29.484ZM63.609 29.3706H64.1193C64.2403 29.1967 64.3424 28.9963 64.4255 28.7695C64.5163 28.5427 64.5881 28.2592 64.641 27.919C64.7015 27.5713 64.7468 27.1403 64.7771 26.6262C64.8149 26.1121 64.8413 25.4884 64.8565 24.7551C64.8791 24.0142 64.898 23.1297 64.9132 22.1015H69.075V29.3706H69.9255V31.8427H69.0864L68.9956 30.2324H64.5276L64.4369 31.8427H63.609V29.3706ZM65.1286 29.3706H68.1338V22.9747H65.7864C65.7788 24.0255 65.7599 24.9139 65.7297 25.6396C65.707 26.3579 65.6692 26.9551 65.6163 27.4314C65.5709 27.9001 65.5066 28.2895 65.4235 28.5994C65.3479 28.9018 65.2496 29.1589 65.1286 29.3706ZM70.9657 22.1015H74.8441V22.9747H71.907V25.5603H74.3905V26.4221H71.907V29.3592H74.8894V30.2324H70.9657V22.1015ZM76.1375 22.1015H77.8839C78.6701 22.1015 79.2825 22.2905 79.721 22.6685C80.167 23.0465 80.3901 23.6362 80.3901 24.4376C80.3901 25.0424 80.2804 25.5338 80.0612 25.9118C79.8495 26.2898 79.5509 26.5658 79.1653 26.7396C78.7797 26.9135 78.3375 27.0005 77.8385 27.0005H77.0787V30.2324H76.1375V22.1015ZM77.8385 26.1386C78.3299 26.1386 78.7193 26.0101 79.0066 25.753C79.3014 25.4884 79.4488 25.0537 79.4488 24.4489C79.4488 23.9348 79.3127 23.5606 79.0406 23.3262C78.7684 23.0843 78.3828 22.9633 77.8839 22.9633H77.0787V26.1386H77.8385ZM80.6547 30.2324L82.6165 26.0819L80.7454 22.1015H81.7887L83.4671 25.7757H84.2722V22.1015H85.2135V25.7757H86.0186L87.697 22.1015H88.7403L86.8805 26.0592L88.831 30.2324H87.697L86.03 26.5922H85.2135V30.2324H84.2722V26.5922H83.4444L81.766 30.2324H80.6547ZM90.757 30.2324H89.759V22.1015H90.7003V28.5768L93.7734 22.1015H94.7714V30.2324H93.8301V23.7572L90.757 30.2324ZM95.7729 22.9747V22.1015H100.797V22.9747H98.7553V30.2324H97.8141V22.9747H95.7729ZM104.075 30.3458C103.114 30.3458 102.37 29.9754 101.841 29.2345C101.319 28.4936 101.058 27.473 101.058 26.1726C101.058 24.8647 101.319 23.8441 101.841 23.1108C102.362 22.3699 103.118 21.9994 104.109 21.9994C104.849 21.9994 105.454 22.1884 105.923 22.5664V23.485C105.689 23.2884 105.409 23.1372 105.084 23.0314C104.759 22.918 104.437 22.8613 104.12 22.8613C103.402 22.8613 102.88 23.141 102.555 23.7005C102.23 24.2599 102.067 25.084 102.067 26.1726C102.067 27.2613 102.237 28.0853 102.578 28.6448C102.925 29.2042 103.462 29.484 104.188 29.484C104.823 29.484 105.401 29.2458 105.923 28.7695V29.6881C105.726 29.8847 105.458 30.0434 105.118 30.1644C104.785 30.2853 104.437 30.3458 104.075 30.3458ZM107.033 24.4943C107.033 23.6853 107.248 23.0843 107.679 22.6912C108.11 22.2981 108.692 22.1015 109.426 22.1015H111.41V30.2324H110.469V26.9211H109.38L107.657 30.2324H106.591L108.462 26.717C107.986 26.5733 107.626 26.3201 107.385 25.9572C107.15 25.5943 107.033 25.1066 107.033 24.4943ZM109.346 26.0592H110.469V22.9633H109.426C108.98 22.9633 108.628 23.0805 108.371 23.3149C108.114 23.5493 107.986 23.9499 107.986 24.517C107.986 25.0462 108.099 25.4355 108.326 25.685C108.56 25.9345 108.9 26.0592 109.346 26.0592ZM114.621 22.1015H116.481C117.244 22.1015 117.83 22.2527 118.239 22.5551C118.654 22.8575 118.862 23.3678 118.862 24.086C118.862 24.6682 118.726 25.1104 118.454 25.4128C118.189 25.7077 117.842 25.908 117.411 26.0139C117.948 26.097 118.36 26.286 118.647 26.5809C118.934 26.8757 119.078 27.3142 119.078 27.8963C119.078 28.4558 118.961 28.9094 118.726 29.2572C118.499 29.5974 118.186 29.8469 117.785 30.0056C117.392 30.1568 116.95 30.2324 116.458 30.2324H114.621V22.1015ZM116.481 25.6283C116.904 25.6283 117.248 25.5149 117.513 25.2881C117.777 25.0537 117.91 24.6757 117.91 24.1541C117.91 23.7156 117.789 23.4094 117.547 23.2355C117.305 23.0541 116.965 22.9633 116.526 22.9633H115.562V25.6283H116.481ZM116.515 29.3706C116.984 29.3706 117.362 29.2647 117.649 29.053C117.944 28.8414 118.091 28.4633 118.091 27.919C118.091 27.3974 117.955 27.0307 117.683 26.819C117.411 26.5998 116.995 26.4902 116.436 26.4902H115.562V29.3706H116.515ZM122.008 30.2324V22.1015H125.931V22.9747H122.949V25.4242H123.788C124.552 25.4242 125.153 25.6094 125.591 25.9798C126.03 26.3427 126.249 26.9286 126.249 27.7376C126.249 28.3348 126.139 28.8187 125.92 29.1891C125.701 29.552 125.398 29.8166 125.013 29.9829C124.627 30.1493 124.189 30.2324 123.697 30.2324H122.008ZM123.777 29.3706C124.23 29.3706 124.593 29.2534 124.865 29.019C125.138 28.7847 125.274 28.3726 125.274 27.7829C125.274 26.785 124.797 26.286 123.845 26.286H122.949V29.3706H123.777ZM132.246 30.2324H131.271L130.67 27.8396H128.232L127.608 30.2324H126.746L128.89 22.1015H130.137L132.246 30.2324ZM128.447 27.0005H130.455L129.468 23.0994L128.447 27.0005ZM134.801 30.3458C134.159 30.3458 133.561 30.1833 133.01 29.8582V28.9396C133.327 29.1286 133.626 29.2685 133.905 29.3592C134.193 29.4424 134.488 29.484 134.79 29.484C135.062 29.484 135.315 29.4348 135.55 29.3365C135.792 29.2383 135.985 29.0757 136.128 28.8489C136.279 28.6146 136.355 28.3046 136.355 27.919C136.355 27.3898 136.226 27.0156 135.969 26.7963C135.712 26.5771 135.323 26.4675 134.801 26.4675H134.087V25.651H134.801C135.24 25.651 135.576 25.5225 135.811 25.2654C136.045 25.0084 136.162 24.6341 136.162 24.1427C136.162 23.6816 136.041 23.3527 135.799 23.1561C135.565 22.9596 135.263 22.8613 134.892 22.8613C134.325 22.8613 133.724 23.0427 133.089 23.4056V22.4871C133.664 22.162 134.28 21.9994 134.937 21.9994C135.595 21.9994 136.121 22.1695 136.514 22.5097C136.914 22.8499 137.115 23.3565 137.115 24.0293C137.115 24.5661 136.99 25.0008 136.741 25.3335C136.499 25.6585 136.158 25.8816 135.72 26.0025C136.234 26.0857 136.631 26.2822 136.911 26.5922C137.19 26.9022 137.33 27.3369 137.33 27.8963C137.33 28.4709 137.213 28.9396 136.979 29.3025C136.744 29.6654 136.434 29.93 136.049 30.0963C135.663 30.2627 135.247 30.3458 134.801 30.3458ZM138.486 22.1015H142.365V22.9747H139.428V25.5603H141.911V26.4221H139.428V29.3592H142.41V30.2324H138.486V22.1015ZM144.807 29.3706H145.317C145.438 29.1967 145.54 28.9963 145.623 28.7695C145.714 28.5427 145.786 28.2592 145.839 27.919C145.899 27.5713 145.944 27.1403 145.975 26.6262C146.013 26.1121 146.039 25.4884 146.054 24.7551C146.077 24.0142 146.096 23.1297 146.111 22.1015H150.273V29.3706H151.123V31.8427H150.284L150.193 30.2324H145.725L145.635 31.8427H144.807V29.3706ZM146.326 29.3706H149.331V22.9747H146.984C146.976 24.0255 146.958 24.9139 146.927 25.6396C146.905 26.3579 146.867 26.9551 146.814 27.4314C146.769 27.9001 146.704 28.2895 146.621 28.5994C146.546 28.9018 146.447 29.1589 146.326 29.3706ZM157.142 30.2324H156.166L155.565 27.8396H153.127L152.504 30.2324H151.642L153.785 22.1015H155.032L157.142 30.2324ZM153.343 27.0005H155.35L154.363 23.0994L153.343 27.0005ZM158.221 22.1015H159.162V25.7644H162.122V22.1015H163.075V30.2324H162.122V26.6376H159.162V30.2324H158.221V22.1015ZM164.511 22.1015H165.453V25.7644H168.412V22.1015H169.365V30.2324H168.412V26.6376H165.453V30.2324H164.511V22.1015ZM170.802 30.2324V22.1015H171.743V25.1747H172.661C173.448 25.1747 174.06 25.375 174.499 25.7757C174.945 26.1688 175.168 26.7737 175.168 27.5902C175.168 28.2101 175.058 28.7166 174.839 29.1097C174.627 29.4953 174.328 29.7788 173.943 29.9603C173.557 30.1417 173.115 30.2324 172.616 30.2324H170.802ZM175.893 22.1128H176.835V30.2324H175.893V22.1128ZM172.616 29.3706C173.107 29.3706 173.497 29.2345 173.784 28.9623C174.079 28.6826 174.226 28.229 174.226 27.6015C174.226 27.0723 174.09 26.6792 173.818 26.4221C173.546 26.1651 173.16 26.0365 172.661 26.0365H171.743V29.3706H172.616ZM177.88 22.1015H178.98L180.454 25.186L181.894 22.1015H182.869L180.93 25.9912L183.028 30.2324H181.917L180.306 26.819L178.651 30.2324H177.676L179.83 25.9912L177.88 22.1015ZM190.586 30.2324H189.611L189.01 27.8396H186.572L185.948 30.2324H185.086L187.23 22.1015H188.477L190.586 30.2324ZM186.788 27.0005H188.795L187.808 23.0994L186.788 27.0005ZM191.666 22.1015H193.526C194.289 22.1015 194.875 22.2527 195.283 22.5551C195.699 22.8575 195.907 23.3678 195.907 24.086C195.907 24.6682 195.771 25.1104 195.499 25.4128C195.234 25.7077 194.886 25.908 194.456 26.0139C194.992 26.097 195.404 26.286 195.692 26.5809C195.979 26.8757 196.123 27.3142 196.123 27.8963C196.123 28.4558 196.005 28.9094 195.771 29.2572C195.544 29.5974 195.23 29.8469 194.83 30.0056C194.437 30.1568 193.994 30.2324 193.503 30.2324H191.666V22.1015ZM193.526 25.6283C193.949 25.6283 194.293 25.5149 194.558 25.2881C194.822 25.0537 194.954 24.6757 194.954 24.1541C194.954 23.7156 194.834 23.4094 194.592 23.2355C194.35 23.0541 194.009 22.9633 193.571 22.9633H192.607V25.6283H193.526ZM193.56 29.3706C194.028 29.3706 194.406 29.2647 194.694 29.053C194.989 28.8414 195.136 28.4633 195.136 27.919C195.136 27.3974 195 27.0307 194.728 26.819C194.456 26.5998 194.04 26.4902 193.48 26.4902H192.607V29.3706H193.56ZM196.617 22.9747V22.1015H201.64V22.9747H199.599V30.2324H198.658V22.9747H196.617ZM204.737 30.3458C203.852 30.3458 203.157 29.9829 202.65 29.2572C202.151 28.5238 201.902 27.4843 201.902 26.1386C201.902 24.7853 202.151 23.7572 202.65 23.0541C203.157 22.351 203.852 21.9994 204.737 21.9994C205.629 21.9994 206.324 22.3548 206.823 23.0654C207.322 23.7685 207.572 24.7967 207.572 26.1499C207.572 27.4881 207.322 28.5238 206.823 29.2572C206.324 29.9829 205.629 30.3458 204.737 30.3458ZM204.737 29.484C205.311 29.484 205.761 29.2231 206.086 28.7015C206.411 28.1798 206.574 27.3369 206.574 26.1726C206.574 25.0008 206.411 24.1579 206.086 23.6438C205.761 23.1221 205.311 22.8613 204.737 22.8613C204.162 22.8613 203.712 23.1221 203.387 23.6438C203.062 24.1579 202.9 25.0008 202.9 26.1726C202.9 27.3369 203.062 28.1798 203.387 28.7015C203.712 29.2231 204.162 29.484 204.737 29.484ZM208.886 30.3005C208.697 30.3005 208.542 30.2362 208.421 30.1077C208.307 29.9792 208.251 29.8204 208.251 29.6314C208.251 29.4348 208.307 29.2761 208.421 29.1551C208.542 29.0266 208.697 28.9623 208.886 28.9623C209.059 28.9623 209.207 29.0266 209.328 29.1551C209.449 29.2761 209.509 29.4348 209.509 29.6314C209.509 29.8204 209.449 29.9792 209.328 30.1077C209.207 30.2362 209.059 30.3005 208.886 30.3005ZM210.747 22.1015H212.493C213.28 22.1015 213.892 22.2905 214.331 22.6685C214.777 23.0465 215 23.6362 215 24.4376C215 25.0424 214.89 25.5338 214.671 25.9118C214.459 26.2898 214.16 26.5658 213.775 26.7396C213.389 26.9135 212.947 27.0005 212.448 27.0005H211.688V30.2324H210.747V22.1015ZM212.448 26.1386C212.939 26.1386 213.329 26.0101 213.616 25.753C213.911 25.4884 214.058 25.0537 214.058 24.4489C214.058 23.9348 213.922 23.5606 213.65 23.3262C213.378 23.0843 212.992 22.9633 212.493 22.9633H211.688V26.1386H212.448ZM216.142 29.3365C216.202 29.3441 216.27 29.3517 216.346 29.3592C216.422 29.3592 216.501 29.3592 216.584 29.3592C216.879 29.3592 217.125 29.2761 217.321 29.1097C217.525 28.9359 217.696 28.6637 217.832 28.2932L215.564 22.1015H216.607L218.297 26.8757L219.737 22.1015H220.689L218.796 28.0324C218.538 28.8338 218.244 29.4046 217.911 29.7448C217.586 30.0774 217.159 30.2438 216.63 30.2438C216.531 30.2438 216.444 30.24 216.369 30.2324C216.301 30.2324 216.225 30.2286 216.142 30.2211V29.3365ZM220.868 30.3005C220.679 30.3005 220.524 30.2362 220.403 30.1077C220.29 29.9792 220.233 29.8204 220.233 29.6314C220.233 29.4348 220.29 29.2761 220.403 29.1551C220.524 29.0266 220.679 28.9623 220.868 28.9623C221.042 28.9623 221.189 29.0266 221.31 29.1551C221.431 29.2761 221.492 29.4348 221.492 29.6314C221.492 29.8204 221.431 29.9792 221.31 30.1077C221.189 30.2362 221.042 30.3005 220.868 30.3005ZM224.49 22.1015H225.432V25.7644H228.391V22.1015H229.344V30.2324H228.391V26.6376H225.432V30.2324H224.49V22.1015ZM230.781 22.1015H234.659V22.9747H231.722V25.5603H234.205V26.4221H231.722V29.3592H234.704V30.2324H230.781V22.1015ZM0.441692 35.4943C0.441692 34.6853 0.657156 34.0843 1.08808 33.6912C1.51901 33.2981 2.10114 33.1015 2.83448 33.1015H4.81901V41.2324H3.87777V37.9211H2.78911L1.0654 41.2324H-0.00057586L1.87056 37.717C1.39427 37.5733 1.03516 37.3201 0.793239 36.9572C0.558874 36.5943 0.441692 36.1066 0.441692 35.4943ZM2.75509 37.0592H3.87777V33.9633H2.83448C2.38843 33.9633 2.03688 34.0805 1.77984 34.3149C1.52279 34.5493 1.39427 34.9499 1.39427 35.517C1.39427 36.0462 1.50767 36.4355 1.73448 36.685C1.96884 36.9345 2.30905 37.0592 2.75509 37.0592ZM6.26896 33.1015H8.12876C8.89233 33.1015 9.47824 33.2527 9.88649 33.5551C10.3023 33.8575 10.5102 34.3678 10.5102 35.086C10.5102 35.6682 10.3741 36.1104 10.102 36.4128C9.83735 36.7077 9.48958 36.908 9.05865 37.0139C9.59542 37.097 10.0075 37.286 10.2947 37.5809C10.582 37.8757 10.7257 38.3142 10.7257 38.8963C10.7257 39.4558 10.6085 39.9094 10.3741 40.2572C10.1473 40.5974 9.83357 40.8469 9.43288 41.0056C9.03975 41.1568 8.59749 41.2324 8.10608 41.2324H6.26896V33.1015ZM8.12876 36.6283C8.55212 36.6283 8.89611 36.5149 9.16072 36.2881C9.42532 36.0537 9.55762 35.6757 9.55762 35.1541C9.55762 34.7156 9.43666 34.4094 9.19474 34.2355C8.95281 34.0541 8.61261 33.9633 8.17412 33.9633H7.2102V36.6283H8.12876ZM8.16278 40.3706C8.63151 40.3706 9.00951 40.2647 9.2968 40.053C9.59164 39.8414 9.73907 39.4633 9.73907 38.919C9.73907 38.3974 9.60298 38.0307 9.33082 37.819C9.05865 37.5998 8.64285 37.4902 8.0834 37.4902H7.2102V40.3706H8.16278ZM11.3391 40.2912C11.7095 40.3139 11.9628 40.2345 12.0989 40.053C12.2425 39.864 12.3408 39.5238 12.3937 39.0324C12.424 38.7678 12.4467 38.4768 12.4618 38.1592C12.4845 37.8341 12.5034 37.4486 12.5185 37.0025C12.5336 36.5565 12.5449 36.0197 12.5525 35.3922C12.5601 34.7572 12.5638 33.9936 12.5638 33.1015H16.5556V41.2324H15.6144V33.9747H13.4484C13.4408 35.2372 13.4257 36.2805 13.403 37.1046C13.3803 37.9211 13.3425 38.5864 13.2896 39.1005C13.214 39.9018 13.0212 40.4726 12.7113 40.8128C12.4013 41.153 11.9439 41.308 11.3391 41.2778V40.2912ZM17.9171 35.4943C17.9171 34.6853 18.1326 34.0843 18.5635 33.6912C18.9944 33.2981 19.5766 33.1015 20.3099 33.1015H22.2944V41.2324H21.3532V37.9211H20.2646L18.5408 41.2324H17.4749L19.346 37.717C18.8697 37.5733 18.5106 37.3201 18.2687 36.9572C18.0343 36.5943 17.9171 36.1066 17.9171 35.4943ZM20.2305 37.0592H21.3532V33.9633H20.3099C19.8639 33.9633 19.5123 34.0805 19.2553 34.3149C18.9982 34.5493 18.8697 34.9499 18.8697 35.517C18.8697 36.0462 18.9831 36.4355 19.2099 36.685C19.4443 36.9345 19.7845 37.0592 20.2305 37.0592ZM23.7444 33.1015H27.6227V33.9747H24.6856V36.5603H27.1691V37.4221H24.6856V40.3592H27.6681V41.2324H23.7444V33.1015ZM28.4072 33.9747V33.1015H33.4309V33.9747H31.3896V41.2324H30.4484V33.9747H28.4072ZM36.7088 41.3458C35.7487 41.3458 35.004 40.9754 34.4748 40.2345C33.9532 39.4936 33.6923 38.473 33.6923 37.1726C33.6923 35.8647 33.9532 34.8441 34.4748 34.1108C34.9965 33.3699 35.7525 32.9994 36.7428 32.9994C37.4837 32.9994 38.0885 33.1884 38.5573 33.5664V34.485C38.3229 34.2884 38.0432 34.1372 37.7181 34.0314C37.393 33.918 37.0717 33.8613 36.7542 33.8613C36.036 33.8613 35.5143 34.141 35.1892 34.7005C34.8642 35.2599 34.7016 36.084 34.7016 37.1726C34.7016 38.2613 34.8717 39.0853 35.2119 39.6448C35.5597 40.2042 36.0965 40.484 36.8222 40.484C37.4573 40.484 38.0356 40.2458 38.5573 39.7695V40.6881C38.3607 40.8847 38.0923 41.0434 37.7521 41.1644C37.4195 41.2853 37.0717 41.3458 36.7088 41.3458ZM39.6673 35.4943C39.6673 34.6853 39.8828 34.0843 40.3137 33.6912C40.7446 33.2981 41.3267 33.1015 42.0601 33.1015H44.0446V41.2324H43.1034V37.9211H42.0147L40.291 41.2324H39.225L41.0962 37.717C40.6199 37.5733 40.2608 37.3201 40.0188 36.9572C39.7845 36.5943 39.6673 36.1066 39.6673 35.4943ZM41.9807 37.0592H43.1034V33.9633H42.0601C41.614 33.9633 41.2625 34.0805 41.0054 34.3149C40.7484 34.5493 40.6199 34.9499 40.6199 35.517C40.6199 36.0462 40.7333 36.4355 40.9601 36.685C41.1944 36.9345 41.5346 37.0592 41.9807 37.0592ZM49.7502 41.3458C48.8657 41.3458 48.1702 40.9829 47.6636 40.2572C47.1647 39.5238 46.9152 38.4843 46.9152 37.1386C46.9152 35.7853 47.1647 34.7572 47.6636 34.0541C48.1702 33.351 48.8657 32.9994 49.7502 32.9994C50.6423 32.9994 51.3379 33.3548 51.8368 34.0654C52.3358 34.7685 52.5853 35.7967 52.5853 37.1499C52.5853 38.4881 52.3358 39.5238 51.8368 40.2572C51.3379 40.9829 50.6423 41.3458 49.7502 41.3458ZM49.7502 40.484C50.3248 40.484 50.7746 40.2231 51.0997 39.7015C51.4248 39.1798 51.5873 38.3369 51.5873 37.1726C51.5873 36.0008 51.4248 35.1579 51.0997 34.6438C50.7746 34.1221 50.3248 33.8613 49.7502 33.8613C49.1757 33.8613 48.7258 34.1221 48.4008 34.6438C48.0757 35.1579 47.9131 36.0008 47.9131 37.1726C47.9131 38.3369 48.0757 39.1798 48.4008 39.7015C48.7258 40.2231 49.1757 40.484 49.7502 40.484ZM53.9222 41.2324V33.1015H54.8634V40.3706H57.6758V33.1015H58.617V40.3706H59.4676V42.8427H58.6284L58.5377 41.2324H53.9222ZM60.5115 33.1015H64.3898V33.9747H61.4527V36.5603H63.9362V37.4221H61.4527V40.3592H64.4352V41.2324H60.5115V33.1015ZM65.6832 33.1015H66.6245V36.7644H69.5843V33.1015H70.5368V41.2324H69.5843V37.6376H66.6245V41.2324H65.6832V33.1015ZM74.4683 41.3458C73.5838 41.3458 72.8883 40.9829 72.3817 40.2572C71.8828 39.5238 71.6333 38.4843 71.6333 37.1386C71.6333 35.7853 71.8828 34.7572 72.3817 34.0541C72.8883 33.351 73.5838 32.9994 74.4683 32.9994C75.3604 32.9994 76.056 33.3548 76.5549 34.0654C77.0539 34.7685 77.3034 35.7967 77.3034 37.1499C77.3034 38.4881 77.0539 39.5238 76.5549 40.2572C76.056 40.9829 75.3604 41.3458 74.4683 41.3458ZM74.4683 40.484C75.0429 40.484 75.4927 40.2231 75.8178 39.7015C76.1429 39.1798 76.3055 38.3369 76.3055 37.1726C76.3055 36.0008 76.1429 35.1579 75.8178 34.6438C75.4927 34.1221 75.0429 33.8613 74.4683 33.8613C73.8938 33.8613 73.4439 34.1221 73.1189 34.6438C72.7938 35.1579 72.6312 36.0008 72.6312 37.1726C72.6312 38.3369 72.7938 39.1798 73.1189 39.7015C73.4439 40.2231 73.8938 40.484 74.4683 40.484ZM78.3054 35.7778V33.1015H79.2466V35.6984C79.2466 36.2503 79.3563 36.6737 79.5755 36.9685C79.8023 37.2558 80.1652 37.3994 80.6642 37.3994C80.9212 37.3994 81.1594 37.3579 81.3786 37.2747C81.6054 37.1915 81.8095 37.0554 81.991 36.8664V33.1015H82.9322V41.2324H81.991V37.6716C81.5525 38.0345 81.0384 38.2159 80.4487 38.2159C79.7834 38.2159 79.258 38.0156 78.8724 37.6149C78.4944 37.2066 78.3054 36.5943 78.3054 35.7778ZM84.3879 33.1015H85.3292V36.7644H88.289V33.1015H89.2415V41.2324H88.289V37.6376H85.3292V41.2324H84.3879V33.1015ZM93.173 41.3458C92.2885 41.3458 91.593 40.9829 91.0864 40.2572C90.5875 39.5238 90.338 38.4843 90.338 37.1386C90.338 35.7853 90.5875 34.7572 91.0864 34.0541C91.593 33.351 92.2885 32.9994 93.173 32.9994C94.0651 32.9994 94.7607 33.3548 95.2596 34.0654C95.7586 34.7685 96.0081 35.7967 96.0081 37.1499C96.0081 38.4881 95.7586 39.5238 95.2596 40.2572C94.7607 40.9829 94.0651 41.3458 93.173 41.3458ZM93.173 40.484C93.7476 40.484 94.1974 40.2231 94.5225 39.7015C94.8476 39.1798 95.0102 38.3369 95.0102 37.1726C95.0102 36.0008 94.8476 35.1579 94.5225 34.6438C94.1974 34.1221 93.7476 33.8613 93.173 33.8613C92.5985 33.8613 92.1486 34.1221 91.8236 34.6438C91.4985 35.1579 91.3359 36.0008 91.3359 37.1726C91.3359 38.3369 91.4985 39.1798 91.8236 39.7015C92.1486 40.2231 92.5985 40.484 93.173 40.484ZM99.8512 32.6479C99.3522 32.6479 98.9818 32.4929 98.7398 32.1829C98.4979 31.8654 98.377 31.4798 98.377 31.0262H99.2161C99.2161 31.3664 99.2728 31.6121 99.3862 31.7633C99.5072 31.907 99.6622 31.9788 99.8512 31.9788C100.048 31.9788 100.203 31.907 100.316 31.7633C100.437 31.6121 100.498 31.3664 100.498 31.0262H101.325C101.325 31.4798 101.204 31.8654 100.963 32.1829C100.721 32.4929 100.35 32.6479 99.8512 32.6479ZM98.3429 41.2324H97.345V33.1015H98.2862V39.5768L101.359 33.1015H102.357V41.2324H101.416V34.7572L98.3429 41.2324ZM104.961 40.3706H105.471C105.592 40.1967 105.694 39.9963 105.777 39.7695C105.868 39.5427 105.94 39.2592 105.993 38.919C106.053 38.5713 106.099 38.1403 106.129 37.6262C106.167 37.1121 106.193 36.4884 106.208 35.7551C106.231 35.0142 106.25 34.1297 106.265 33.1015H110.427V40.3706H111.277V42.8427H110.438L110.348 41.2324H105.879L105.789 42.8427H104.961V40.3706ZM106.481 40.3706H109.486V33.9747H107.138C107.131 35.0255 107.112 35.9139 107.082 36.6396C107.059 37.3579 107.021 37.9551 106.968 38.4314C106.923 38.9001 106.859 39.2895 106.775 39.5994C106.7 39.9018 106.601 40.1589 106.481 40.3706ZM112.318 33.1015H116.196V33.9747H113.259V36.5603H115.742V37.4221H113.259V40.3592H116.241V41.2324H112.318V33.1015ZM117.399 35.4943C117.399 34.6853 117.614 34.0843 118.045 33.6912C118.476 33.2981 119.058 33.1015 119.791 33.1015H121.776V41.2324H120.835V37.9211H119.746L118.022 41.2324H116.956L118.828 37.717C118.351 37.5733 117.992 37.3201 117.75 36.9572C117.516 36.5943 117.399 36.1066 117.399 35.4943ZM119.712 37.0592H120.835V33.9633H119.791C119.345 33.9633 118.994 34.0805 118.737 34.3149C118.48 34.5493 118.351 34.9499 118.351 35.517C118.351 36.0462 118.465 36.4355 118.691 36.685C118.926 36.9345 119.266 37.0592 119.712 37.0592ZM122.772 33.9747V33.1015H127.796V33.9747H125.755V41.2324H124.814V33.9747H122.772ZM128.796 33.1015H132.675V33.9747H129.738V36.5603H132.221V37.4221H129.738V40.3592H132.72V41.2324H128.796V33.1015ZM133.412 40.2912C133.783 40.3139 134.036 40.2345 134.172 40.053C134.316 39.864 134.414 39.5238 134.467 39.0324C134.497 38.7678 134.52 38.4768 134.535 38.1592C134.558 37.8341 134.577 37.4486 134.592 37.0025C134.607 36.5565 134.618 36.0197 134.626 35.3922C134.633 34.7572 134.637 33.9936 134.637 33.1015H138.629V41.2324H137.688V33.9747H135.522C135.514 35.2372 135.499 36.2805 135.476 37.1046C135.454 37.9211 135.416 38.5864 135.363 39.1005C135.287 39.9018 135.095 40.4726 134.785 40.8128C134.475 41.153 134.017 41.308 133.412 41.2778V40.2912ZM140.081 41.2324V33.1015H141.022V36.1747H141.941C142.727 36.1747 143.34 36.375 143.778 36.7757C144.224 37.1688 144.447 37.7737 144.447 38.5902C144.447 39.2101 144.338 39.7166 144.118 40.1097C143.907 40.4953 143.608 40.7788 143.222 40.9603C142.837 41.1417 142.395 41.2324 141.896 41.2324H140.081ZM141.896 40.3706C142.387 40.3706 142.776 40.2345 143.064 39.9623C143.359 39.6826 143.506 39.229 143.506 38.6015C143.506 38.0723 143.37 37.6792 143.098 37.4221C142.826 37.1651 142.44 37.0365 141.941 37.0365H141.022V40.3706H141.896ZM145.585 33.1015H146.526V36.7644H149.486V33.1015H150.439V41.2324H149.486V37.6376H146.526V41.2324H145.585V33.1015ZM154.37 41.3458C153.486 41.3458 152.79 40.9829 152.284 40.2572C151.785 39.5238 151.535 38.4843 151.535 37.1386C151.535 35.7853 151.785 34.7572 152.284 34.0541C152.79 33.351 153.486 32.9994 154.37 32.9994C155.262 32.9994 155.958 33.3548 156.457 34.0654C156.956 34.7685 157.205 35.7967 157.205 37.1499C157.205 38.4881 156.956 39.5238 156.457 40.2572C155.958 40.9829 155.262 41.3458 154.37 41.3458ZM154.37 40.484C154.945 40.484 155.395 40.2231 155.72 39.7015C156.045 39.1798 156.207 38.3369 156.207 37.1726C156.207 36.0008 156.045 35.1579 155.72 34.6438C155.395 34.1221 154.945 33.8613 154.37 33.8613C153.796 33.8613 153.346 34.1221 153.021 34.6438C152.696 35.1579 152.533 36.0008 152.533 37.1726C152.533 38.3369 152.696 39.1798 153.021 39.7015C153.346 40.2231 153.796 40.484 154.37 40.484ZM161.219 41.3458C160.258 41.3458 159.514 40.9754 158.985 40.2345C158.463 39.4936 158.202 38.473 158.202 37.1726C158.202 35.8647 158.463 34.8441 158.985 34.1108C159.506 33.3699 160.262 32.9994 161.253 32.9994C161.993 32.9994 162.598 33.1884 163.067 33.5664V34.485C162.833 34.2884 162.553 34.1372 162.228 34.0314C161.903 33.918 161.581 33.8613 161.264 33.8613C160.546 33.8613 160.024 34.141 159.699 34.7005C159.374 35.2599 159.211 36.084 159.211 37.1726C159.211 38.2613 159.381 39.0853 159.722 39.6448C160.069 40.2042 160.606 40.484 161.332 40.484C161.967 40.484 162.545 40.2458 163.067 39.7695V40.6881C162.87 40.8847 162.602 41.0434 162.262 41.1644C161.929 41.2853 161.581 41.3458 161.219 41.3458ZM163.869 33.9747V33.1015H168.893V33.9747H166.852V41.2324H165.911V33.9747H163.869ZM169.894 41.2324V33.1015H170.835V36.1747H171.753C172.54 36.1747 173.152 36.375 173.59 36.7757C174.036 37.1688 174.26 37.7737 174.26 38.5902C174.26 39.2101 174.15 39.7166 173.931 40.1097C173.719 40.4953 173.42 40.7788 173.035 40.9603C172.649 41.1417 172.207 41.2324 171.708 41.2324H169.894ZM171.708 40.3706C172.199 40.3706 172.589 40.2345 172.876 39.9623C173.171 39.6826 173.318 39.229 173.318 38.6015C173.318 38.0723 173.182 37.6792 172.91 37.4221C172.638 37.1651 172.252 37.0365 171.753 37.0365H170.835V40.3706H171.708ZM180.194 41.3458C179.695 41.3458 179.242 41.2173 178.834 40.9603C178.425 40.7032 178.093 40.3025 177.836 39.7582C177.586 39.2139 177.443 38.507 177.405 37.6376H176.339V41.2324H175.398V33.1015H176.339V36.7644H177.405C177.443 35.8874 177.586 35.173 177.836 34.6211C178.093 34.0692 178.425 33.6609 178.834 33.3963C179.242 33.1317 179.695 32.9994 180.194 32.9994C180.716 32.9994 181.189 33.1431 181.612 33.4304C182.035 33.7101 182.368 34.1561 182.61 34.7685C182.859 35.3733 182.984 36.1633 182.984 37.1386C182.984 38.1139 182.859 38.9115 182.61 39.5314C182.368 40.1513 182.035 40.6087 181.612 40.9036C181.189 41.1984 180.716 41.3458 180.194 41.3458ZM180.194 40.484C180.542 40.484 180.848 40.3857 181.113 40.1891C181.385 39.9926 181.601 39.6561 181.759 39.1798C181.918 38.696 181.998 38.0269 181.998 37.1726C181.998 36.3183 181.918 35.653 181.759 35.1768C181.601 34.6929 181.385 34.3527 181.113 34.1561C180.848 33.9596 180.542 33.8613 180.194 33.8613C179.854 33.8613 179.548 33.9596 179.276 34.1561C179.004 34.3527 178.788 34.6929 178.629 35.1768C178.478 35.653 178.403 36.3183 178.403 37.1726C178.403 38.0269 178.478 38.696 178.629 39.1798C178.788 39.6561 179.004 39.9926 179.276 40.1891C179.548 40.3857 179.854 40.484 180.194 40.484ZM184.079 41.3005C183.89 41.3005 183.735 41.2362 183.614 41.1077C183.501 40.9792 183.444 40.8204 183.444 40.6314C183.444 40.4348 183.501 40.2761 183.614 40.1551C183.735 40.0266 183.89 39.9623 184.079 39.9623C184.253 39.9623 184.4 40.0266 184.521 40.1551C184.642 40.2761 184.703 40.4348 184.703 40.6314C184.703 40.8204 184.642 40.9792 184.521 41.1077C184.4 41.2362 184.253 41.3005 184.079 41.3005Z" fill="black"/>
</svg>
