<svg width="239" height="43" viewBox="0 0 239 43" fill="none" xmlns="http://www.w3.org/2000/svg">
<path opacity="0.6" d="M4.13958 7.45044H3.23236L2.09834 5.2391L3.23236 3.02776H4.13958L3.00556 5.2391L4.13958 7.45044ZM2.2571 7.45044H1.34989L0.215865 5.2391L1.34989 3.02776H2.2571L1.13442 5.2391L2.2571 7.45044ZM10.1741 8.23291H9.19881L8.59778 5.84013H6.15964L5.53593 8.23291H4.67407L6.81737 0.101982H8.06479L10.1741 8.23291ZM6.3751 5.00095H8.38232L7.39572 1.09992L6.3751 5.00095ZM11.2534 0.101982H13.1132C13.8768 0.101982 14.4627 0.253185 14.871 0.55559C15.2868 0.857996 15.4947 1.3683 15.4947 2.08652C15.4947 2.66865 15.3586 3.11092 15.0864 3.41332C14.8218 3.70817 14.474 3.90851 14.0431 4.01435C14.5799 4.09751 14.9919 4.28652 15.2792 4.58136C15.5665 4.87621 15.7101 5.3147 15.7101 5.89683C15.7101 6.45628 15.5929 6.90989 15.3586 7.25765C15.1318 7.59786 14.818 7.84734 14.4173 8.00611C14.0242 8.15731 13.582 8.23291 13.0905 8.23291H11.2534V0.101982ZM13.1132 3.62879C13.5366 3.62879 13.8806 3.51538 14.1452 3.28858C14.4098 3.05422 14.5421 2.67621 14.5421 2.15456C14.5421 1.71607 14.4211 1.40989 14.1792 1.236C13.9373 1.05456 13.5971 0.963838 13.1586 0.963838H12.1947V3.62879H13.1132ZM13.1472 7.37105C13.616 7.37105 13.994 7.26521 14.2813 7.05353C14.5761 6.84184 14.7235 6.46384 14.7235 5.91951C14.7235 5.39786 14.5874 5.03119 14.3153 4.81951C14.0431 4.60026 13.6273 4.49064 13.0679 4.49064H12.1947V7.37105H13.1472ZM16.2041 0.975178V0.101982H21.2278V0.975178H19.1866V8.23291H18.2454V0.975178H16.2041ZM24.3243 8.34631C23.4398 8.34631 22.7443 7.98343 22.2377 7.25765C21.7388 6.52432 21.4893 5.4848 21.4893 4.1391C21.4893 2.78583 21.7388 1.75765 22.2377 1.05456C22.7443 0.351467 23.4398 -7.96303e-05 24.3243 -7.96303e-05C25.2164 -7.96303e-05 25.912 0.355247 26.4109 1.0659C26.9099 1.76899 27.1594 2.79717 27.1594 4.15044C27.1594 5.48858 26.9099 6.52432 26.4109 7.25765C25.912 7.98343 25.2164 8.34631 24.3243 8.34631ZM24.3243 7.48446C24.8989 7.48446 25.3487 7.22363 25.6738 6.70198C25.9989 6.18033 26.1615 5.33738 26.1615 4.17312C26.1615 3.00129 25.9989 2.15834 25.6738 1.64425C25.3487 1.1226 24.8989 0.861776 24.3243 0.861776C23.7498 0.861776 23.2999 1.1226 22.9749 1.64425C22.6498 2.15834 22.4872 3.00129 22.4872 4.17312C22.4872 5.33738 22.6498 6.18033 22.9749 6.70198C23.2999 7.22363 23.7498 7.48446 24.3243 7.48446ZM28.4732 8.30095C28.2842 8.30095 28.1292 8.23669 28.0082 8.10817C27.8948 7.97965 27.8381 7.82088 27.8381 7.63188C27.8381 7.43532 27.8948 7.27655 28.0082 7.15559C28.1292 7.02707 28.2842 6.96281 28.4732 6.96281C28.6471 6.96281 28.7945 7.02707 28.9154 7.15559C29.0364 7.27655 29.0969 7.43532 29.0969 7.63188C29.0969 7.82088 29.0364 7.97965 28.9154 8.10817C28.7945 8.23669 28.6471 8.30095 28.4732 8.30095ZM30.3347 0.101982H32.081C32.8673 0.101982 33.4797 0.290986 33.9182 0.668992C34.3642 1.047 34.5872 1.63669 34.5872 2.43806C34.5872 3.04288 34.4776 3.53428 34.2584 3.91229C34.0467 4.2903 33.7481 4.56624 33.3625 4.74013C32.9769 4.91401 32.5347 5.00095 32.0357 5.00095H31.2759V8.23291H30.3347V0.101982ZM32.0357 4.1391C32.5271 4.1391 32.9164 4.01057 33.2037 3.75353C33.4986 3.48892 33.646 3.05422 33.646 2.4494C33.646 1.93532 33.5099 1.56109 33.2377 1.32672C32.9656 1.0848 32.58 0.963838 32.081 0.963838H31.2759V4.1391H32.0357ZM35.7295 7.33703C35.79 7.34459 35.858 7.35215 35.9336 7.35971C36.0092 7.35971 36.0886 7.35971 36.1718 7.35971C36.4666 7.35971 36.7123 7.27655 36.9089 7.11023C37.113 6.93635 37.2831 6.66418 37.4192 6.29373L35.1511 0.101982H36.1944L37.8841 4.87621L39.3243 0.101982H40.2769L38.3831 6.03291C38.1261 6.83428 37.8312 7.40508 37.4986 7.74528C37.1735 8.07793 36.7463 8.24425 36.2171 8.24425C36.1188 8.24425 36.0319 8.24047 35.9563 8.23291C35.8883 8.23291 35.8127 8.22913 35.7295 8.22157V7.33703ZM45.41 8.34631C44.5255 8.34631 43.83 7.98343 43.3234 7.25765C42.8245 6.52432 42.575 5.4848 42.575 4.1391C42.575 2.78583 42.8245 1.75765 43.3234 1.05456C43.83 0.351467 44.5255 -7.96303e-05 45.41 -7.96303e-05C46.3021 -7.96303e-05 46.9977 0.355247 47.4966 1.0659C47.9956 1.76899 48.2451 2.79717 48.2451 4.15044C48.2451 5.48858 47.9956 6.52432 47.4966 7.25765C46.9977 7.98343 46.3021 8.34631 45.41 8.34631ZM45.41 7.48446C45.9846 7.48446 46.4344 7.22363 46.7595 6.70198C47.0846 6.18033 47.2472 5.33738 47.2472 4.17312C47.2472 3.00129 47.0846 2.15834 46.7595 1.64425C46.4344 1.1226 45.9846 0.861776 45.41 0.861776C44.8355 0.861776 44.3856 1.1226 44.0606 1.64425C43.7355 2.15834 43.5729 3.00129 43.5729 4.17312C43.5729 5.33738 43.7355 6.18033 44.0606 6.70198C44.3856 7.22363 44.8355 7.48446 45.41 7.48446ZM49.582 8.23291V0.101982H50.5232V7.37105H53.3356V0.101982H54.2768V7.37105H55.1274V9.84322H54.2882L54.1975 8.23291H49.582ZM56.1713 0.101982H60.0496V0.975178H57.1125V3.56074H59.596V4.4226H57.1125V7.35971H60.095V8.23291H56.1713V0.101982ZM61.343 0.101982H62.2843V3.76487H65.2441V0.101982H66.1966V8.23291H65.2441V4.63806H62.2843V8.23291H61.343V0.101982ZM72.4075 8.23291H71.2735L69.357 4.63806H68.5745V8.23291H67.6333V0.101982H68.5745V3.77621H69.357L71.2735 0.101982H72.3168L70.1849 4.12776L72.4075 8.23291ZM78.2596 8.23291H77.2843L76.6833 5.84013H74.2452L73.6215 8.23291H72.7596L74.9029 0.101982H76.1503L78.2596 8.23291ZM74.4606 5.00095H76.4679L75.4813 1.09992L74.4606 5.00095ZM80.8359 7.45044L81.9586 5.2391L80.8359 3.02776H81.7431L82.8771 5.2391L81.7431 7.45044H80.8359ZM78.9534 7.45044L80.0874 5.2391L78.9534 3.02776H79.8606L80.9946 5.2391L79.8606 7.45044H78.9534ZM85.7511 0.101982H90.4459V8.23291H89.5047V0.975178H86.6923V8.23291H85.7511V0.101982ZM94.3922 8.34631C93.5077 8.34631 92.8121 7.98343 92.3056 7.25765C91.8066 6.52432 91.5572 5.4848 91.5572 4.1391C91.5572 2.78583 91.8066 1.75765 92.3056 1.05456C92.8121 0.351467 93.5077 -7.96303e-05 94.3922 -7.96303e-05C95.2843 -7.96303e-05 95.9798 0.355247 96.4788 1.0659C96.9778 1.76899 97.2273 2.79717 97.2273 4.15044C97.2273 5.48858 96.9778 6.52432 96.4788 7.25765C95.9798 7.98343 95.2843 8.34631 94.3922 8.34631ZM94.3922 7.48446C94.9668 7.48446 95.4166 7.22363 95.7417 6.70198C96.0668 6.18033 96.2293 5.33738 96.2293 4.17312C96.2293 3.00129 96.0668 2.15834 95.7417 1.64425C95.4166 1.1226 94.9668 0.861776 94.3922 0.861776C93.8176 0.861776 93.3678 1.1226 93.0427 1.64425C92.7176 2.15834 92.5551 3.00129 92.5551 4.17312C92.5551 5.33738 92.7176 6.18033 93.0427 6.70198C93.3678 7.22363 93.8176 7.48446 94.3922 7.48446ZM103.338 8.23291H102.204L100.288 4.63806H99.5054V8.23291H98.5642V0.101982H99.5054V3.77621H100.288L102.204 0.101982H103.248L101.116 4.12776L103.338 8.23291ZM109.19 8.23291H108.215L107.614 5.84013H105.176L104.552 8.23291H103.69L105.834 0.101982H107.081L109.19 8.23291ZM105.391 5.00095H107.399L106.412 1.09992L105.391 5.00095ZM111.745 8.34631C111.103 8.34631 110.506 8.18377 109.954 7.85868V6.94013C110.271 7.12913 110.57 7.26899 110.85 7.35971C111.137 7.44288 111.432 7.48446 111.734 7.48446C112.006 7.48446 112.259 7.43532 112.494 7.33703C112.736 7.23875 112.929 7.07621 113.072 6.8494C113.223 6.61504 113.299 6.30507 113.299 5.91951C113.299 5.3903 113.17 5.01607 112.913 4.79683C112.656 4.57758 112.267 4.46796 111.745 4.46796H111.031V3.65147H111.745C112.184 3.65147 112.52 3.52294 112.755 3.2659C112.989 3.00885 113.106 2.63463 113.106 2.14322C113.106 1.68205 112.985 1.35318 112.743 1.15662C112.509 0.960058 112.207 0.861776 111.836 0.861776C111.269 0.861776 110.668 1.04322 110.033 1.40611V0.487549C110.608 0.162463 111.224 -7.96303e-05 111.881 -7.96303e-05C112.539 -7.96303e-05 113.065 0.170023 113.458 0.510229C113.858 0.850435 114.059 1.35696 114.059 2.02982C114.059 2.56659 113.934 3.00129 113.685 3.33394C113.443 3.65903 113.102 3.88205 112.664 4.00301C113.178 4.08617 113.575 4.28274 113.855 4.5927C114.134 4.90267 114.274 5.33738 114.274 5.89683C114.274 6.4714 114.157 6.94013 113.923 7.30301C113.688 7.6659 113.378 7.9305 112.993 8.09683C112.607 8.26315 112.191 8.34631 111.745 8.34631ZM115.431 8.23291V0.101982H116.372V3.17518H117.29C118.077 3.17518 118.689 3.37552 119.127 3.77621C119.573 4.16934 119.796 4.77415 119.796 5.59064C119.796 6.21057 119.687 6.7171 119.468 7.11023C119.256 7.4958 118.957 7.7793 118.572 7.96075C118.186 8.14219 117.744 8.23291 117.245 8.23291H115.431ZM120.522 0.113322H121.463V8.23291H120.522V0.113322ZM117.245 7.37105C117.736 7.37105 118.126 7.23497 118.413 6.96281C118.708 6.68308 118.855 6.22947 118.855 5.60198C118.855 5.07277 118.719 4.67965 118.447 4.4226C118.175 4.16556 117.789 4.03703 117.29 4.03703H116.372V7.37105H117.245ZM122.917 0.101982H124.777C125.54 0.101982 126.126 0.253185 126.534 0.55559C126.95 0.857996 127.158 1.3683 127.158 2.08652C127.158 2.66865 127.022 3.11092 126.75 3.41332C126.485 3.70817 126.137 3.90851 125.706 4.01435C126.243 4.09751 126.655 4.28652 126.943 4.58136C127.23 4.87621 127.374 5.3147 127.374 5.89683C127.374 6.45628 127.256 6.90989 127.022 7.25765C126.795 7.59786 126.481 7.84734 126.081 8.00611C125.688 8.15731 125.245 8.23291 124.754 8.23291H122.917V0.101982ZM124.777 3.62879C125.2 3.62879 125.544 3.51538 125.809 3.28858C126.073 3.05422 126.205 2.67621 126.205 2.15456C126.205 1.71607 126.085 1.40989 125.843 1.236C125.601 1.05456 125.26 0.963838 124.822 0.963838H123.858V3.62879H124.777ZM124.811 7.37105C125.279 7.37105 125.657 7.26521 125.945 7.05353C126.239 6.84184 126.387 6.46384 126.387 5.91951C126.387 5.39786 126.251 5.03119 125.979 4.81951C125.706 4.60026 125.291 4.49064 124.731 4.49064H123.858V7.37105H124.811ZM133.355 8.23291H132.38L131.779 5.84013H129.34L128.717 8.23291H127.855L129.998 0.101982H131.246L133.355 8.23291ZM129.556 5.00095H131.563L130.576 1.09992L129.556 5.00095ZM134.434 0.101982H138.313V0.975178H135.375V3.56074H137.859V4.4226H135.375V7.35971H138.358V8.23291H134.434V0.101982ZM139.097 0.975178V0.101982H144.121V0.975178H142.079V8.23291H141.138V0.975178H139.097ZM149.377 8.34631C148.492 8.34631 147.797 7.98343 147.29 7.25765C146.791 6.52432 146.542 5.4848 146.542 4.1391C146.542 2.78583 146.791 1.75765 147.29 1.05456C147.797 0.351467 148.492 -7.96303e-05 149.377 -7.96303e-05C150.269 -7.96303e-05 150.964 0.355247 151.463 1.0659C151.962 1.76899 152.212 2.79717 152.212 4.15044C152.212 5.48858 151.962 6.52432 151.463 7.25765C150.964 7.98343 150.269 8.34631 149.377 8.34631ZM149.377 7.48446C149.951 7.48446 150.401 7.22363 150.726 6.70198C151.051 6.18033 151.214 5.33738 151.214 4.17312C151.214 3.00129 151.051 2.15834 150.726 1.64425C150.401 1.1226 149.951 0.861776 149.377 0.861776C148.802 0.861776 148.352 1.1226 148.027 1.64425C147.702 2.15834 147.54 3.00129 147.54 4.17312C147.54 5.33738 147.702 6.18033 148.027 6.70198C148.352 7.22363 148.802 7.48446 149.377 7.48446ZM153.549 0.101982H155.295C156.081 0.101982 156.694 0.290986 157.132 0.668992C157.578 1.047 157.801 1.63669 157.801 2.43806C157.801 3.04288 157.692 3.53428 157.472 3.91229C157.261 4.2903 156.962 4.56624 156.576 4.74013C156.191 4.91401 155.749 5.00095 155.25 5.00095H154.49V8.23291H153.549V0.101982ZM155.25 4.1391C155.741 4.1391 156.13 4.01057 156.418 3.75353C156.713 3.48892 156.86 3.05422 156.86 2.4494C156.86 1.93532 156.724 1.56109 156.452 1.32672C156.18 1.0848 155.794 0.963838 155.295 0.963838H154.49V4.1391H155.25ZM159.873 8.23291H158.875V0.101982H159.817V6.57724L162.89 0.101982H163.888V8.23291H162.947V1.75765L159.873 8.23291ZM165.343 0.101982H169.221V0.975178H166.284V3.56074H168.768V4.4226H166.284V7.35971H169.267V8.23291H165.343V0.101982ZM170.515 0.101982H171.456V3.76487H174.416V0.101982H175.368V8.23291H174.416V4.63806H171.456V8.23291H170.515V0.101982ZM176.351 0.975178V0.101982H181.375V0.975178H179.334V8.23291H178.393V0.975178H176.351ZM183.373 8.23291H182.375V0.101982H183.317V6.57724L186.39 0.101982H187.388V8.23291H186.447V1.75765L183.373 8.23291ZM188.843 0.101982H190.589C191.375 0.101982 191.988 0.290986 192.426 0.668992C192.872 1.047 193.095 1.63669 193.095 2.43806C193.095 3.04288 192.986 3.53428 192.767 3.91229C192.555 4.2903 192.256 4.56624 191.871 4.74013C191.485 4.91401 191.043 5.00095 190.544 5.00095H189.784V8.23291H188.843V0.101982ZM190.544 4.1391C191.035 4.1391 191.425 4.01057 191.712 3.75353C192.007 3.48892 192.154 3.05422 192.154 2.4494C192.154 1.93532 192.018 1.56109 191.746 1.32672C191.474 1.0848 191.088 0.963838 190.589 0.963838H189.784V4.1391H190.544ZM196.664 8.34631C195.78 8.34631 195.084 7.98343 194.578 7.25765C194.079 6.52432 193.829 5.4848 193.829 4.1391C193.829 2.78583 194.079 1.75765 194.578 1.05456C195.084 0.351467 195.78 -7.96303e-05 196.664 -7.96303e-05C197.557 -7.96303e-05 198.252 0.355247 198.751 1.0659C199.25 1.76899 199.5 2.79717 199.5 4.15044C199.5 5.48858 199.25 6.52432 198.751 7.25765C198.252 7.98343 197.557 8.34631 196.664 8.34631ZM196.664 7.48446C197.239 7.48446 197.689 7.22363 198.014 6.70198C198.339 6.18033 198.502 5.33738 198.502 4.17312C198.502 3.00129 198.339 2.15834 198.014 1.64425C197.689 1.1226 197.239 0.861776 196.664 0.861776C196.09 0.861776 195.64 1.1226 195.315 1.64425C194.99 2.15834 194.827 3.00129 194.827 4.17312C194.827 5.33738 194.99 6.18033 195.315 6.70198C195.64 7.22363 196.09 7.48446 196.664 7.48446ZM200.836 0.101982H202.696C203.46 0.101982 204.046 0.253185 204.454 0.55559C204.87 0.857996 205.078 1.3683 205.078 2.08652C205.078 2.66865 204.942 3.11092 204.669 3.41332C204.405 3.70817 204.057 3.90851 203.626 4.01435C204.163 4.09751 204.575 4.28652 204.862 4.58136C205.149 4.87621 205.293 5.3147 205.293 5.89683C205.293 6.45628 205.176 6.90989 204.942 7.25765C204.715 7.59786 204.401 7.84734 204 8.00611C203.607 8.15731 203.165 8.23291 202.674 8.23291H200.836V0.101982ZM202.696 3.62879C203.12 3.62879 203.464 3.51538 203.728 3.28858C203.993 3.05422 204.125 2.67621 204.125 2.15456C204.125 1.71607 204.004 1.40989 203.762 1.236C203.52 1.05456 203.18 0.963838 202.742 0.963838H201.778V3.62879H202.696ZM202.73 7.37105C203.199 7.37105 203.577 7.26521 203.864 7.05353C204.159 6.84184 204.307 6.46384 204.307 5.91951C204.307 5.39786 204.17 5.03119 203.898 4.81951C203.626 4.60026 203.21 4.49064 202.651 4.49064H201.778V7.37105H202.73ZM208.902 8.34631C208.017 8.34631 207.322 7.98343 206.815 7.25765C206.316 6.52432 206.067 5.4848 206.067 4.1391C206.067 2.78583 206.316 1.75765 206.815 1.05456C207.322 0.351467 208.017 -7.96303e-05 208.902 -7.96303e-05C209.794 -7.96303e-05 210.489 0.355247 210.988 1.0659C211.487 1.76899 211.737 2.79717 211.737 4.15044C211.737 5.48858 211.487 6.52432 210.988 7.25765C210.489 7.98343 209.794 8.34631 208.902 8.34631ZM208.902 7.48446C209.476 7.48446 209.926 7.22363 210.251 6.70198C210.576 6.18033 210.739 5.33738 210.739 4.17312C210.739 3.00129 210.576 2.15834 210.251 1.64425C209.926 1.1226 209.476 0.861776 208.902 0.861776C208.327 0.861776 207.877 1.1226 207.552 1.64425C207.227 2.15834 207.065 3.00129 207.065 4.17312C207.065 5.33738 207.227 6.18033 207.552 6.70198C207.877 7.22363 208.327 7.48446 208.902 7.48446ZM212.739 2.77827V0.101982H213.68V2.69889C213.68 3.25078 213.79 3.67415 214.009 3.96899C214.236 4.25628 214.599 4.39992 215.098 4.39992C215.355 4.39992 215.593 4.35834 215.812 4.27518C216.039 4.19202 216.243 4.05593 216.424 3.86693V0.101982H217.366V8.23291H216.424V4.67209C215.986 5.03497 215.472 5.21642 214.882 5.21642C214.217 5.21642 213.691 5.01607 213.306 4.61538C212.928 4.20714 212.739 3.59477 212.739 2.77827ZM218.821 0.101982H219.763V3.76487H222.722V0.101982H223.675V8.23291H222.722V4.63806H219.763V8.23291H218.821V0.101982ZM225.18 7.33703C225.24 7.34459 225.308 7.35215 225.384 7.35971C225.459 7.35971 225.539 7.35971 225.622 7.35971C225.917 7.35971 226.162 7.27655 226.359 7.11023C226.563 6.93635 226.733 6.66418 226.869 6.29373L224.601 0.101982H225.645L227.334 4.87621L228.774 0.101982H229.727L227.833 6.03291C227.576 6.83428 227.281 7.40508 226.949 7.74528C226.624 8.07793 226.196 8.24425 225.667 8.24425C225.569 8.24425 225.482 8.24047 225.406 8.23291C225.338 8.23291 225.263 8.22913 225.18 8.22157V7.33703ZM235.401 8.34631C234.902 8.34631 234.449 8.21779 234.041 7.96075C233.632 7.7037 233.3 7.30301 233.043 6.75868C232.793 6.21435 232.649 5.50748 232.612 4.63806H231.546V8.23291H230.604V0.101982H231.546V3.76487H232.612C232.649 2.88789 232.793 2.17346 233.043 1.62157C233.3 1.06968 233.632 0.661432 234.041 0.396827C234.449 0.132223 234.902 -7.96303e-05 235.401 -7.96303e-05C235.923 -7.96303e-05 236.396 0.143563 236.819 0.430848C237.242 0.710573 237.575 1.15662 237.817 1.76899C238.066 2.3738 238.191 3.16384 238.191 4.1391C238.191 5.11435 238.066 5.91195 237.817 6.53188C237.575 7.15181 237.242 7.6092 236.819 7.90404C236.396 8.19889 235.923 8.34631 235.401 8.34631ZM235.401 7.48446C235.749 7.48446 236.055 7.38617 236.32 7.18961C236.592 6.99305 236.808 6.65662 236.966 6.18033C237.125 5.69648 237.204 5.02741 237.204 4.17312C237.204 3.31882 237.125 2.65353 236.966 2.17724C236.808 1.69339 236.592 1.35318 236.32 1.15662C236.055 0.960058 235.749 0.861776 235.401 0.861776C235.061 0.861776 234.755 0.960058 234.483 1.15662C234.211 1.35318 233.995 1.69339 233.836 2.17724C233.685 2.65353 233.61 3.31882 233.61 4.17312C233.61 5.02741 233.685 5.69648 233.836 6.18033C233.995 6.65662 234.211 6.99305 234.483 7.18961C234.755 7.38617 235.061 7.48446 235.401 7.48446ZM0.53339 19.2329V11.102H1.47463V18.3711H4.287V11.102H5.22824V18.3711H6.07875V20.8432H5.23958L5.14885 19.2329H0.53339ZM7.12267 11.102H11.001V11.9752H8.06391V14.5607H10.5474V15.4226H8.06391V18.3597H11.0464V19.2329H7.12267V11.102ZM12.2944 11.102H13.2357V14.7649H16.1955V11.102H17.148V19.2329H16.1955V15.6381H13.2357V19.2329H12.2944V11.102ZM18.6527 18.337C18.7132 18.3446 18.7813 18.3522 18.8569 18.3597C18.9325 18.3597 19.0118 18.3597 19.095 18.3597C19.3899 18.3597 19.6356 18.2766 19.8321 18.1102C20.0362 17.9363 20.2063 17.6642 20.3424 17.2937L18.0744 11.102H19.1177L20.8074 15.8762L22.2476 11.102H23.2002L21.3063 17.0329C21.0493 17.8343 20.7545 18.4051 20.4218 18.7453C20.0967 19.0779 19.6696 19.2443 19.1404 19.2443C19.0421 19.2443 18.9551 19.2405 18.8795 19.2329C18.8115 19.2329 18.7359 19.2291 18.6527 19.2216V18.337ZM23.3789 19.301C23.1899 19.301 23.035 19.2367 22.914 19.1082C22.8006 18.9796 22.7439 18.8209 22.7439 18.6319C22.7439 18.4353 22.8006 18.2766 22.914 18.1556C23.035 18.0271 23.1899 17.9628 23.3789 17.9628C23.5528 17.9628 23.7003 18.0271 23.8212 18.1556C23.9422 18.2766 24.0027 18.4353 24.0027 18.6319C24.0027 18.8209 23.9422 18.9796 23.8212 19.1082C23.7003 19.2367 23.5528 19.301 23.3789 19.301ZM26.3889 18.3711H26.8992C27.0202 18.1972 27.1222 17.9968 27.2054 17.77C27.2961 17.5432 27.3679 17.2597 27.4208 16.9195C27.4813 16.5717 27.5267 16.1408 27.5569 15.6267C27.5947 15.1126 27.6212 14.4889 27.6363 13.7556C27.659 13.0147 27.6779 12.1302 27.693 11.102H31.8549V18.3711H32.7054V20.8432H31.8662L31.7755 19.2329H27.3074L27.2167 20.8432H26.3889V18.3711ZM27.9085 18.3711H30.9136V11.9752H28.5662C28.5586 13.026 28.5397 13.9144 28.5095 14.6401C28.4868 15.3583 28.449 15.9556 28.3961 16.4319C28.3507 16.9006 28.2865 17.29 28.2033 17.5999C28.1277 17.9023 28.0294 18.1594 27.9085 18.3711ZM36.0189 19.3463C35.1344 19.3463 34.4389 18.9834 33.9323 18.2577C33.4334 17.5243 33.1839 16.4848 33.1839 15.1391C33.1839 13.7858 33.4334 12.7577 33.9323 12.0546C34.4389 11.3515 35.1344 10.9999 36.0189 10.9999C36.911 10.9999 37.6066 11.3552 38.1055 12.0659C38.6045 12.769 38.854 13.7972 38.854 15.1504C38.854 16.4886 38.6045 17.5243 38.1055 18.2577C37.6066 18.9834 36.911 19.3463 36.0189 19.3463ZM36.0189 18.4845C36.5935 18.4845 37.0433 18.2236 37.3684 17.702C37.6935 17.1803 37.856 16.3374 37.856 15.1731C37.856 14.0013 37.6935 13.1583 37.3684 12.6443C37.0433 12.1226 36.5935 11.8618 36.0189 11.8618C35.4444 11.8618 34.9945 12.1226 34.6694 12.6443C34.3444 13.1583 34.1818 14.0013 34.1818 15.1731C34.1818 16.3374 34.3444 17.1803 34.6694 17.702C34.9945 18.2236 35.4444 18.4845 36.0189 18.4845ZM42.8672 19.3463C41.907 19.3463 41.1624 18.9759 40.6332 18.235C40.1115 17.4941 39.8507 16.4735 39.8507 15.1731C39.8507 13.8652 40.1115 12.8446 40.6332 12.1113C41.1548 11.3704 41.9108 10.9999 42.9012 10.9999C43.6421 10.9999 44.2469 11.1889 44.7156 11.5669V12.4855C44.4813 12.2889 44.2015 12.1377 43.8765 12.0319C43.5514 11.9185 43.2301 11.8618 42.9125 11.8618C42.1943 11.8618 41.6727 12.1415 41.3476 12.701C41.0225 13.2604 40.86 14.0845 40.86 15.1731C40.86 16.2618 41.0301 17.0858 41.3703 17.6453C41.718 18.2047 42.2548 18.4845 42.9806 18.4845C43.6156 18.4845 44.194 18.2463 44.7156 17.77V18.6886C44.5191 18.8851 44.2507 19.0439 43.9105 19.1649C43.5778 19.2858 43.2301 19.3463 42.8672 19.3463ZM45.5181 11.9752V11.102H50.5418V11.9752H48.5006V19.2329H47.5594V11.9752H45.5181ZM51.721 18.337C51.7814 18.3446 51.8495 18.3522 51.9251 18.3597C52.0007 18.3597 52.0801 18.3597 52.1632 18.3597C52.4581 18.3597 52.7038 18.2766 52.9003 18.1102C53.1045 17.9363 53.2746 17.6642 53.4106 17.2937L51.1426 11.102H52.1859L53.8756 15.8762L55.3158 11.102H56.2684L54.3746 17.0329C54.1175 17.8343 53.8227 18.4051 53.49 18.7453C53.1649 19.0779 52.7378 19.2443 52.2086 19.2443C52.1103 19.2443 52.0234 19.2405 51.9478 19.2329C51.8797 19.2329 51.8041 19.2291 51.721 19.2216V18.337ZM57.1458 11.102H61.8407V19.2329H60.8994V11.9752H58.0871V19.2329H57.1458V11.102ZM63.2921 11.102H64.2334V14.7649H67.1932V11.102H68.1457V19.2329H67.1932V15.6381H64.2334V19.2329H63.2921V11.102ZM72.0772 19.3463C71.1927 19.3463 70.4972 18.9834 69.9906 18.2577C69.4917 17.5243 69.2422 16.4848 69.2422 15.1391C69.2422 13.7858 69.4917 12.7577 69.9906 12.0546C70.4972 11.3515 71.1927 10.9999 72.0772 10.9999C72.9693 10.9999 73.6649 11.3552 74.1638 12.0659C74.6628 12.769 74.9123 13.7972 74.9123 15.1504C74.9123 16.4886 74.6628 17.5243 74.1638 18.2577C73.6649 18.9834 72.9693 19.3463 72.0772 19.3463ZM72.0772 18.4845C72.6518 18.4845 73.1016 18.2236 73.4267 17.702C73.7518 17.1803 73.9144 16.3374 73.9144 15.1731C73.9144 14.0013 73.7518 13.1583 73.4267 12.6443C73.1016 12.1226 72.6518 11.8618 72.0772 11.8618C71.5027 11.8618 71.0528 12.1226 70.7278 12.6443C70.4027 13.1583 70.2401 14.0013 70.2401 15.1731C70.2401 16.3374 70.4027 17.1803 70.7278 17.702C71.0528 18.2236 71.5027 18.4845 72.0772 18.4845ZM77.3977 18.3711H77.908C78.0289 18.1972 78.131 17.9968 78.2142 17.77C78.3049 17.5432 78.3767 17.2597 78.4296 16.9195C78.4901 16.5717 78.5355 16.1408 78.5657 15.6267C78.6035 15.1126 78.63 14.4889 78.6451 13.7556C78.6678 13.0147 78.6867 12.1302 78.7018 11.102H82.8636V18.3711H83.7142V20.8432H82.875L82.7843 19.2329H78.3162L78.2255 20.8432H77.3977V18.3711ZM78.9173 18.3711H81.9224V11.9752H79.575C79.5674 13.026 79.5485 13.9144 79.5183 14.6401C79.4956 15.3583 79.4578 15.9556 79.4049 16.4319C79.3595 16.9006 79.2953 17.29 79.2121 17.5999C79.1365 17.9023 79.0382 18.1594 78.9173 18.3711ZM84.2541 18.2917C84.6245 18.3144 84.8778 18.235 85.0139 18.0535C85.1575 17.8645 85.2558 17.5243 85.3087 17.0329C85.3389 16.7683 85.3616 16.4772 85.3767 16.1597C85.3994 15.8346 85.4183 15.4491 85.4334 15.003C85.4486 14.557 85.4599 14.0202 85.4675 13.3927C85.475 12.7577 85.4788 11.9941 85.4788 11.102H89.4706V19.2329H88.5293V11.9752H86.3633C86.3558 13.2377 86.3407 14.281 86.318 15.1051C86.2953 15.9216 86.2575 16.5869 86.2046 17.101C86.129 17.9023 85.9362 18.4731 85.6262 18.8133C85.3163 19.1535 84.8589 19.3085 84.2541 19.2783V18.2917ZM90.8321 13.4948C90.8321 12.6858 91.0476 12.0848 91.4785 11.6917C91.9094 11.2985 92.4915 11.102 93.2249 11.102H95.2094V19.2329H94.2682V15.9216H93.1795L91.4558 19.2329H90.3898L92.261 15.7174C91.7847 15.5738 91.4256 15.3205 91.1836 14.9577C90.9493 14.5948 90.8321 14.1071 90.8321 13.4948ZM93.1455 15.0597H94.2682V11.9638H93.2249C92.7788 11.9638 92.4273 12.081 92.1702 12.3154C91.9132 12.5497 91.7847 12.9504 91.7847 13.5174C91.7847 14.0467 91.8981 14.436 92.1249 14.6855C92.3592 14.935 92.6994 15.0597 93.1455 15.0597ZM103.399 19.2329H102.423L101.822 16.8401H99.3841L98.7604 19.2329H97.8985L100.042 11.102H101.289L103.399 19.2329ZM99.5996 16.001H101.607L100.62 12.0999L99.5996 16.001ZM104.478 11.102H106.338C107.101 11.102 107.687 11.2532 108.095 11.5556C108.511 11.858 108.719 12.3683 108.719 13.0865C108.719 13.6686 108.583 14.1109 108.311 14.4133C108.046 14.7082 107.699 14.9085 107.268 15.0144C107.804 15.0975 108.216 15.2865 108.504 15.5814C108.791 15.8762 108.935 16.3147 108.935 16.8968C108.935 17.4563 108.817 17.9099 108.583 18.2577C108.356 18.5979 108.042 18.8473 107.642 19.0061C107.249 19.1573 106.806 19.2329 106.315 19.2329H104.478V11.102ZM106.338 14.6288C106.761 14.6288 107.105 14.5154 107.37 14.2886C107.634 14.0542 107.767 13.6762 107.767 13.1546C107.767 12.7161 107.646 12.4099 107.404 12.236C107.162 12.0546 106.822 11.9638 106.383 11.9638H105.419V14.6288H106.338ZM106.372 18.3711C106.84 18.3711 107.218 18.2652 107.506 18.0535C107.801 17.8418 107.948 17.4638 107.948 16.9195C107.948 16.3979 107.812 16.0312 107.54 15.8195C107.268 15.6003 106.852 15.4906 106.292 15.4906H105.419V18.3711H106.372ZM109.429 11.9752V11.102H114.452V11.9752H112.411V19.2329H111.47V11.9752H109.429ZM117.549 19.3463C116.664 19.3463 115.969 18.9834 115.462 18.2577C114.963 17.5243 114.714 16.4848 114.714 15.1391C114.714 13.7858 114.963 12.7577 115.462 12.0546C115.969 11.3515 116.664 10.9999 117.549 10.9999C118.441 10.9999 119.136 11.3552 119.635 12.0659C120.134 12.769 120.384 13.7972 120.384 15.1504C120.384 16.4886 120.134 17.5243 119.635 18.2577C119.136 18.9834 118.441 19.3463 117.549 19.3463ZM117.549 18.4845C118.123 18.4845 118.573 18.2236 118.898 17.702C119.223 17.1803 119.386 16.3374 119.386 15.1731C119.386 14.0013 119.223 13.1583 118.898 12.6443C118.573 12.1226 118.123 11.8618 117.549 11.8618C116.974 11.8618 116.524 12.1226 116.199 12.6443C115.874 13.1583 115.712 14.0013 115.712 15.1731C115.712 16.3374 115.874 17.1803 116.199 17.702C116.524 18.2236 116.974 18.4845 117.549 18.4845ZM125.146 17.9968H124.284L122.583 12.6669V19.2329H121.721V11.102H123.048L124.783 16.5453L126.574 11.102H127.833V19.2329H126.892V12.6896L125.146 17.9968ZM131.768 19.3463C130.884 19.3463 130.188 18.9834 129.682 18.2577C129.183 17.5243 128.933 16.4848 128.933 15.1391C128.933 13.7858 129.183 12.7577 129.682 12.0546C130.188 11.3515 130.884 10.9999 131.768 10.9999C132.66 10.9999 133.356 11.3552 133.855 12.0659C134.354 12.769 134.603 13.7972 134.603 15.1504C134.603 16.4886 134.354 17.5243 133.855 18.2577C133.356 18.9834 132.66 19.3463 131.768 19.3463ZM131.768 18.4845C132.343 18.4845 132.793 18.2236 133.118 17.702C133.443 17.1803 133.605 16.3374 133.605 15.1731C133.605 14.0013 133.443 13.1583 133.118 12.6443C132.793 12.1226 132.343 11.8618 131.768 11.8618C131.194 11.8618 130.744 12.1226 130.419 12.6443C130.094 13.1583 129.931 14.0013 129.931 15.1731C129.931 16.3374 130.094 17.1803 130.419 17.702C130.744 18.2236 131.194 18.4845 131.768 18.4845ZM135.94 19.2329V11.102H139.864V11.9752H136.882V14.4247H137.721C138.484 14.4247 139.085 14.6099 139.524 14.9803C139.962 15.3432 140.182 15.9291 140.182 16.7381C140.182 17.3353 140.072 17.8192 139.853 18.1896C139.633 18.5525 139.331 18.8171 138.945 18.9834C138.56 19.1497 138.121 19.2329 137.63 19.2329H135.94ZM137.709 18.3711C138.163 18.3711 138.526 18.2539 138.798 18.0195C139.07 17.7851 139.206 17.3731 139.206 16.7834C139.206 15.7855 138.73 15.2865 137.777 15.2865H136.882V18.3711H137.709ZM142.365 19.2329H141.367V11.102H142.308V17.5772L145.381 11.102H146.379V19.2329H145.438V12.7577L142.365 19.2329ZM147.279 18.2917C147.649 18.3144 147.902 18.235 148.038 18.0535C148.182 17.8645 148.28 17.5243 148.333 17.0329C148.363 16.7683 148.386 16.4772 148.401 16.1597C148.424 15.8346 148.443 15.4491 148.458 15.003C148.473 14.557 148.484 14.0202 148.492 13.3927C148.5 12.7577 148.503 11.9941 148.503 11.102H152.495V19.2329H151.554V11.9752H149.388C149.38 13.2377 149.365 14.281 149.342 15.1051C149.32 15.9216 149.282 16.5869 149.229 17.101C149.153 17.9023 148.961 18.4731 148.651 18.8133C148.341 19.1535 147.883 19.3085 147.279 19.2783V18.2917ZM153.947 11.102H157.826V11.9752H154.889V14.5607H157.372V15.4226H154.889V18.3597H157.871V19.2329H153.947V11.102ZM161.625 10.6484C161.126 10.6484 160.756 10.4934 160.514 10.1834C160.272 9.8659 160.151 9.48033 160.151 9.02672H160.99C160.99 9.36693 161.047 9.61263 161.16 9.76384C161.281 9.90748 161.436 9.9793 161.625 9.9793C161.822 9.9793 161.977 9.90748 162.09 9.76384C162.211 9.61263 162.272 9.36693 162.272 9.02672H163.099C163.099 9.48033 162.979 9.8659 162.737 10.1834C162.495 10.4934 162.124 10.6484 161.625 10.6484ZM160.117 19.2329H159.119V11.102H160.06V17.5772L163.134 11.102H164.131V19.2329H163.19V12.7577L160.117 19.2329ZM166.017 20.4123H165.371C165.484 20.2535 165.59 20.0645 165.689 19.8453C165.787 19.6336 165.844 19.4408 165.859 19.2669C165.715 19.2443 165.598 19.1762 165.507 19.0628C165.424 18.9418 165.382 18.802 165.382 18.6432C165.382 18.4391 165.439 18.2766 165.553 18.1556C165.673 18.0271 165.828 17.9628 166.017 17.9628C166.199 17.9628 166.346 18.0271 166.46 18.1556C166.581 18.2841 166.641 18.4656 166.641 18.6999C166.641 19.0401 166.569 19.369 166.426 19.6865C166.29 20.004 166.154 20.246 166.017 20.4123ZM170.638 19.2329H169.64V11.102H170.581V17.5772L173.654 11.102H174.652V19.2329H173.711V12.7577L170.638 19.2329ZM176.107 11.102H177.048V14.7649H180.008V11.102H180.961V19.2329H180.008V15.6381H177.048V19.2329H176.107V11.102ZM185.096 10.8865H186.038V11.8278C186.658 11.8656 187.206 12.0092 187.682 12.2587C188.166 12.5006 188.544 12.8559 188.816 13.3247C189.088 13.7934 189.224 14.3755 189.224 15.0711C189.224 15.7515 189.088 16.3336 188.816 16.8174C188.544 17.2937 188.166 17.668 187.682 17.9401C187.206 18.2047 186.658 18.3559 186.038 18.3937V19.4597H185.096V18.3937C184.484 18.3635 183.936 18.2274 183.452 17.9855C182.968 17.736 182.587 17.3769 182.307 16.9082C182.035 16.4394 181.899 15.8573 181.899 15.1618C181.899 14.4738 182.035 13.8917 182.307 13.4154C182.587 12.9315 182.968 12.5573 183.452 12.2927C183.936 12.0205 184.484 11.8656 185.096 11.8278V10.8865ZM182.874 15.1391C182.874 15.7061 182.968 16.1673 183.157 16.5226C183.354 16.8779 183.618 17.1425 183.951 17.3164C184.284 17.4827 184.666 17.581 185.096 17.6113V12.5989C184.666 12.6367 184.284 12.7463 183.951 12.9278C183.618 13.1092 183.354 13.3814 183.157 13.7443C182.968 14.1071 182.874 14.5721 182.874 15.1391ZM188.26 15.0937C188.26 14.5267 188.166 14.0656 187.977 13.7102C187.788 13.3549 187.523 13.0941 187.183 12.9278C186.85 12.7539 186.469 12.6518 186.038 12.6216V17.6226C186.469 17.5848 186.85 17.4752 187.183 17.2937C187.523 17.1123 187.788 16.8439 187.977 16.4886C188.166 16.1257 188.26 15.6607 188.26 15.0937ZM192.667 19.3463C191.782 19.3463 191.087 18.9834 190.58 18.2577C190.081 17.5243 189.832 16.4848 189.832 15.1391C189.832 13.7858 190.081 12.7577 190.58 12.0546C191.087 11.3515 191.782 10.9999 192.667 10.9999C193.559 10.9999 194.254 11.3552 194.753 12.0659C195.252 12.769 195.502 13.7972 195.502 15.1504C195.502 16.4886 195.252 17.5243 194.753 18.2577C194.254 18.9834 193.559 19.3463 192.667 19.3463ZM192.667 18.4845C193.241 18.4845 193.691 18.2236 194.016 17.702C194.341 17.1803 194.504 16.3374 194.504 15.1731C194.504 14.0013 194.341 13.1583 194.016 12.6443C193.691 12.1226 193.241 11.8618 192.667 11.8618C192.092 11.8618 191.642 12.1226 191.317 12.6443C190.992 13.1583 190.829 14.0013 190.829 15.1731C190.829 16.3374 190.992 17.1803 191.317 17.702C191.642 18.2236 192.092 18.4845 192.667 18.4845ZM196.839 11.102H198.585C199.371 11.102 199.984 11.291 200.422 11.669C200.868 12.047 201.091 12.6367 201.091 13.4381C201.091 14.0429 200.982 14.5343 200.762 14.9123C200.551 15.2903 200.252 15.5662 199.866 15.7401C199.481 15.914 199.039 16.001 198.54 16.001H197.78V19.2329H196.839V11.102ZM198.54 15.1391C199.031 15.1391 199.42 15.0106 199.708 14.7535C200.002 14.4889 200.15 14.0542 200.15 13.4494C200.15 12.9353 200.014 12.5611 199.742 12.3267C199.469 12.0848 199.084 11.9638 198.585 11.9638H197.78V15.1391H198.54ZM205.59 17.9968H204.728L203.027 12.6669V19.2329H202.165V11.102H203.492L205.227 16.5453L207.019 11.102H208.278V19.2329H207.336V12.6896L205.59 17.9968ZM214.696 19.2329H213.721L213.12 16.8401H210.682L210.058 19.2329H209.196L211.34 11.102H212.587L214.696 19.2329ZM210.897 16.001H212.905L211.918 12.0999L210.897 16.001ZM215.776 19.2329V11.102H216.717V18.3711H219.529V11.102H220.471V18.3711H221.321V20.8432H220.482L220.391 19.2329H215.776ZM223.363 19.2329H222.365V11.102H223.306V17.5772L226.38 11.102H227.377V19.2329H226.436V12.7577L223.363 19.2329ZM228.742 13.4948C228.742 12.6858 228.957 12.0848 229.388 11.6917C229.819 11.2985 230.401 11.102 231.135 11.102H233.119V19.2329H232.178V15.9216H231.089L229.366 19.2329H228.3L230.171 15.7174C229.694 15.5738 229.335 15.3205 229.093 14.9577C228.859 14.5948 228.742 14.1071 228.742 13.4948ZM231.055 15.0597H232.178V11.9638H231.135C230.689 11.9638 230.337 12.081 230.08 12.3154C229.823 12.5497 229.694 12.9504 229.694 13.5174C229.694 14.0467 229.808 14.436 230.035 14.6855C230.269 14.935 230.609 15.0597 231.055 15.0597ZM3.02824 30.3463C2.1437 30.3463 1.44817 29.9834 0.941638 29.2577C0.442669 28.5243 0.193184 27.4848 0.193184 26.1391C0.193184 24.7858 0.442669 23.7577 0.941638 23.0546C1.44817 22.3515 2.1437 21.9999 3.02824 21.9999C3.92033 21.9999 4.61586 22.3552 5.11483 23.0659C5.6138 23.769 5.86329 24.7972 5.86329 26.1504C5.86329 27.4886 5.6138 28.5243 5.11483 29.2577C4.61586 29.9834 3.92033 30.3463 3.02824 30.3463ZM3.02824 29.4845C3.60281 29.4845 4.05263 29.2236 4.37772 28.702C4.70281 28.1803 4.86535 27.3374 4.86535 26.1731C4.86535 25.0013 4.70281 24.1583 4.37772 23.6443C4.05263 23.1226 3.60281 22.8618 3.02824 22.8618C2.45367 22.8618 2.00384 23.1226 1.67875 23.6443C1.35367 24.1583 1.19112 25.0013 1.19112 26.1731C1.19112 27.3374 1.35367 28.1803 1.67875 28.702C2.00384 29.2236 2.45367 29.4845 3.02824 29.4845ZM13.7353 30.2329H12.6012L10.6847 26.6381H9.90226V30.2329H8.96102V22.102H9.90226V25.7762H10.6847L12.6012 22.102H13.6445L11.5126 26.1278L13.7353 30.2329ZM16.539 30.3463C15.6545 30.3463 14.959 29.9834 14.4524 29.2577C13.9535 28.5243 13.704 27.4848 13.704 26.1391C13.704 24.7858 13.9535 23.7577 14.4524 23.0546C14.959 22.3515 15.6545 21.9999 16.539 21.9999C17.4311 21.9999 18.1267 22.3552 18.6256 23.0659C19.1246 23.769 19.3741 24.7972 19.3741 26.1504C19.3741 27.4886 19.1246 28.5243 18.6256 29.2577C18.1267 29.9834 17.4311 30.3463 16.539 30.3463ZM16.539 29.4845C17.1136 29.4845 17.5634 29.2236 17.8885 28.702C18.2136 28.1803 18.3761 27.3374 18.3761 26.1731C18.3761 25.0013 18.2136 24.1583 17.8885 23.6443C17.5634 23.1226 17.1136 22.8618 16.539 22.8618C15.9645 22.8618 15.5146 23.1226 15.1895 23.6443C14.8645 24.1583 14.7019 25.0013 14.7019 26.1731C14.7019 27.3374 14.8645 28.1803 15.1895 28.702C15.5146 29.2236 15.9645 29.4845 16.539 29.4845ZM19.8587 22.9752V22.102H24.8824V22.9752H22.8412V30.2329H21.8999V22.9752H19.8587ZM27.9789 30.3463C27.0944 30.3463 26.3988 29.9834 25.8923 29.2577C25.3933 28.5243 25.1439 27.4848 25.1439 26.1391C25.1439 24.7858 25.3933 23.7577 25.8923 23.0546C26.3988 22.3515 27.0944 21.9999 27.9789 21.9999C28.871 21.9999 29.5665 22.3552 30.0655 23.0659C30.5645 23.769 30.814 24.7972 30.814 26.1504C30.814 27.4886 30.5645 28.5243 30.0655 29.2577C29.5665 29.9834 28.871 30.3463 27.9789 30.3463ZM27.9789 29.4845C28.5535 29.4845 29.0033 29.2236 29.3284 28.702C29.6535 28.1803 29.816 27.3374 29.816 26.1731C29.816 25.0013 29.6535 24.1583 29.3284 23.6443C29.0033 23.1226 28.5535 22.8618 27.9789 22.8618C27.4043 22.8618 26.9545 23.1226 26.6294 23.6443C26.3043 24.1583 26.1418 25.0013 26.1418 26.1731C26.1418 27.3374 26.3043 28.1803 26.6294 28.702C26.9545 29.2236 27.4043 29.4845 27.9789 29.4845ZM32.1509 22.102H33.8973C34.6835 22.102 35.2959 22.291 35.7344 22.669C36.1804 23.047 36.4034 23.6367 36.4034 24.4381C36.4034 25.0429 36.2938 25.5343 36.0746 25.9123C35.8629 26.2903 35.5643 26.5662 35.1787 26.7401C34.7931 26.914 34.3509 27.001 33.8519 27.001H33.0921V30.2329H32.1509V22.102ZM33.8519 26.1391C34.3433 26.1391 34.7326 26.0106 35.0199 25.7535C35.3148 25.4889 35.4622 25.0542 35.4622 24.4494C35.4622 23.9353 35.3261 23.5611 35.054 23.3267C34.7818 23.0848 34.3962 22.9638 33.8973 22.9638H33.0921V26.1391H33.8519ZM37.4777 30.2329V22.102H38.4189V25.1752H39.3375C40.1237 25.1752 40.7361 25.3755 41.1746 25.7762C41.6206 26.1693 41.8436 26.7741 41.8436 27.5906C41.8436 28.2106 41.734 28.7171 41.5148 29.1102C41.3031 29.4958 41.0045 29.7793 40.6189 29.9607C40.2333 30.1422 39.7911 30.2329 39.2921 30.2329H37.4777ZM42.5694 22.1133H43.5106V30.2329H42.5694V22.1133ZM39.2921 29.3711C39.7835 29.3711 40.1728 29.235 40.4601 28.9628C40.755 28.6831 40.9024 28.2295 40.9024 27.602C40.9024 27.0728 40.7663 26.6796 40.4942 26.4226C40.222 26.1656 39.8364 26.037 39.3375 26.037H38.4189V29.3711H39.2921ZM44.5557 22.102H45.6557L47.1299 25.1865L48.5701 22.102H49.5454L47.6062 25.9917L49.7042 30.2329H48.5928L46.9825 26.8195L45.3268 30.2329H44.3516L46.5062 25.9917L44.5557 22.102ZM54.9604 30.3463C54.0003 30.3463 53.2556 29.9759 52.7264 29.235C52.2048 28.4941 51.944 27.4735 51.944 26.1731C51.944 24.8652 52.2048 23.8446 52.7264 23.1113C53.2481 22.3704 54.0041 21.9999 54.9945 21.9999C55.7354 21.9999 56.3402 22.1889 56.8089 22.5669V23.4855C56.5745 23.2889 56.2948 23.1377 55.9697 23.0319C55.6446 22.9185 55.3233 22.8618 55.0058 22.8618C54.2876 22.8618 53.7659 23.1415 53.4409 23.701C53.1158 24.2604 52.9532 25.0845 52.9532 26.1731C52.9532 27.2618 53.1233 28.0858 53.4635 28.6453C53.8113 29.2047 54.3481 29.4845 55.0738 29.4845C55.7089 29.4845 56.2873 29.2463 56.8089 28.77V29.6886C56.6123 29.8851 56.344 30.0439 56.0037 30.1649C55.6711 30.2858 55.3233 30.3463 54.9604 30.3463ZM60.3937 30.3463C59.5092 30.3463 58.8137 29.9834 58.3071 29.2577C57.8082 28.5243 57.5587 27.4848 57.5587 26.1391C57.5587 24.7858 57.8082 23.7577 58.3071 23.0546C58.8137 22.3515 59.5092 21.9999 60.3937 21.9999C61.2858 21.9999 61.9814 22.3552 62.4803 23.0659C62.9793 23.769 63.2288 24.7972 63.2288 26.1504C63.2288 27.4886 62.9793 28.5243 62.4803 29.2577C61.9814 29.9834 61.2858 30.3463 60.3937 30.3463ZM60.3937 29.4845C60.9683 29.4845 61.4181 29.2236 61.7432 28.702C62.0683 28.1803 62.2308 27.3374 62.2308 26.1731C62.2308 25.0013 62.0683 24.1583 61.7432 23.6443C61.4181 23.1226 60.9683 22.8618 60.3937 22.8618C59.8192 22.8618 59.3693 23.1226 59.0442 23.6443C58.7192 24.1583 58.5566 25.0013 58.5566 26.1731C58.5566 27.3374 58.7192 28.1803 59.0442 28.702C59.3693 29.2236 59.8192 29.4845 60.3937 29.4845ZM63.61 29.3711H64.1203C64.2413 29.1972 64.3433 28.9968 64.4265 28.77C64.5172 28.5432 64.589 28.2597 64.642 27.9195C64.7025 27.5717 64.7478 27.1408 64.7781 26.6267C64.8159 26.1126 64.8423 25.4889 64.8574 24.7556C64.8801 24.0147 64.899 23.1302 64.9141 22.102H69.076V29.3711H69.9265V31.8432H69.0873L68.9966 30.2329H64.5286L64.4378 31.8432H63.61V29.3711ZM65.1296 29.3711H68.1348V22.9752H65.7873C65.7798 24.026 65.7609 24.9144 65.7306 25.6401C65.7079 26.3583 65.6701 26.9556 65.6172 27.4319C65.5719 27.9006 65.5076 28.29 65.4244 28.5999C65.3488 28.9023 65.2506 29.1594 65.1296 29.3711ZM70.9667 22.102H74.8451V22.9752H71.9079V25.5607H74.3914V26.4226H71.9079V29.3597H74.8904V30.2329H70.9667V22.102ZM76.1385 22.102H77.8848C78.6711 22.102 79.2835 22.291 79.722 22.669C80.168 23.047 80.391 23.6367 80.391 24.4381C80.391 25.0429 80.2814 25.5343 80.0622 25.9123C79.8505 26.2903 79.5519 26.5662 79.1663 26.7401C78.7807 26.914 78.3385 27.001 77.8395 27.001H77.0797V30.2329H76.1385V22.102ZM77.8395 26.1391C78.3309 26.1391 78.7202 26.0106 79.0075 25.7535C79.3024 25.4889 79.4498 25.0542 79.4498 24.4494C79.4498 23.9353 79.3137 23.5611 79.0415 23.3267C78.7694 23.0848 78.3838 22.9638 77.8848 22.9638H77.0797V26.1391H77.8395ZM80.6557 30.2329L82.6175 26.0824L80.7464 22.102H81.7897L83.468 25.7762H84.2732V22.102H85.2144V25.7762H86.0196L87.6979 22.102H88.7412L86.8814 26.0597L88.832 30.2329H87.6979L86.0309 26.5927H85.2144V30.2329H84.2732V26.5927H83.4454L81.767 30.2329H80.6557ZM90.7579 30.2329H89.76V22.102H90.7012V28.5772L93.7744 22.102H94.7724V30.2329H93.8311V23.7577L90.7579 30.2329ZM95.7738 22.9752V22.102H100.798V22.9752H98.7563V30.2329H97.8151V22.9752H95.7738ZM104.076 30.3463C103.115 30.3463 102.371 29.9759 101.841 29.235C101.32 28.4941 101.059 27.4735 101.059 26.1731C101.059 24.8652 101.32 23.8446 101.841 23.1113C102.363 22.3704 103.119 21.9999 104.11 21.9999C104.85 21.9999 105.455 22.1889 105.924 22.5669V23.4855C105.69 23.2889 105.41 23.1377 105.085 23.0319C104.76 22.9185 104.438 22.8618 104.121 22.8618C103.403 22.8618 102.881 23.1415 102.556 23.701C102.231 24.2604 102.068 25.0845 102.068 26.1731C102.068 27.2618 102.238 28.0858 102.579 28.6453C102.926 29.2047 103.463 29.4845 104.189 29.4845C104.824 29.4845 105.402 29.2463 105.924 28.77V29.6886C105.727 29.8851 105.459 30.0439 105.119 30.1649C104.786 30.2858 104.438 30.3463 104.076 30.3463ZM107.034 24.4948C107.034 23.6858 107.249 23.0848 107.68 22.6917C108.111 22.2985 108.693 22.102 109.427 22.102H111.411V30.2329H110.47V26.9216H109.381L107.658 30.2329H106.592L108.463 26.7174C107.987 26.5738 107.627 26.3205 107.386 25.9577C107.151 25.5948 107.034 25.1071 107.034 24.4948ZM109.347 26.0597H110.47V22.9638H109.427C108.981 22.9638 108.629 23.081 108.372 23.3154C108.115 23.5497 107.987 23.9504 107.987 24.5174C107.987 25.0467 108.1 25.436 108.327 25.6855C108.561 25.935 108.901 26.0597 109.347 26.0597ZM114.622 22.102H116.482C117.245 22.102 117.831 22.2532 118.24 22.5556C118.655 22.858 118.863 23.3683 118.863 24.0865C118.863 24.6686 118.727 25.1109 118.455 25.4133C118.19 25.7082 117.843 25.9085 117.412 26.0144C117.949 26.0975 118.361 26.2865 118.648 26.5814C118.935 26.8762 119.079 27.3147 119.079 27.8968C119.079 28.4563 118.962 28.9099 118.727 29.2577C118.5 29.5979 118.187 29.8473 117.786 30.0061C117.393 30.1573 116.951 30.2329 116.459 30.2329H114.622V22.102ZM116.482 25.6288C116.905 25.6288 117.249 25.5154 117.514 25.2886C117.778 25.0542 117.911 24.6762 117.911 24.1546C117.911 23.7161 117.79 23.4099 117.548 23.236C117.306 23.0546 116.966 22.9638 116.527 22.9638H115.563V25.6288H116.482ZM116.516 29.3711C116.985 29.3711 117.363 29.2652 117.65 29.0535C117.945 28.8418 118.092 28.4638 118.092 27.9195C118.092 27.3979 117.956 27.0312 117.684 26.8195C117.412 26.6003 116.996 26.4906 116.436 26.4906H115.563V29.3711H116.516ZM122.009 30.2329V22.102H125.932V22.9752H122.95V25.4247H123.789C124.553 25.4247 125.154 25.6099 125.592 25.9803C126.031 26.3432 126.25 26.9291 126.25 27.7381C126.25 28.3353 126.14 28.8192 125.921 29.1896C125.702 29.5525 125.399 29.8171 125.014 29.9834C124.628 30.1497 124.19 30.2329 123.698 30.2329H122.009ZM123.778 29.3711C124.231 29.3711 124.594 29.2539 124.866 29.0195C125.139 28.7851 125.275 28.3731 125.275 27.7834C125.275 26.7855 124.798 26.2865 123.846 26.2865H122.95V29.3711H123.778ZM132.247 30.2329H131.272L130.671 27.8401H128.233L127.609 30.2329H126.747L128.891 22.102H130.138L132.247 30.2329ZM128.448 27.001H130.456L129.469 23.0999L128.448 27.001ZM134.802 30.3463C134.16 30.3463 133.562 30.1838 133.011 29.8587V28.9401C133.328 29.1291 133.627 29.269 133.906 29.3597C134.194 29.4429 134.489 29.4845 134.791 29.4845C135.063 29.4845 135.316 29.4353 135.551 29.337C135.793 29.2388 135.985 29.0762 136.129 28.8494C136.28 28.615 136.356 28.3051 136.356 27.9195C136.356 27.3903 136.227 27.0161 135.97 26.7968C135.713 26.5776 135.324 26.468 134.802 26.468H134.088V25.6515H134.802C135.241 25.6515 135.577 25.5229 135.812 25.2659C136.046 25.0089 136.163 24.6346 136.163 24.1432C136.163 23.6821 136.042 23.3532 135.8 23.1566C135.566 22.9601 135.263 22.8618 134.893 22.8618C134.326 22.8618 133.725 23.0432 133.09 23.4061V22.4875C133.665 22.1625 134.281 21.9999 134.938 21.9999C135.596 21.9999 136.122 22.17 136.515 22.5102C136.915 22.8504 137.116 23.357 137.116 24.0298C137.116 24.5666 136.991 25.0013 136.742 25.3339C136.5 25.659 136.159 25.8821 135.721 26.003C136.235 26.0862 136.632 26.2827 136.912 26.5927C137.191 26.9027 137.331 27.3374 137.331 27.8968C137.331 28.4714 137.214 28.9401 136.98 29.303C136.745 29.6659 136.435 29.9305 136.05 30.0968C135.664 30.2632 135.248 30.3463 134.802 30.3463ZM138.487 22.102H142.366V22.9752H139.429V25.5607H141.912V26.4226H139.429V29.3597H142.411V30.2329H138.487V22.102ZM144.808 29.3711H145.318C145.439 29.1972 145.541 28.9968 145.624 28.77C145.715 28.5432 145.787 28.2597 145.84 27.9195C145.9 27.5717 145.945 27.1408 145.976 26.6267C146.014 26.1126 146.04 25.4889 146.055 24.7556C146.078 24.0147 146.097 23.1302 146.112 22.102H150.274V29.3711H151.124V31.8432H150.285L150.194 30.2329H145.726L145.635 31.8432H144.808V29.3711ZM146.327 29.3711H149.332V22.9752H146.985C146.977 24.026 146.959 24.9144 146.928 25.6401C146.906 26.3583 146.868 26.9556 146.815 27.4319C146.77 27.9006 146.705 28.29 146.622 28.5999C146.546 28.9023 146.448 29.1594 146.327 29.3711ZM157.143 30.2329H156.167L155.566 27.8401H153.128L152.505 30.2329H151.643L153.786 22.102H155.033L157.143 30.2329ZM153.344 27.001H155.351L154.364 23.0999L153.344 27.001ZM158.222 22.102H159.163V25.7649H162.123V22.102H163.076V30.2329H162.123V26.6381H159.163V30.2329H158.222V22.102ZM164.512 22.102H165.454V25.7649H168.413V22.102H169.366V30.2329H168.413V26.6381H165.454V30.2329H164.512V22.102ZM170.803 30.2329V22.102H171.744V25.1752H172.662C173.449 25.1752 174.061 25.3755 174.5 25.7762C174.946 26.1693 175.169 26.7741 175.169 27.5906C175.169 28.2106 175.059 28.7171 174.84 29.1102C174.628 29.4958 174.329 29.7793 173.944 29.9607C173.558 30.1422 173.116 30.2329 172.617 30.2329H170.803ZM175.894 22.1133H176.836V30.2329H175.894V22.1133ZM172.617 29.3711C173.108 29.3711 173.498 29.235 173.785 28.9628C174.08 28.6831 174.227 28.2295 174.227 27.602C174.227 27.0728 174.091 26.6796 173.819 26.4226C173.547 26.1656 173.161 26.037 172.662 26.037H171.744V29.3711H172.617ZM177.881 22.102H178.981L180.455 25.1865L181.895 22.102H182.87L180.931 25.9917L183.029 30.2329H181.918L180.307 26.8195L178.652 30.2329H177.677L179.831 25.9917L177.881 22.102ZM190.587 30.2329H189.612L189.011 27.8401H186.573L185.949 30.2329H185.087L187.231 22.102H188.478L190.587 30.2329ZM186.788 27.001H188.796L187.809 23.0999L186.788 27.001ZM191.667 22.102H193.527C194.29 22.102 194.876 22.2532 195.284 22.5556C195.7 22.858 195.908 23.3683 195.908 24.0865C195.908 24.6686 195.772 25.1109 195.5 25.4133C195.235 25.7082 194.887 25.9085 194.457 26.0144C194.993 26.0975 195.405 26.2865 195.693 26.5814C195.98 26.8762 196.124 27.3147 196.124 27.8968C196.124 28.4563 196.006 28.9099 195.772 29.2577C195.545 29.5979 195.231 29.8473 194.831 30.0061C194.438 30.1573 193.995 30.2329 193.504 30.2329H191.667V22.102ZM193.527 25.6288C193.95 25.6288 194.294 25.5154 194.559 25.2886C194.823 25.0542 194.955 24.6762 194.955 24.1546C194.955 23.7161 194.835 23.4099 194.593 23.236C194.351 23.0546 194.01 22.9638 193.572 22.9638H192.608V25.6288H193.527ZM193.561 29.3711C194.029 29.3711 194.407 29.2652 194.695 29.0535C194.989 28.8418 195.137 28.4638 195.137 27.9195C195.137 27.3979 195.001 27.0312 194.729 26.8195C194.457 26.6003 194.041 26.4906 193.481 26.4906H192.608V29.3711H193.561ZM196.618 22.9752V22.102H201.641V22.9752H199.6V30.2329H198.659V22.9752H196.618ZM204.738 30.3463C203.853 30.3463 203.158 29.9834 202.651 29.2577C202.152 28.5243 201.903 27.4848 201.903 26.1391C201.903 24.7858 202.152 23.7577 202.651 23.0546C203.158 22.3515 203.853 21.9999 204.738 21.9999C205.63 21.9999 206.325 22.3552 206.824 23.0659C207.323 23.769 207.573 24.7972 207.573 26.1504C207.573 27.4886 207.323 28.5243 206.824 29.2577C206.325 29.9834 205.63 30.3463 204.738 30.3463ZM204.738 29.4845C205.312 29.4845 205.762 29.2236 206.087 28.702C206.412 28.1803 206.575 27.3374 206.575 26.1731C206.575 25.0013 206.412 24.1583 206.087 23.6443C205.762 23.1226 205.312 22.8618 204.738 22.8618C204.163 22.8618 203.713 23.1226 203.388 23.6443C203.063 24.1583 202.901 25.0013 202.901 26.1731C202.901 27.3374 203.063 28.1803 203.388 28.702C203.713 29.2236 204.163 29.4845 204.738 29.4845ZM208.887 30.301C208.698 30.301 208.543 30.2367 208.422 30.1082C208.308 29.9796 208.252 29.8209 208.252 29.6319C208.252 29.4353 208.308 29.2766 208.422 29.1556C208.543 29.0271 208.698 28.9628 208.887 28.9628C209.06 28.9628 209.208 29.0271 209.329 29.1556C209.45 29.2766 209.51 29.4353 209.51 29.6319C209.51 29.8209 209.45 29.9796 209.329 30.1082C209.208 30.2367 209.06 30.301 208.887 30.301ZM210.748 22.102H212.494C213.281 22.102 213.893 22.291 214.332 22.669C214.778 23.047 215.001 23.6367 215.001 24.4381C215.001 25.0429 214.891 25.5343 214.672 25.9123C214.46 26.2903 214.161 26.5662 213.776 26.7401C213.39 26.914 212.948 27.001 212.449 27.001H211.689V30.2329H210.748V22.102ZM212.449 26.1391C212.94 26.1391 213.33 26.0106 213.617 25.7535C213.912 25.4889 214.059 25.0542 214.059 24.4494C214.059 23.9353 213.923 23.5611 213.651 23.3267C213.379 23.0848 212.993 22.9638 212.494 22.9638H211.689V26.1391H212.449ZM216.143 29.337C216.203 29.3446 216.271 29.3522 216.347 29.3597C216.423 29.3597 216.502 29.3597 216.585 29.3597C216.88 29.3597 217.126 29.2766 217.322 29.1102C217.526 28.9363 217.696 28.6642 217.833 28.2937L215.565 22.102H216.608L218.298 26.8762L219.738 22.102H220.69L218.796 28.0329C218.539 28.8343 218.245 29.4051 217.912 29.7453C217.587 30.0779 217.16 30.2443 216.631 30.2443C216.532 30.2443 216.445 30.2405 216.37 30.2329C216.302 30.2329 216.226 30.2291 216.143 30.2216V29.337ZM220.869 30.301C220.68 30.301 220.525 30.2367 220.404 30.1082C220.291 29.9796 220.234 29.8209 220.234 29.6319C220.234 29.4353 220.291 29.2766 220.404 29.1556C220.525 29.0271 220.68 28.9628 220.869 28.9628C221.043 28.9628 221.19 29.0271 221.311 29.1556C221.432 29.2766 221.493 29.4353 221.493 29.6319C221.493 29.8209 221.432 29.9796 221.311 30.1082C221.19 30.2367 221.043 30.301 220.869 30.301ZM224.491 22.102H225.433V25.7649H228.392V22.102H229.345V30.2329H228.392V26.6381H225.433V30.2329H224.491V22.102ZM230.782 22.102H234.66V22.9752H231.723V25.5607H234.206V26.4226H231.723V29.3597H234.705V30.2329H230.782V22.102ZM0.442669 35.4948C0.442669 34.6858 0.658133 34.0848 1.08906 33.6917C1.51999 33.2985 2.10212 33.102 2.83545 33.102H4.81999V41.2329H3.87875V37.9216H2.79009L1.06638 41.2329H0.000400702L1.87153 37.7174C1.39525 37.5738 1.03614 37.3205 0.794215 36.9577C0.559851 36.5948 0.442669 36.1071 0.442669 35.4948ZM2.75607 37.0597H3.87875V33.9638H2.83545C2.3894 33.9638 2.03786 34.081 1.78081 34.3154C1.52377 34.5497 1.39525 34.9504 1.39525 35.5174C1.39525 36.0467 1.50865 36.436 1.73545 36.6855C1.96982 36.935 2.31002 37.0597 2.75607 37.0597ZM6.26994 33.102H8.12973C8.89331 33.102 9.47922 33.2532 9.88747 33.5556C10.3033 33.858 10.5112 34.3683 10.5112 35.0865C10.5112 35.6686 10.3751 36.1109 10.1029 36.4133C9.83832 36.7082 9.49056 36.9085 9.05963 37.0144C9.5964 37.0975 10.0084 37.2865 10.2957 37.5814C10.583 37.8762 10.7266 38.3147 10.7266 38.8968C10.7266 39.4563 10.6095 39.9099 10.3751 40.2577C10.1483 40.5979 9.83454 40.8473 9.43386 41.0061C9.04073 41.1573 8.59846 41.2329 8.10705 41.2329H6.26994V33.102ZM8.12973 36.6288C8.5531 36.6288 8.89709 36.5154 9.16169 36.2886C9.4263 36.0542 9.5586 35.6762 9.5586 35.1546C9.5586 34.7161 9.43764 34.4099 9.19571 34.236C8.95379 34.0546 8.61358 33.9638 8.17509 33.9638H7.21118V36.6288H8.12973ZM8.16375 40.3711C8.63248 40.3711 9.01049 40.2652 9.29778 40.0535C9.59262 39.8418 9.74004 39.4638 9.74004 38.9195C9.74004 38.3979 9.60396 38.0312 9.3318 37.8195C9.05963 37.6003 8.64382 37.4906 8.08437 37.4906H7.21118V40.3711H8.16375ZM11.3401 40.2917C11.7105 40.3144 11.9638 40.235 12.0999 40.0535C12.2435 39.8645 12.3418 39.5243 12.3947 39.0329C12.425 38.7683 12.4476 38.4772 12.4628 38.1597C12.4854 37.8346 12.5043 37.4491 12.5195 37.003C12.5346 36.557 12.5459 36.0202 12.5535 35.3927C12.561 34.7577 12.5648 33.9941 12.5648 33.102H16.5566V41.2329H15.6153V33.9752H13.4494C13.4418 35.2377 13.4267 36.281 13.404 37.1051C13.3813 37.9216 13.3435 38.5869 13.2906 39.101C13.215 39.9023 13.0222 40.4731 12.7122 40.8133C12.4023 41.1535 11.9449 41.3085 11.3401 41.2783V40.2917ZM17.9181 35.4948C17.9181 34.6858 18.1336 34.0848 18.5645 33.6917C18.9954 33.2985 19.5776 33.102 20.3109 33.102H22.2954V41.2329H21.3542V37.9216H20.2655L18.5418 41.2329H17.4758L19.347 37.7174C18.8707 37.5738 18.5116 37.3205 18.2697 36.9577C18.0353 36.5948 17.9181 36.1071 17.9181 35.4948ZM20.2315 37.0597H21.3542V33.9638H20.3109C19.8648 33.9638 19.5133 34.081 19.2562 34.3154C18.9992 34.5497 18.8707 34.9504 18.8707 35.5174C18.8707 36.0467 18.9841 36.436 19.2109 36.6855C19.4453 36.935 19.7855 37.0597 20.2315 37.0597ZM23.7454 33.102H27.6237V33.9752H24.6866V36.5607H27.1701V37.4226H24.6866V40.3597H27.6691V41.2329H23.7454V33.102ZM28.4081 33.9752V33.102H33.4319V33.9752H31.3906V41.2329H30.4494V33.9752H28.4081ZM36.7098 41.3463C35.7497 41.3463 35.005 40.9759 34.4758 40.235C33.9541 39.4941 33.6933 38.4735 33.6933 37.1731C33.6933 35.8652 33.9541 34.8446 34.4758 34.1113C34.9974 33.3704 35.7534 32.9999 36.7438 32.9999C37.4847 32.9999 38.0895 33.1889 38.5583 33.5669V34.4855C38.3239 34.2889 38.0442 34.1377 37.7191 34.0319C37.394 33.9185 37.0727 33.8618 36.7552 33.8618C36.0369 33.8618 35.5153 34.1415 35.1902 34.701C34.8651 35.2604 34.7026 36.0845 34.7026 37.1731C34.7026 38.2618 34.8727 39.0858 35.2129 39.6453C35.5607 40.2047 36.0974 40.4845 36.8232 40.4845C37.4583 40.4845 38.0366 40.2463 38.5583 39.77V40.6886C38.3617 40.8851 38.0933 41.0439 37.7531 41.1649C37.4205 41.2858 37.0727 41.3463 36.7098 41.3463ZM39.6683 35.4948C39.6683 34.6858 39.8837 34.0848 40.3147 33.6917C40.7456 33.2985 41.3277 33.102 42.061 33.102H44.0456V41.2329H43.1043V37.9216H42.0157L40.292 41.2329H39.226L41.0971 37.7174C40.6208 37.5738 40.2617 37.3205 40.0198 36.9577C39.7854 36.5948 39.6683 36.1071 39.6683 35.4948ZM41.9817 37.0597H43.1043V33.9638H42.061C41.615 33.9638 41.2635 34.081 41.0064 34.3154C40.7494 34.5497 40.6208 34.9504 40.6208 35.5174C40.6208 36.0467 40.7342 36.436 40.961 36.6855C41.1954 36.935 41.5356 37.0597 41.9817 37.0597ZM49.7512 41.3463C48.8667 41.3463 48.1711 40.9834 47.6646 40.2577C47.1656 39.5243 46.9162 38.4848 46.9162 37.1391C46.9162 35.7858 47.1656 34.7577 47.6646 34.0546C48.1711 33.3515 48.8667 32.9999 49.7512 32.9999C50.6433 32.9999 51.3388 33.3552 51.8378 34.0659C52.3368 34.769 52.5863 35.7972 52.5863 37.1504C52.5863 38.4886 52.3368 39.5243 51.8378 40.2577C51.3388 40.9834 50.6433 41.3463 49.7512 41.3463ZM49.7512 40.4845C50.3258 40.4845 50.7756 40.2236 51.1007 39.702C51.4258 39.1803 51.5883 38.3374 51.5883 37.1731C51.5883 36.0013 51.4258 35.1583 51.1007 34.6443C50.7756 34.1226 50.3258 33.8618 49.7512 33.8618C49.1766 33.8618 48.7268 34.1226 48.4017 34.6443C48.0766 35.1583 47.9141 36.0013 47.9141 37.1731C47.9141 38.3374 48.0766 39.1803 48.4017 39.702C48.7268 40.2236 49.1766 40.4845 49.7512 40.4845ZM53.9232 41.2329V33.102H54.8644V40.3711H57.6768V33.102H58.618V40.3711H59.4685V42.8432H58.6294L58.5386 41.2329H53.9232ZM60.5124 33.102H64.3908V33.9752H61.4537V36.5607H63.9372V37.4226H61.4537V40.3597H64.4362V41.2329H60.5124V33.102ZM65.6842 33.102H66.6254V36.7649H69.5852V33.102H70.5378V41.2329H69.5852V37.6381H66.6254V41.2329H65.6842V33.102ZM74.4693 41.3463C73.5848 41.3463 72.8893 40.9834 72.3827 40.2577C71.8838 39.5243 71.6343 38.4848 71.6343 37.1391C71.6343 35.7858 71.8838 34.7577 72.3827 34.0546C72.8893 33.3515 73.5848 32.9999 74.4693 32.9999C75.3614 32.9999 76.057 33.3552 76.5559 34.0659C77.0549 34.769 77.3044 35.7972 77.3044 37.1504C77.3044 38.4886 77.0549 39.5243 76.5559 40.2577C76.057 40.9834 75.3614 41.3463 74.4693 41.3463ZM74.4693 40.4845C75.0439 40.4845 75.4937 40.2236 75.8188 39.702C76.1439 39.1803 76.3064 38.3374 76.3064 37.1731C76.3064 36.0013 76.1439 35.1583 75.8188 34.6443C75.4937 34.1226 75.0439 33.8618 74.4693 33.8618C73.8948 33.8618 73.4449 34.1226 73.1198 34.6443C72.7948 35.1583 72.6322 36.0013 72.6322 37.1731C72.6322 38.3374 72.7948 39.1803 73.1198 39.702C73.4449 40.2236 73.8948 40.4845 74.4693 40.4845ZM78.3064 35.7783V33.102H79.2476V35.6989C79.2476 36.2508 79.3572 36.6741 79.5765 36.969C79.8033 37.2563 80.1662 37.3999 80.6651 37.3999C80.9222 37.3999 81.1603 37.3583 81.3796 37.2752C81.6064 37.192 81.8105 37.0559 81.992 36.8669V33.102H82.9332V41.2329H81.992V37.6721C81.5535 38.035 81.0394 38.2164 80.4497 38.2164C79.7844 38.2164 79.259 38.0161 78.8734 37.6154C78.4954 37.2071 78.3064 36.5948 78.3064 35.7783ZM84.3889 33.102H85.3301V36.7649H88.2899V33.102H89.2425V41.2329H88.2899V37.6381H85.3301V41.2329H84.3889V33.102ZM93.174 41.3463C92.2895 41.3463 91.5939 40.9834 91.0874 40.2577C90.5885 39.5243 90.339 38.4848 90.339 37.1391C90.339 35.7858 90.5885 34.7577 91.0874 34.0546C91.5939 33.3515 92.2895 32.9999 93.174 32.9999C94.0661 32.9999 94.7616 33.3552 95.2606 34.0659C95.7596 34.769 96.0091 35.7972 96.0091 37.1504C96.0091 38.4886 95.7596 39.5243 95.2606 40.2577C94.7616 40.9834 94.0661 41.3463 93.174 41.3463ZM93.174 40.4845C93.7486 40.4845 94.1984 40.2236 94.5235 39.702C94.8486 39.1803 95.0111 38.3374 95.0111 37.1731C95.0111 36.0013 94.8486 35.1583 94.5235 34.6443C94.1984 34.1226 93.7486 33.8618 93.174 33.8618C92.5994 33.8618 92.1496 34.1226 91.8245 34.6443C91.4994 35.1583 91.3369 36.0013 91.3369 37.1731C91.3369 38.3374 91.4994 39.1803 91.8245 39.702C92.1496 40.2236 92.5994 40.4845 93.174 40.4845ZM99.8522 32.6484C99.3532 32.6484 98.9827 32.4934 98.7408 32.1834C98.4989 31.8659 98.3779 31.4803 98.3779 31.0267H99.2171C99.2171 31.3669 99.2738 31.6126 99.3872 31.7638C99.5082 31.9075 99.6632 31.9793 99.8522 31.9793C100.049 31.9793 100.204 31.9075 100.317 31.7638C100.438 31.6126 100.499 31.3669 100.499 31.0267H101.326C101.326 31.4803 101.205 31.8659 100.964 32.1834C100.722 32.4934 100.351 32.6484 99.8522 32.6484ZM98.3439 41.2329H97.346V33.102H98.2872V39.5772L101.36 33.102H102.358V41.2329H101.417V34.7577L98.3439 41.2329ZM104.962 40.3711H105.472C105.593 40.1972 105.695 39.9968 105.778 39.77C105.869 39.5432 105.941 39.2597 105.994 38.9195C106.054 38.5717 106.1 38.1408 106.13 37.6267C106.168 37.1126 106.194 36.4889 106.209 35.7556C106.232 35.0147 106.251 34.1302 106.266 33.102H110.428V40.3711H111.278V42.8432H110.439L110.348 41.2329H105.88L105.79 42.8432H104.962V40.3711ZM106.481 40.3711H109.487V33.9752H107.139C107.132 35.026 107.113 35.9144 107.083 36.6401C107.06 37.3583 107.022 37.9556 106.969 38.4319C106.924 38.9006 106.859 39.29 106.776 39.5999C106.701 39.9023 106.602 40.1594 106.481 40.3711ZM112.319 33.102H116.197V33.9752H113.26V36.5607H115.743V37.4226H113.26V40.3597H116.242V41.2329H112.319V33.102ZM117.4 35.4948C117.4 34.6858 117.615 34.0848 118.046 33.6917C118.477 33.2985 119.059 33.102 119.792 33.102H121.777V41.2329H120.836V37.9216H119.747L118.023 41.2329H116.957L118.828 37.7174C118.352 37.5738 117.993 37.3205 117.751 36.9577C117.517 36.5948 117.4 36.1071 117.4 35.4948ZM119.713 37.0597H120.836V33.9638H119.792C119.346 33.9638 118.995 34.081 118.738 34.3154C118.481 34.5497 118.352 34.9504 118.352 35.5174C118.352 36.0467 118.466 36.436 118.692 36.6855C118.927 36.935 119.267 37.0597 119.713 37.0597ZM122.773 33.9752V33.102H127.797V33.9752H125.756V41.2329H124.815V33.9752H122.773ZM128.797 33.102H132.676V33.9752H129.739V36.5607H132.222V37.4226H129.739V40.3597H132.721V41.2329H128.797V33.102ZM133.413 40.2917C133.784 40.3144 134.037 40.235 134.173 40.0535C134.317 39.8645 134.415 39.5243 134.468 39.0329C134.498 38.7683 134.521 38.4772 134.536 38.1597C134.559 37.8346 134.578 37.4491 134.593 37.003C134.608 36.557 134.619 36.0202 134.627 35.3927C134.634 34.7577 134.638 33.9941 134.638 33.102H138.63V41.2329H137.689V33.9752H135.523C135.515 35.2377 135.5 36.281 135.477 37.1051C135.455 37.9216 135.417 38.5869 135.364 39.101C135.288 39.9023 135.096 40.4731 134.786 40.8133C134.476 41.1535 134.018 41.3085 133.413 41.2783V40.2917ZM140.082 41.2329V33.102H141.023V36.1752H141.942C142.728 36.1752 143.341 36.3755 143.779 36.7762C144.225 37.1693 144.448 37.7741 144.448 38.5906C144.448 39.2106 144.339 39.7171 144.119 40.1102C143.908 40.4958 143.609 40.7793 143.223 40.9607C142.838 41.1422 142.396 41.2329 141.897 41.2329H140.082ZM141.897 40.3711C142.388 40.3711 142.777 40.235 143.065 39.9628C143.359 39.6831 143.507 39.2295 143.507 38.602C143.507 38.0728 143.371 37.6796 143.099 37.4226C142.826 37.1656 142.441 37.037 141.942 37.037H141.023V40.3711H141.897ZM145.586 33.102H146.527V36.7649H149.487V33.102H150.44V41.2329H149.487V37.6381H146.527V41.2329H145.586V33.102ZM154.371 41.3463C153.487 41.3463 152.791 40.9834 152.285 40.2577C151.786 39.5243 151.536 38.4848 151.536 37.1391C151.536 35.7858 151.786 34.7577 152.285 34.0546C152.791 33.3515 153.487 32.9999 154.371 32.9999C155.263 32.9999 155.959 33.3552 156.458 34.0659C156.957 34.769 157.206 35.7972 157.206 37.1504C157.206 38.4886 156.957 39.5243 156.458 40.2577C155.959 40.9834 155.263 41.3463 154.371 41.3463ZM154.371 40.4845C154.946 40.4845 155.396 40.2236 155.721 39.702C156.046 39.1803 156.208 38.3374 156.208 37.1731C156.208 36.0013 156.046 35.1583 155.721 34.6443C155.396 34.1226 154.946 33.8618 154.371 33.8618C153.797 33.8618 153.347 34.1226 153.022 34.6443C152.697 35.1583 152.534 36.0013 152.534 37.1731C152.534 38.3374 152.697 39.1803 153.022 39.702C153.347 40.2236 153.797 40.4845 154.371 40.4845ZM161.22 41.3463C160.259 41.3463 159.515 40.9759 158.985 40.235C158.464 39.4941 158.203 38.4735 158.203 37.1731C158.203 35.8652 158.464 34.8446 158.985 34.1113C159.507 33.3704 160.263 32.9999 161.254 32.9999C161.994 32.9999 162.599 33.1889 163.068 33.5669V34.4855C162.834 34.2889 162.554 34.1377 162.229 34.0319C161.904 33.9185 161.582 33.8618 161.265 33.8618C160.547 33.8618 160.025 34.1415 159.7 34.701C159.375 35.2604 159.212 36.0845 159.212 37.1731C159.212 38.2618 159.382 39.0858 159.723 39.6453C160.07 40.2047 160.607 40.4845 161.333 40.4845C161.968 40.4845 162.546 40.2463 163.068 39.77V40.6886C162.871 40.8851 162.603 41.0439 162.263 41.1649C161.93 41.2858 161.582 41.3463 161.22 41.3463ZM163.87 33.9752V33.102H168.894V33.9752H166.853V41.2329H165.912V33.9752H163.87ZM169.895 41.2329V33.102H170.836V36.1752H171.754C172.541 36.1752 173.153 36.3755 173.591 36.7762C174.037 37.1693 174.26 37.7741 174.26 38.5906C174.26 39.2106 174.151 39.7171 173.932 40.1102C173.72 40.4958 173.421 40.7793 173.036 40.9607C172.65 41.1422 172.208 41.2329 171.709 41.2329H169.895ZM171.709 40.3711C172.2 40.3711 172.59 40.235 172.877 39.9628C173.172 39.6831 173.319 39.2295 173.319 38.602C173.319 38.0728 173.183 37.6796 172.911 37.4226C172.639 37.1656 172.253 37.037 171.754 37.037H170.836V40.3711H171.709ZM180.195 41.3463C179.696 41.3463 179.243 41.2178 178.835 40.9607C178.426 40.7037 178.094 40.303 177.837 39.7587C177.587 39.2144 177.444 38.5075 177.406 37.6381H176.34V41.2329H175.398V33.102H176.34V36.7649H177.406C177.444 35.8879 177.587 35.1735 177.837 34.6216C178.094 34.0697 178.426 33.6614 178.835 33.3968C179.243 33.1322 179.696 32.9999 180.195 32.9999C180.717 32.9999 181.19 33.1436 181.613 33.4308C182.036 33.7106 182.369 34.1566 182.611 34.769C182.86 35.3738 182.985 36.1638 182.985 37.1391C182.985 38.1144 182.86 38.9119 182.611 39.5319C182.369 40.1518 182.036 40.6092 181.613 40.904C181.19 41.1989 180.717 41.3463 180.195 41.3463ZM180.195 40.4845C180.543 40.4845 180.849 40.3862 181.114 40.1896C181.386 39.993 181.602 39.6566 181.76 39.1803C181.919 38.6965 181.998 38.0274 181.998 37.1731C181.998 36.3188 181.919 35.6535 181.76 35.1772C181.602 34.6934 181.386 34.3532 181.114 34.1566C180.849 33.9601 180.543 33.8618 180.195 33.8618C179.855 33.8618 179.549 33.9601 179.277 34.1566C179.005 34.3532 178.789 34.6934 178.63 35.1772C178.479 35.6535 178.404 36.3188 178.404 37.1731C178.404 38.0274 178.479 38.6965 178.63 39.1803C178.789 39.6566 179.005 39.993 179.277 40.1896C179.549 40.3862 179.855 40.4845 180.195 40.4845ZM184.08 41.301C183.891 41.301 183.736 41.2367 183.615 41.1082C183.502 40.9796 183.445 40.8209 183.445 40.6319C183.445 40.4353 183.502 40.2766 183.615 40.1556C183.736 40.0271 183.891 39.9628 184.08 39.9628C184.254 39.9628 184.401 40.0271 184.522 40.1556C184.643 40.2766 184.704 40.4353 184.704 40.6319C184.704 40.8209 184.643 40.9796 184.522 41.1082C184.401 41.2367 184.254 41.301 184.08 41.301Z" fill="white"/>
</svg>
