<svg width="239" height="43" viewBox="0 0 239 43" fill="none" xmlns="http://www.w3.org/2000/svg">
<path opacity="0.6" d="M4.1386 7.45092H3.23138L2.09736 5.23958L3.23138 3.02824H4.1386L3.00458 5.23958L4.1386 7.45092ZM2.25613 7.45092H1.34891L0.214888 5.23958L1.34891 3.02824H2.25613L1.13344 5.23958L2.25613 7.45092ZM10.1731 8.2334H9.19784L8.59681 5.84061H6.15866L5.53495 8.2334H4.67309L6.81639 0.102471H8.06382L10.1731 8.2334ZM6.37413 5.00144H8.38134L7.39474 1.10041L6.37413 5.00144ZM11.2525 0.102471H13.1122C13.8758 0.102471 14.4617 0.253673 14.87 0.556078C15.2858 0.858484 15.4937 1.36879 15.4937 2.08701C15.4937 2.66914 15.3576 3.11141 15.0854 3.41381C14.8208 3.70866 14.4731 3.909 14.0421 4.01484C14.5789 4.098 14.9909 4.28701 15.2782 4.58185C15.5655 4.8767 15.7092 5.31519 15.7092 5.89732C15.7092 6.45677 15.592 6.91037 15.3576 7.25814C15.1308 7.59835 14.8171 7.84783 14.4164 8.00659C14.0232 8.1578 13.581 8.2334 13.0896 8.2334H11.2525V0.102471ZM13.1122 3.62927C13.5356 3.62927 13.8796 3.51587 14.1442 3.28907C14.4088 3.0547 14.5411 2.6767 14.5411 2.15505C14.5411 1.71656 14.4201 1.41037 14.1782 1.23649C13.9363 1.05505 13.5961 0.964326 13.1576 0.964326H12.1937V3.62927H13.1122ZM13.1463 7.37154C13.615 7.37154 13.993 7.2657 14.2803 7.05402C14.5751 6.84233 14.7226 6.46433 14.7226 5.92C14.7226 5.39835 14.5865 5.03168 14.3143 4.82C14.0421 4.60075 13.6263 4.49113 13.0669 4.49113H12.1937V7.37154H13.1463ZM16.2032 0.975666V0.102471H21.2269V0.975666H19.1856V8.2334H18.2444V0.975666H16.2032ZM24.3234 8.3468C23.4388 8.3468 22.7433 7.98391 22.2368 7.25814C21.7378 6.52481 21.4883 5.48529 21.4883 4.13958C21.4883 2.78632 21.7378 1.75814 22.2368 1.05505C22.7433 0.351955 23.4388 0.000408651 24.3234 0.000408651C25.2155 0.000408651 25.911 0.355735 26.41 1.06639C26.9089 1.76948 27.1584 2.79766 27.1584 4.15092C27.1584 5.48907 26.9089 6.52481 26.41 7.25814C25.911 7.98391 25.2155 8.3468 24.3234 8.3468ZM24.3234 7.48494C24.8979 7.48494 25.3478 7.22412 25.6729 6.70247C25.9979 6.18082 26.1605 5.33787 26.1605 4.1736C26.1605 3.00178 25.9979 2.15883 25.6729 1.64474C25.3478 1.12309 24.8979 0.862264 24.3234 0.862264C23.7488 0.862264 23.299 1.12309 22.9739 1.64474C22.6488 2.15883 22.4863 3.00178 22.4863 4.1736C22.4863 5.33787 22.6488 6.18082 22.9739 6.70247C23.299 7.22412 23.7488 7.48494 24.3234 7.48494ZM28.4722 8.30144C28.2832 8.30144 28.1282 8.23718 28.0073 8.10866C27.8939 7.98013 27.8371 7.82137 27.8371 7.63237C27.8371 7.4358 27.8939 7.27704 28.0073 7.15608C28.1282 7.02756 28.2832 6.9633 28.4722 6.9633C28.6461 6.9633 28.7935 7.02756 28.9145 7.15608C29.0354 7.27704 29.0959 7.4358 29.0959 7.63237C29.0959 7.82137 29.0354 7.98013 28.9145 8.10866C28.7935 8.23718 28.6461 8.30144 28.4722 8.30144ZM30.3337 0.102471H32.0801C32.8663 0.102471 33.4787 0.291474 33.9172 0.66948C34.3632 1.04749 34.5863 1.63718 34.5863 2.43855C34.5863 3.04336 34.4766 3.53477 34.2574 3.91278C34.0457 4.29079 33.7471 4.56673 33.3615 4.74061C32.9759 4.9145 32.5337 5.00144 32.0347 5.00144H31.2749V8.2334H30.3337V0.102471ZM32.0347 4.13958C32.5261 4.13958 32.9155 4.01106 33.2027 3.75402C33.4976 3.48941 33.645 3.0547 33.645 2.44989C33.645 1.9358 33.5089 1.56158 33.2368 1.32721C32.9646 1.08529 32.579 0.964326 32.0801 0.964326H31.2749V4.13958H32.0347ZM35.7285 7.33752C35.789 7.34508 35.857 7.35264 35.9326 7.3602C36.0082 7.3602 36.0876 7.3602 36.1708 7.3602C36.4656 7.3602 36.7113 7.27704 36.9079 7.11072C37.112 6.93683 37.2821 6.66467 37.4182 6.29422L35.1502 0.102471H36.1935L37.8832 4.8767L39.3234 0.102471H40.2759L38.3821 6.0334C38.1251 6.83477 37.8302 7.40556 37.4976 7.74577C37.1725 8.07842 36.7454 8.24474 36.2161 8.24474C36.1179 8.24474 36.0309 8.24096 35.9553 8.2334C35.8873 8.2334 35.8117 8.22962 35.7285 8.22206V7.33752ZM45.4091 8.3468C44.5245 8.3468 43.829 7.98391 43.3225 7.25814C42.8235 6.52481 42.574 5.48529 42.574 4.13958C42.574 2.78632 42.8235 1.75814 43.3225 1.05505C43.829 0.351955 44.5245 0.000408651 45.4091 0.000408651C46.3012 0.000408651 46.9967 0.355735 47.4957 1.06639C47.9946 1.76948 48.2441 2.79766 48.2441 4.15092C48.2441 5.48907 47.9946 6.52481 47.4957 7.25814C46.9967 7.98391 46.3012 8.3468 45.4091 8.3468ZM45.4091 7.48494C45.9836 7.48494 46.4335 7.22412 46.7585 6.70247C47.0836 6.18082 47.2462 5.33787 47.2462 4.1736C47.2462 3.00178 47.0836 2.15883 46.7585 1.64474C46.4335 1.12309 45.9836 0.862264 45.4091 0.862264C44.8345 0.862264 44.3847 1.12309 44.0596 1.64474C43.7345 2.15883 43.572 3.00178 43.572 4.1736C43.572 5.33787 43.7345 6.18082 44.0596 6.70247C44.3847 7.22412 44.8345 7.48494 45.4091 7.48494ZM49.581 8.2334V0.102471H50.5223V7.37154H53.3346V0.102471H54.2759V7.37154H55.1264V9.84371H54.2872L54.1965 8.2334H49.581ZM56.1703 0.102471H60.0487V0.975666H57.1115V3.56123H59.595V4.42309H57.1115V7.3602H60.094V8.2334H56.1703V0.102471ZM61.3421 0.102471H62.2833V3.76536H65.2431V0.102471H66.1957V8.2334H65.2431V4.63855H62.2833V8.2334H61.3421V0.102471ZM72.4066 8.2334H71.2725L69.356 4.63855H68.5736V8.2334H67.6323V0.102471H68.5736V3.7767H69.356L71.2725 0.102471H72.3158L70.1839 4.12824L72.4066 8.2334ZM78.2586 8.2334H77.2834L76.6823 5.84061H74.2442L73.6205 8.2334H72.7586L74.9019 0.102471H76.1493L78.2586 8.2334ZM74.4597 5.00144H76.4669L75.4803 1.10041L74.4597 5.00144ZM80.8349 7.45092L81.9576 5.23958L80.8349 3.02824H81.7421L82.8761 5.23958L81.7421 7.45092H80.8349ZM78.9524 7.45092L80.0864 5.23958L78.9524 3.02824H79.8596L80.9937 5.23958L79.8596 7.45092H78.9524ZM85.7501 0.102471H90.4449V8.2334H89.5037V0.975666H86.6913V8.2334H85.7501V0.102471ZM94.3912 8.3468C93.5067 8.3468 92.8112 7.98391 92.3046 7.25814C91.8057 6.52481 91.5562 5.48529 91.5562 4.13958C91.5562 2.78632 91.8057 1.75814 92.3046 1.05505C92.8112 0.351955 93.5067 0.000408651 94.3912 0.000408651C95.2833 0.000408651 95.9789 0.355735 96.4778 1.06639C96.9768 1.76948 97.2263 2.79766 97.2263 4.15092C97.2263 5.48907 96.9768 6.52481 96.4778 7.25814C95.9789 7.98391 95.2833 8.3468 94.3912 8.3468ZM94.3912 7.48494C94.9658 7.48494 95.4156 7.22412 95.7407 6.70247C96.0658 6.18082 96.2283 5.33787 96.2283 4.1736C96.2283 3.00178 96.0658 2.15883 95.7407 1.64474C95.4156 1.12309 94.9658 0.862264 94.3912 0.862264C93.8167 0.862264 93.3668 1.12309 93.0417 1.64474C92.7167 2.15883 92.5541 3.00178 92.5541 4.1736C92.5541 5.33787 92.7167 6.18082 93.0417 6.70247C93.3668 7.22412 93.8167 7.48494 94.3912 7.48494ZM103.337 8.2334H102.203L100.287 4.63855H99.5044V8.2334H98.5632V0.102471H99.5044V3.7767H100.287L102.203 0.102471H103.247L101.115 4.12824L103.337 8.2334ZM109.189 8.2334H108.214L107.613 5.84061H105.175L104.551 8.2334H103.689L105.833 0.102471H107.08L109.189 8.2334ZM105.391 5.00144H107.398L106.411 1.10041L105.391 5.00144ZM111.744 8.3468C111.102 8.3468 110.505 8.18426 109.953 7.85917V6.94061C110.27 7.12962 110.569 7.26948 110.849 7.3602C111.136 7.44336 111.431 7.48494 111.733 7.48494C112.005 7.48494 112.258 7.4358 112.493 7.33752C112.735 7.23924 112.928 7.0767 113.071 6.84989C113.222 6.61553 113.298 6.30556 113.298 5.92C113.298 5.39079 113.169 5.01656 112.912 4.79732C112.655 4.57807 112.266 4.46845 111.744 4.46845H111.03V3.65195H111.744C112.183 3.65195 112.519 3.52343 112.754 3.26639C112.988 3.00934 113.105 2.63512 113.105 2.14371C113.105 1.68254 112.984 1.35367 112.742 1.15711C112.508 0.960546 112.206 0.862264 111.835 0.862264C111.268 0.862264 110.667 1.04371 110.032 1.40659V0.488037C110.607 0.162952 111.223 0.000408651 111.88 0.000408651C112.538 0.000408651 113.064 0.170512 113.457 0.510717C113.857 0.850924 114.058 1.35745 114.058 2.03031C114.058 2.56708 113.933 3.00178 113.684 3.33443C113.442 3.65952 113.101 3.88254 112.663 4.0035C113.177 4.08666 113.574 4.28323 113.854 4.59319C114.133 4.90316 114.273 5.33787 114.273 5.89732C114.273 6.47189 114.156 6.94061 113.922 7.3035C113.687 7.66639 113.377 7.93099 112.992 8.09732C112.606 8.26364 112.19 8.3468 111.744 8.3468ZM115.43 8.2334V0.102471H116.371V3.17567H117.289C118.076 3.17567 118.688 3.37601 119.126 3.7767C119.572 4.16982 119.796 4.77464 119.796 5.59113C119.796 6.21106 119.686 6.71759 119.467 7.11072C119.255 7.49629 118.956 7.77979 118.571 7.96123C118.185 8.14268 117.743 8.2334 117.244 8.2334H115.43ZM120.521 0.113811H121.463V8.2334H120.521V0.113811ZM117.244 7.37154C117.735 7.37154 118.125 7.23546 118.412 6.9633C118.707 6.68357 118.854 6.22996 118.854 5.60247C118.854 5.07326 118.718 4.68013 118.446 4.42309C118.174 4.16604 117.788 4.03752 117.289 4.03752H116.371V7.37154H117.244ZM122.916 0.102471H124.776C125.539 0.102471 126.125 0.253673 126.533 0.556078C126.949 0.858484 127.157 1.36879 127.157 2.08701C127.157 2.66914 127.021 3.11141 126.749 3.41381C126.484 3.70866 126.136 3.909 125.706 4.01484C126.242 4.098 126.654 4.28701 126.942 4.58185C127.229 4.8767 127.373 5.31519 127.373 5.89732C127.373 6.45677 127.255 6.91037 127.021 7.25814C126.794 7.59835 126.48 7.84783 126.08 8.00659C125.687 8.1578 125.244 8.2334 124.753 8.2334H122.916V0.102471ZM124.776 3.62927C125.199 3.62927 125.543 3.51587 125.808 3.28907C126.072 3.0547 126.204 2.6767 126.204 2.15505C126.204 1.71656 126.084 1.41037 125.842 1.23649C125.6 1.05505 125.259 0.964326 124.821 0.964326H123.857V3.62927H124.776ZM124.81 7.37154C125.278 7.37154 125.656 7.2657 125.944 7.05402C126.239 6.84233 126.386 6.46433 126.386 5.92C126.386 5.39835 126.25 5.03168 125.978 4.82C125.706 4.60075 125.29 4.49113 124.73 4.49113H123.857V7.37154H124.81ZM133.354 8.2334H132.379L131.778 5.84061H129.339L128.716 8.2334H127.854L129.997 0.102471H131.245L133.354 8.2334ZM129.555 5.00144H131.562L130.576 1.10041L129.555 5.00144ZM134.433 0.102471H138.312V0.975666H135.374V3.56123H137.858V4.42309H135.374V7.3602H138.357V8.2334H134.433V0.102471ZM139.096 0.975666V0.102471H144.12V0.975666H142.078V8.2334H141.137V0.975666H139.096ZM149.376 8.3468C148.491 8.3468 147.796 7.98391 147.289 7.25814C146.79 6.52481 146.541 5.48529 146.541 4.13958C146.541 2.78632 146.79 1.75814 147.289 1.05505C147.796 0.351955 148.491 0.000408651 149.376 0.000408651C150.268 0.000408651 150.963 0.355735 151.462 1.06639C151.961 1.76948 152.211 2.79766 152.211 4.15092C152.211 5.48907 151.961 6.52481 151.462 7.25814C150.963 7.98391 150.268 8.3468 149.376 8.3468ZM149.376 7.48494C149.95 7.48494 150.4 7.22412 150.725 6.70247C151.05 6.18082 151.213 5.33787 151.213 4.1736C151.213 3.00178 151.05 2.15883 150.725 1.64474C150.4 1.12309 149.95 0.862264 149.376 0.862264C148.801 0.862264 148.351 1.12309 148.026 1.64474C147.701 2.15883 147.539 3.00178 147.539 4.1736C147.539 5.33787 147.701 6.18082 148.026 6.70247C148.351 7.22412 148.801 7.48494 149.376 7.48494ZM153.548 0.102471H155.294C156.08 0.102471 156.693 0.291474 157.131 0.66948C157.577 1.04749 157.8 1.63718 157.8 2.43855C157.8 3.04336 157.691 3.53477 157.471 3.91278C157.26 4.29079 156.961 4.56673 156.576 4.74061C156.19 4.9145 155.748 5.00144 155.249 5.00144H154.489V8.2334H153.548V0.102471ZM155.249 4.13958C155.74 4.13958 156.129 4.01106 156.417 3.75402C156.712 3.48941 156.859 3.0547 156.859 2.44989C156.859 1.9358 156.723 1.56158 156.451 1.32721C156.179 1.08529 155.793 0.964326 155.294 0.964326H154.489V4.13958H155.249ZM159.872 8.2334H158.874V0.102471H159.816V6.57773L162.889 0.102471H163.887V8.2334H162.946V1.75814L159.872 8.2334ZM165.342 0.102471H169.22V0.975666H166.283V3.56123H168.767V4.42309H166.283V7.3602H169.266V8.2334H165.342V0.102471ZM170.514 0.102471H171.455V3.76536H174.415V0.102471H175.367V8.2334H174.415V4.63855H171.455V8.2334H170.514V0.102471ZM176.35 0.975666V0.102471H181.374V0.975666H179.333V8.2334H178.392V0.975666H176.35ZM183.372 8.2334H182.374V0.102471H183.316V6.57773L186.389 0.102471H187.387V8.2334H186.446V1.75814L183.372 8.2334ZM188.842 0.102471H190.588C191.374 0.102471 191.987 0.291474 192.425 0.66948C192.871 1.04749 193.094 1.63718 193.094 2.43855C193.094 3.04336 192.985 3.53477 192.766 3.91278C192.554 4.29079 192.255 4.56673 191.87 4.74061C191.484 4.9145 191.042 5.00144 190.543 5.00144H189.783V8.2334H188.842V0.102471ZM190.543 4.13958C191.034 4.13958 191.424 4.01106 191.711 3.75402C192.006 3.48941 192.153 3.0547 192.153 2.44989C192.153 1.9358 192.017 1.56158 191.745 1.32721C191.473 1.08529 191.087 0.964326 190.588 0.964326H189.783V4.13958H190.543ZM196.663 8.3468C195.779 8.3468 195.083 7.98391 194.577 7.25814C194.078 6.52481 193.828 5.48529 193.828 4.13958C193.828 2.78632 194.078 1.75814 194.577 1.05505C195.083 0.351955 195.779 0.000408651 196.663 0.000408651C197.556 0.000408651 198.251 0.355735 198.75 1.06639C199.249 1.76948 199.499 2.79766 199.499 4.15092C199.499 5.48907 199.249 6.52481 198.75 7.25814C198.251 7.98391 197.556 8.3468 196.663 8.3468ZM196.663 7.48494C197.238 7.48494 197.688 7.22412 198.013 6.70247C198.338 6.18082 198.501 5.33787 198.501 4.1736C198.501 3.00178 198.338 2.15883 198.013 1.64474C197.688 1.12309 197.238 0.862264 196.663 0.862264C196.089 0.862264 195.639 1.12309 195.314 1.64474C194.989 2.15883 194.826 3.00178 194.826 4.1736C194.826 5.33787 194.989 6.18082 195.314 6.70247C195.639 7.22412 196.089 7.48494 196.663 7.48494ZM200.835 0.102471H202.695C203.459 0.102471 204.045 0.253673 204.453 0.556078C204.869 0.858484 205.077 1.36879 205.077 2.08701C205.077 2.66914 204.941 3.11141 204.668 3.41381C204.404 3.70866 204.056 3.909 203.625 4.01484C204.162 4.098 204.574 4.28701 204.861 4.58185C205.149 4.8767 205.292 5.31519 205.292 5.89732C205.292 6.45677 205.175 6.91037 204.941 7.25814C204.714 7.59835 204.4 7.84783 203.999 8.00659C203.606 8.1578 203.164 8.2334 202.673 8.2334H200.835V0.102471ZM202.695 3.62927C203.119 3.62927 203.463 3.51587 203.727 3.28907C203.992 3.0547 204.124 2.6767 204.124 2.15505C204.124 1.71656 204.003 1.41037 203.761 1.23649C203.519 1.05505 203.179 0.964326 202.741 0.964326H201.777V3.62927H202.695ZM202.729 7.37154C203.198 7.37154 203.576 7.2657 203.863 7.05402C204.158 6.84233 204.306 6.46433 204.306 5.92C204.306 5.39835 204.169 5.03168 203.897 4.82C203.625 4.60075 203.209 4.49113 202.65 4.49113H201.777V7.37154H202.729ZM208.901 8.3468C208.016 8.3468 207.321 7.98391 206.814 7.25814C206.315 6.52481 206.066 5.48529 206.066 4.13958C206.066 2.78632 206.315 1.75814 206.814 1.05505C207.321 0.351955 208.016 0.000408651 208.901 0.000408651C209.793 0.000408651 210.488 0.355735 210.987 1.06639C211.486 1.76948 211.736 2.79766 211.736 4.15092C211.736 5.48907 211.486 6.52481 210.987 7.25814C210.488 7.98391 209.793 8.3468 208.901 8.3468ZM208.901 7.48494C209.475 7.48494 209.925 7.22412 210.25 6.70247C210.575 6.18082 210.738 5.33787 210.738 4.1736C210.738 3.00178 210.575 2.15883 210.25 1.64474C209.925 1.12309 209.475 0.862264 208.901 0.862264C208.326 0.862264 207.876 1.12309 207.551 1.64474C207.226 2.15883 207.064 3.00178 207.064 4.1736C207.064 5.33787 207.226 6.18082 207.551 6.70247C207.876 7.22412 208.326 7.48494 208.901 7.48494ZM212.738 2.77876V0.102471H213.679V2.69938C213.679 3.25127 213.789 3.67464 214.008 3.96948C214.235 4.25677 214.598 4.40041 215.097 4.40041C215.354 4.40041 215.592 4.35883 215.811 4.27567C216.038 4.1925 216.242 4.05642 216.423 3.86742V0.102471H217.365V8.2334H216.423V4.67257C215.985 5.03546 215.471 5.2169 214.881 5.2169C214.216 5.2169 213.69 5.01656 213.305 4.61587C212.927 4.20763 212.738 3.59525 212.738 2.77876ZM218.82 0.102471H219.762V3.76536H222.721V0.102471H223.674V8.2334H222.721V4.63855H219.762V8.2334H218.82V0.102471ZM225.179 7.33752C225.239 7.34508 225.307 7.35264 225.383 7.3602C225.458 7.3602 225.538 7.3602 225.621 7.3602C225.916 7.3602 226.161 7.27704 226.358 7.11072C226.562 6.93683 226.732 6.66467 226.868 6.29422L224.6 0.102471H225.644L227.333 4.8767L228.773 0.102471H229.726L227.832 6.0334C227.575 6.83477 227.28 7.40556 226.948 7.74577C226.623 8.07842 226.195 8.24474 225.666 8.24474C225.568 8.24474 225.481 8.24096 225.405 8.2334C225.337 8.2334 225.262 8.22962 225.179 8.22206V7.33752ZM235.4 8.3468C234.901 8.3468 234.448 8.21828 234.04 7.96123C233.631 7.70419 233.299 7.3035 233.042 6.75917C232.792 6.21484 232.649 5.50797 232.611 4.63855H231.545V8.2334H230.603V0.102471H231.545V3.76536H232.611C232.649 2.88838 232.792 2.17395 233.042 1.62206C233.299 1.07017 233.631 0.66192 234.04 0.397315C234.448 0.132711 234.901 0.000408651 235.4 0.000408651C235.922 0.000408651 236.395 0.144051 236.818 0.431336C237.241 0.711061 237.574 1.15711 237.816 1.76948C238.065 2.37429 238.19 3.16433 238.19 4.13958C238.19 5.11484 238.065 5.91244 237.816 6.53237C237.574 7.1523 237.241 7.60969 236.818 7.90453C236.395 8.19938 235.922 8.3468 235.4 8.3468ZM235.4 7.48494C235.748 7.48494 236.054 7.38666 236.319 7.1901C236.591 6.99354 236.807 6.65711 236.965 6.18082C237.124 5.69697 237.203 5.0279 237.203 4.1736C237.203 3.31931 237.124 2.65402 236.965 2.17773C236.807 1.69388 236.591 1.35367 236.319 1.15711C236.054 0.960546 235.748 0.862264 235.4 0.862264C235.06 0.862264 234.754 0.960546 234.482 1.15711C234.21 1.35367 233.994 1.69388 233.835 2.17773C233.684 2.65402 233.609 3.31931 233.609 4.1736C233.609 5.0279 233.684 5.69697 233.835 6.18082C233.994 6.65711 234.21 6.99354 234.482 7.1901C234.754 7.38666 235.06 7.48494 235.4 7.48494ZM0.532414 19.2334V11.1025H1.47365V18.3715H4.28602V11.1025H5.22726V18.3715H6.07777V20.8437H5.2386L5.14788 19.2334H0.532414ZM7.12169 11.1025H11V11.9757H8.06293V14.5612H10.5464V15.4231H8.06293V18.3602H11.0454V19.2334H7.12169V11.1025ZM12.2934 11.1025H13.2347V14.7654H16.1945V11.1025H17.1471V19.2334H16.1945V15.6386H13.2347V19.2334H12.2934V11.1025ZM18.6518 18.3375C18.7122 18.3451 18.7803 18.3526 18.8559 18.3602C18.9315 18.3602 19.0109 18.3602 19.094 18.3602C19.3889 18.3602 19.6346 18.277 19.8311 18.1107C20.0353 17.9368 20.2054 17.6647 20.3415 17.2942L18.0734 11.1025H19.1167L20.8064 15.8767L22.2466 11.1025H23.1992L21.3054 17.0334C21.0483 17.8348 20.7535 18.4056 20.4208 18.7458C20.0957 19.0784 19.6686 19.2447 19.1394 19.2447C19.0411 19.2447 18.9542 19.241 18.8786 19.2334C18.8105 19.2334 18.7349 19.2296 18.6518 19.2221V18.3375ZM23.378 19.3014C23.189 19.3014 23.034 19.2372 22.913 19.1087C22.7996 18.9801 22.7429 18.8214 22.7429 18.6324C22.7429 18.4358 22.7996 18.277 22.913 18.1561C23.034 18.0276 23.189 17.9633 23.378 17.9633C23.5519 17.9633 23.6993 18.0276 23.8202 18.1561C23.9412 18.277 24.0017 18.4358 24.0017 18.6324C24.0017 18.8214 23.9412 18.9801 23.8202 19.1087C23.6993 19.2372 23.5519 19.3014 23.378 19.3014ZM26.3879 18.3715H26.8982C27.0192 18.1977 27.1212 17.9973 27.2044 17.7705C27.2951 17.5437 27.3669 17.2602 27.4199 16.92C27.4803 16.5722 27.5257 16.1413 27.5559 15.6272C27.5937 15.1131 27.6202 14.4894 27.6353 13.7561C27.658 13.0152 27.6769 12.1306 27.692 11.1025H31.8539V18.3715H32.7044V20.8437H31.8652L31.7745 19.2334H27.3065L27.2157 20.8437H26.3879V18.3715ZM27.9075 18.3715H30.9127V11.9757H28.5652C28.5577 13.0265 28.5388 13.9148 28.5085 14.6406C28.4858 15.3588 28.448 15.9561 28.3951 16.4324C28.3498 16.9011 28.2855 17.2904 28.2023 17.6004C28.1267 17.9028 28.0285 18.1599 27.9075 18.3715ZM36.018 19.3468C35.1334 19.3468 34.4379 18.9839 33.9314 18.2581C33.4324 17.5248 33.1829 16.4853 33.1829 15.1396C33.1829 13.7863 33.4324 12.7581 33.9314 12.055C34.4379 11.352 35.1334 11.0004 36.018 11.0004C36.9101 11.0004 37.6056 11.3557 38.1046 12.0664C38.6035 12.7695 38.853 13.7977 38.853 15.1509C38.853 16.4891 38.6035 17.5248 38.1046 18.2581C37.6056 18.9839 36.9101 19.3468 36.018 19.3468ZM36.018 18.4849C36.5925 18.4849 37.0424 18.2241 37.3674 17.7025C37.6925 17.1808 37.8551 16.3379 37.8551 15.1736C37.8551 14.0018 37.6925 13.1588 37.3674 12.6447C37.0424 12.1231 36.5925 11.8623 36.018 11.8623C35.4434 11.8623 34.9936 12.1231 34.6685 12.6447C34.3434 13.1588 34.1808 14.0018 34.1808 15.1736C34.1808 16.3379 34.3434 17.1808 34.6685 17.7025C34.9936 18.2241 35.4434 18.4849 36.018 18.4849ZM42.8662 19.3468C41.9061 19.3468 41.1614 18.9764 40.6322 18.2355C40.1105 17.4946 39.8497 16.4739 39.8497 15.1736C39.8497 13.8657 40.1105 12.8451 40.6322 12.1117C41.1538 11.3709 41.9098 11.0004 42.9002 11.0004C43.6411 11.0004 44.2459 11.1894 44.7147 11.5674V12.486C44.4803 12.2894 44.2006 12.1382 43.8755 12.0324C43.5504 11.919 43.2291 11.8623 42.9116 11.8623C42.1933 11.8623 41.6717 12.142 41.3466 12.7014C41.0215 13.2609 40.859 14.0849 40.859 15.1736C40.859 16.2623 41.0291 17.0863 41.3693 17.6458C41.7171 18.2052 42.2538 18.4849 42.9796 18.4849C43.6147 18.4849 44.193 18.2468 44.7147 17.7705V18.6891C44.5181 18.8856 44.2497 19.0444 43.9095 19.1654C43.5769 19.2863 43.2291 19.3468 42.8662 19.3468ZM45.5172 11.9757V11.1025H50.5409V11.9757H48.4996V19.2334H47.5584V11.9757H45.5172ZM51.72 18.3375C51.7805 18.3451 51.8485 18.3526 51.9241 18.3602C51.9997 18.3602 52.0791 18.3602 52.1622 18.3602C52.4571 18.3602 52.7028 18.277 52.8994 18.1107C53.1035 17.9368 53.2736 17.6647 53.4097 17.2942L51.1416 11.1025H52.1849L53.8746 15.8767L55.3148 11.1025H56.2674L54.3736 17.0334C54.1165 17.8348 53.8217 18.4056 53.489 18.7458C53.164 19.0784 52.7368 19.2447 52.2076 19.2447C52.1093 19.2447 52.0224 19.241 51.9468 19.2334C51.8787 19.2334 51.8031 19.2296 51.72 19.2221V18.3375ZM57.1448 11.1025H61.8397V19.2334H60.8985V11.9757H58.0861V19.2334H57.1448V11.1025ZM63.2912 11.1025H64.2324V14.7654H67.1922V11.1025H68.1448V19.2334H67.1922V15.6386H64.2324V19.2334H63.2912V11.1025ZM72.0763 19.3468C71.1917 19.3468 70.4962 18.9839 69.9897 18.2581C69.4907 17.5248 69.2412 16.4853 69.2412 15.1396C69.2412 13.7863 69.4907 12.7581 69.9897 12.055C70.4962 11.352 71.1917 11.0004 72.0763 11.0004C72.9684 11.0004 73.6639 11.3557 74.1629 12.0664C74.6618 12.7695 74.9113 13.7977 74.9113 15.1509C74.9113 16.4891 74.6618 17.5248 74.1629 18.2581C73.6639 18.9839 72.9684 19.3468 72.0763 19.3468ZM72.0763 18.4849C72.6508 18.4849 73.1007 18.2241 73.4258 17.7025C73.7508 17.1808 73.9134 16.3379 73.9134 15.1736C73.9134 14.0018 73.7508 13.1588 73.4258 12.6447C73.1007 12.1231 72.6508 11.8623 72.0763 11.8623C71.5017 11.8623 71.0519 12.1231 70.7268 12.6447C70.4017 13.1588 70.2392 14.0018 70.2392 15.1736C70.2392 16.3379 70.4017 17.1808 70.7268 17.7025C71.0519 18.2241 71.5017 18.4849 72.0763 18.4849ZM77.3967 18.3715H77.907C78.028 18.1977 78.13 17.9973 78.2132 17.7705C78.3039 17.5437 78.3757 17.2602 78.4286 16.92C78.4891 16.5722 78.5345 16.1413 78.5647 15.6272C78.6025 15.1131 78.629 14.4894 78.6441 13.7561C78.6668 13.0152 78.6857 12.1306 78.7008 11.1025H82.8627V18.3715H83.7132V20.8437H82.874L82.7833 19.2334H78.3152L78.2245 20.8437H77.3967V18.3715ZM78.9163 18.3715H81.9214V11.9757H79.574C79.5664 13.0265 79.5475 13.9148 79.5173 14.6406C79.4946 15.3588 79.4568 15.9561 79.4039 16.4324C79.3585 16.9011 79.2943 17.2904 79.2111 17.6004C79.1355 17.9028 79.0372 18.1599 78.9163 18.3715ZM84.2531 18.2922C84.6235 18.3148 84.8768 18.2355 85.0129 18.054C85.1565 17.865 85.2548 17.5248 85.3077 17.0334C85.338 16.7688 85.3606 16.4777 85.3758 16.1602C85.3984 15.8351 85.4173 15.4495 85.4325 15.0035C85.4476 14.5575 85.4589 14.0207 85.4665 13.3932C85.474 12.7581 85.4778 11.9946 85.4778 11.1025H89.4696V19.2334H88.5283V11.9757H86.3624C86.3548 13.2382 86.3397 14.2815 86.317 15.1056C86.2943 15.9221 86.2565 16.5874 86.2036 17.1014C86.128 17.9028 85.9352 18.4736 85.6252 18.8138C85.3153 19.154 84.8579 19.309 84.2531 19.2788V18.2922ZM90.8311 13.4953C90.8311 12.6863 91.0466 12.0853 91.4775 11.6922C91.9084 11.299 92.4906 11.1025 93.2239 11.1025H95.2084V19.2334H94.2672V15.9221H93.1785L91.4548 19.2334H90.3888L92.26 15.7179C91.7837 15.5743 91.4246 15.321 91.1827 14.9581C90.9483 14.5953 90.8311 14.1076 90.8311 13.4953ZM93.1445 15.0602H94.2672V11.9643H93.2239C92.7778 11.9643 92.4263 12.0815 92.1693 12.3159C91.9122 12.5502 91.7837 12.9509 91.7837 13.5179C91.7837 14.0471 91.8971 14.4365 92.1239 14.686C92.3583 14.9355 92.6985 15.0602 93.1445 15.0602ZM103.398 19.2334H102.422L101.821 16.8406H99.3831L98.7594 19.2334H97.8976L100.041 11.1025H101.288L103.398 19.2334ZM99.5986 16.0014H101.606L100.619 12.1004L99.5986 16.0014ZM104.477 11.1025H106.337C107.1 11.1025 107.686 11.2537 108.094 11.5561C108.51 11.8585 108.718 12.3688 108.718 13.087C108.718 13.6691 108.582 14.1114 108.31 14.4138C108.045 14.7087 107.698 14.909 107.267 15.0148C107.803 15.098 108.215 15.287 108.503 15.5819C108.79 15.8767 108.934 16.3152 108.934 16.8973C108.934 17.4568 108.816 17.9104 108.582 18.2581C108.355 18.5983 108.042 18.8478 107.641 19.0066C107.248 19.1578 106.805 19.2334 106.314 19.2334H104.477V11.1025ZM106.337 14.6293C106.76 14.6293 107.104 14.5159 107.369 14.2891C107.633 14.0547 107.766 13.6767 107.766 13.155C107.766 12.7166 107.645 12.4104 107.403 12.2365C107.161 12.055 106.821 11.9643 106.382 11.9643H105.418V14.6293H106.337ZM106.371 18.3715C106.839 18.3715 107.217 18.2657 107.505 18.054C107.8 17.8423 107.947 17.4643 107.947 16.92C107.947 16.3983 107.811 16.0317 107.539 15.82C107.267 15.6008 106.851 15.4911 106.291 15.4911H105.418V18.3715H106.371ZM109.428 11.9757V11.1025H114.451V11.9757H112.41V19.2334H111.469V11.9757H109.428ZM117.548 19.3468C116.663 19.3468 115.968 18.9839 115.461 18.2581C114.962 17.5248 114.713 16.4853 114.713 15.1396C114.713 13.7863 114.962 12.7581 115.461 12.055C115.968 11.352 116.663 11.0004 117.548 11.0004C118.44 11.0004 119.135 11.3557 119.634 12.0664C120.133 12.7695 120.383 13.7977 120.383 15.1509C120.383 16.4891 120.133 17.5248 119.634 18.2581C119.135 18.9839 118.44 19.3468 117.548 19.3468ZM117.548 18.4849C118.122 18.4849 118.572 18.2241 118.897 17.7025C119.222 17.1808 119.385 16.3379 119.385 15.1736C119.385 14.0018 119.222 13.1588 118.897 12.6447C118.572 12.1231 118.122 11.8623 117.548 11.8623C116.973 11.8623 116.523 12.1231 116.198 12.6447C115.873 13.1588 115.711 14.0018 115.711 15.1736C115.711 16.3379 115.873 17.1808 116.198 17.7025C116.523 18.2241 116.973 18.4849 117.548 18.4849ZM125.145 17.9973H124.283L122.582 12.6674V19.2334H121.72V11.1025H123.047L124.782 16.5458L126.573 11.1025H127.832V19.2334H126.891V12.6901L125.145 17.9973ZM131.767 19.3468C130.883 19.3468 130.187 18.9839 129.681 18.2581C129.182 17.5248 128.932 16.4853 128.932 15.1396C128.932 13.7863 129.182 12.7581 129.681 12.055C130.187 11.352 130.883 11.0004 131.767 11.0004C132.659 11.0004 133.355 11.3557 133.854 12.0664C134.353 12.7695 134.602 13.7977 134.602 15.1509C134.602 16.4891 134.353 17.5248 133.854 18.2581C133.355 18.9839 132.659 19.3468 131.767 19.3468ZM131.767 18.4849C132.342 18.4849 132.792 18.2241 133.117 17.7025C133.442 17.1808 133.605 16.3379 133.605 15.1736C133.605 14.0018 133.442 13.1588 133.117 12.6447C132.792 12.1231 132.342 11.8623 131.767 11.8623C131.193 11.8623 130.743 12.1231 130.418 12.6447C130.093 13.1588 129.93 14.0018 129.93 15.1736C129.93 16.3379 130.093 17.1808 130.418 17.7025C130.743 18.2241 131.193 18.4849 131.767 18.4849ZM135.939 19.2334V11.1025H139.863V11.9757H136.881V14.4252H137.72C138.483 14.4252 139.084 14.6104 139.523 14.9808C139.961 15.3437 140.181 15.9296 140.181 16.7386C140.181 17.3358 140.071 17.8197 139.852 18.1901C139.632 18.553 139.33 18.8176 138.945 18.9839C138.559 19.1502 138.12 19.2334 137.629 19.2334H135.939ZM137.708 18.3715C138.162 18.3715 138.525 18.2544 138.797 18.02C139.069 17.7856 139.205 17.3736 139.205 16.7839C139.205 15.786 138.729 15.287 137.776 15.287H136.881V18.3715H137.708ZM142.364 19.2334H141.366V11.1025H142.307V17.5777L145.38 11.1025H146.378V19.2334H145.437V12.7581L142.364 19.2334ZM147.278 18.2922C147.648 18.3148 147.901 18.2355 148.037 18.054C148.181 17.865 148.279 17.5248 148.332 17.0334C148.362 16.7688 148.385 16.4777 148.4 16.1602C148.423 15.8351 148.442 15.4495 148.457 15.0035C148.472 14.5575 148.483 14.0207 148.491 13.3932C148.499 12.7581 148.502 11.9946 148.502 11.1025H152.494V19.2334H151.553V11.9757H149.387C149.379 13.2382 149.364 14.2815 149.342 15.1056C149.319 15.9221 149.281 16.5874 149.228 17.1014C149.153 17.9028 148.96 18.4736 148.65 18.8138C148.34 19.154 147.882 19.309 147.278 19.2788V18.2922ZM153.946 11.1025H157.825V11.9757H154.888V14.5612H157.371V15.4231H154.888V18.3602H157.87V19.2334H153.946V11.1025ZM161.624 10.6489C161.125 10.6489 160.755 10.4939 160.513 10.1839C160.271 9.86639 160.15 9.48082 160.15 9.02721H160.989C160.989 9.36742 161.046 9.61312 161.159 9.76433C161.28 9.90797 161.435 9.97979 161.624 9.97979C161.821 9.97979 161.976 9.90797 162.089 9.76433C162.21 9.61312 162.271 9.36742 162.271 9.02721H163.099C163.099 9.48082 162.978 9.86639 162.736 10.1839C162.494 10.4939 162.123 10.6489 161.624 10.6489ZM160.116 19.2334H159.118V11.1025H160.059V17.5777L163.133 11.1025H164.13V19.2334H163.189V12.7581L160.116 19.2334ZM166.017 20.4128H165.37C165.484 20.254 165.589 20.065 165.688 19.8458C165.786 19.6341 165.843 19.4413 165.858 19.2674C165.714 19.2447 165.597 19.1767 165.506 19.0633C165.423 18.9423 165.381 18.8025 165.381 18.6437C165.381 18.4396 165.438 18.277 165.552 18.1561C165.673 18.0276 165.827 17.9633 166.017 17.9633C166.198 17.9633 166.345 18.0276 166.459 18.1561C166.58 18.2846 166.64 18.466 166.64 18.7004C166.64 19.0406 166.568 19.3695 166.425 19.687C166.289 20.0045 166.153 20.2465 166.017 20.4128ZM170.637 19.2334H169.639V11.1025H170.58V17.5777L173.653 11.1025H174.651V19.2334H173.71V12.7581L170.637 19.2334ZM176.106 11.1025H177.048V14.7654H180.007V11.1025H180.96V19.2334H180.007V15.6386H177.048V19.2334H176.106V11.1025ZM185.096 10.887H186.037V11.8282C186.657 11.866 187.205 12.0097 187.681 12.2592C188.165 12.5011 188.543 12.8564 188.815 13.3252C189.087 13.7939 189.223 14.376 189.223 15.0715C189.223 15.752 189.087 16.3341 188.815 16.8179C188.543 17.2942 188.165 17.6684 187.681 17.9406C187.205 18.2052 186.657 18.3564 186.037 18.3942V19.4602H185.096V18.3942C184.483 18.364 183.935 18.2279 183.451 17.986C182.967 17.7365 182.586 17.3774 182.306 16.9087C182.034 16.4399 181.898 15.8578 181.898 15.1623C181.898 14.4743 182.034 13.8922 182.306 13.4159C182.586 12.932 182.967 12.5578 183.451 12.2932C183.935 12.021 184.483 11.866 185.096 11.8282V10.887ZM182.873 15.1396C182.873 15.7066 182.967 16.1678 183.156 16.5231C183.353 16.8784 183.617 17.143 183.95 17.3169C184.283 17.4832 184.665 17.5815 185.096 17.6117V12.5994C184.665 12.6372 184.283 12.7468 183.95 12.9282C183.617 13.1097 183.353 13.3819 183.156 13.7447C182.967 14.1076 182.873 14.5726 182.873 15.1396ZM188.259 15.0942C188.259 14.5272 188.165 14.066 187.976 13.7107C187.787 13.3554 187.522 13.0946 187.182 12.9282C186.849 12.7544 186.468 12.6523 186.037 12.6221V17.6231C186.468 17.5853 186.849 17.4757 187.182 17.2942C187.522 17.1128 187.787 16.8444 187.976 16.4891C188.165 16.1262 188.259 15.6612 188.259 15.0942ZM192.666 19.3468C191.781 19.3468 191.086 18.9839 190.579 18.2581C190.08 17.5248 189.831 16.4853 189.831 15.1396C189.831 13.7863 190.08 12.7581 190.579 12.055C191.086 11.352 191.781 11.0004 192.666 11.0004C193.558 11.0004 194.253 11.3557 194.752 12.0664C195.251 12.7695 195.501 13.7977 195.501 15.1509C195.501 16.4891 195.251 17.5248 194.752 18.2581C194.253 18.9839 193.558 19.3468 192.666 19.3468ZM192.666 18.4849C193.24 18.4849 193.69 18.2241 194.015 17.7025C194.34 17.1808 194.503 16.3379 194.503 15.1736C194.503 14.0018 194.34 13.1588 194.015 12.6447C193.69 12.1231 193.24 11.8623 192.666 11.8623C192.091 11.8623 191.641 12.1231 191.316 12.6447C190.991 13.1588 190.829 14.0018 190.829 15.1736C190.829 16.3379 190.991 17.1808 191.316 17.7025C191.641 18.2241 192.091 18.4849 192.666 18.4849ZM196.838 11.1025H198.584C199.37 11.1025 199.983 11.2915 200.421 11.6695C200.867 12.0475 201.09 12.6372 201.09 13.4386C201.09 14.0434 200.981 14.5348 200.761 14.9128C200.55 15.2908 200.251 15.5667 199.865 15.7406C199.48 15.9145 199.038 16.0014 198.539 16.0014H197.779V19.2334H196.838V11.1025ZM198.539 15.1396C199.03 15.1396 199.419 15.0111 199.707 14.754C200.002 14.4894 200.149 14.0547 200.149 13.4499C200.149 12.9358 200.013 12.5616 199.741 12.3272C199.469 12.0853 199.083 11.9643 198.584 11.9643H197.779V15.1396H198.539ZM205.589 17.9973H204.727L203.026 12.6674V19.2334H202.164V11.1025H203.491L205.226 16.5458L207.018 11.1025H208.277V19.2334H207.336V12.6901L205.589 17.9973ZM214.695 19.2334H213.72L213.119 16.8406H210.681L210.057 19.2334H209.195L211.339 11.1025H212.586L214.695 19.2334ZM210.897 16.0014H212.904L211.917 12.1004L210.897 16.0014ZM215.775 19.2334V11.1025H216.716V18.3715H219.528V11.1025H220.47V18.3715H221.32V20.8437H220.481L220.39 19.2334H215.775ZM223.362 19.2334H222.364V11.1025H223.305V17.5777L226.379 11.1025H227.376V19.2334H226.435V12.7581L223.362 19.2334ZM228.741 13.4953C228.741 12.6863 228.956 12.0853 229.387 11.6922C229.818 11.299 230.4 11.1025 231.134 11.1025H233.118V19.2334H232.177V15.9221H231.088L229.365 19.2334H228.299L230.17 15.7179C229.693 15.5743 229.334 15.321 229.092 14.9581C228.858 14.5953 228.741 14.1076 228.741 13.4953ZM231.054 15.0602H232.177V11.9643H231.134C230.688 11.9643 230.336 12.0815 230.079 12.3159C229.822 12.5502 229.693 12.9509 229.693 13.5179C229.693 14.0471 229.807 14.4365 230.034 14.686C230.268 14.9355 230.608 15.0602 231.054 15.0602ZM3.02726 30.3468C2.14272 30.3468 1.44719 29.9839 0.940661 29.2581C0.441692 28.5248 0.192208 27.4853 0.192208 26.1396C0.192208 24.7863 0.441692 23.7581 0.940661 23.055C1.44719 22.352 2.14272 22.0004 3.02726 22.0004C3.91936 22.0004 4.61489 22.3557 5.11386 23.0664C5.61283 23.7695 5.86231 24.7977 5.86231 26.1509C5.86231 27.4891 5.61283 28.5248 5.11386 29.2581C4.61489 29.9839 3.91936 30.3468 3.02726 30.3468ZM3.02726 29.4849C3.60183 29.4849 4.05166 29.2241 4.37674 28.7025C4.70183 28.1808 4.86437 27.3379 4.86437 26.1736C4.86437 25.0018 4.70183 24.1588 4.37674 23.6447C4.05166 23.1231 3.60183 22.8623 3.02726 22.8623C2.45269 22.8623 2.00286 23.1231 1.67777 23.6447C1.35269 24.1588 1.19015 25.0018 1.19015 26.1736C1.19015 27.3379 1.35269 28.1808 1.67777 28.7025C2.00286 29.2241 2.45269 29.4849 3.02726 29.4849ZM13.7343 30.2334H12.6003L10.6838 26.6386H9.90128V30.2334H8.96005V22.1025H9.90128V25.7767H10.6838L12.6003 22.1025H13.6436L11.5116 26.1282L13.7343 30.2334ZM16.5381 30.3468C15.6535 30.3468 14.958 29.9839 14.4515 29.2581C13.9525 28.5248 13.703 27.4853 13.703 26.1396C13.703 24.7863 13.9525 23.7581 14.4515 23.055C14.958 22.352 15.6535 22.0004 16.5381 22.0004C17.4301 22.0004 18.1257 22.3557 18.6247 23.0664C19.1236 23.7695 19.3731 24.7977 19.3731 26.1509C19.3731 27.4891 19.1236 28.5248 18.6247 29.2581C18.1257 29.9839 17.4301 30.3468 16.5381 30.3468ZM16.5381 29.4849C17.1126 29.4849 17.5625 29.2241 17.8875 28.7025C18.2126 28.1808 18.3752 27.3379 18.3752 26.1736C18.3752 25.0018 18.2126 24.1588 17.8875 23.6447C17.5625 23.1231 17.1126 22.8623 16.5381 22.8623C15.9635 22.8623 15.5137 23.1231 15.1886 23.6447C14.8635 24.1588 14.7009 25.0018 14.7009 26.1736C14.7009 27.3379 14.8635 28.1808 15.1886 28.7025C15.5137 29.2241 15.9635 29.4849 16.5381 29.4849ZM19.8577 22.9757V22.1025H24.8814V22.9757H22.8402V30.2334H21.899V22.9757H19.8577ZM27.9779 30.3468C27.0934 30.3468 26.3979 29.9839 25.8913 29.2581C25.3924 28.5248 25.1429 27.4853 25.1429 26.1396C25.1429 24.7863 25.3924 23.7581 25.8913 23.055C26.3979 22.352 27.0934 22.0004 27.9779 22.0004C28.87 22.0004 29.5656 22.3557 30.0645 23.0664C30.5635 23.7695 30.813 24.7977 30.813 26.1509C30.813 27.4891 30.5635 28.5248 30.0645 29.2581C29.5656 29.9839 28.87 30.3468 27.9779 30.3468ZM27.9779 29.4849C28.5525 29.4849 29.0023 29.2241 29.3274 28.7025C29.6525 28.1808 29.815 27.3379 29.815 26.1736C29.815 25.0018 29.6525 24.1588 29.3274 23.6447C29.0023 23.1231 28.5525 22.8623 27.9779 22.8623C27.4034 22.8623 26.9535 23.1231 26.6284 23.6447C26.3034 24.1588 26.1408 25.0018 26.1408 26.1736C26.1408 27.3379 26.3034 28.1808 26.6284 28.7025C26.9535 29.2241 27.4034 29.4849 27.9779 29.4849ZM32.1499 22.1025H33.8963C34.6825 22.1025 35.2949 22.2915 35.7334 22.6695C36.1794 23.0475 36.4025 23.6372 36.4025 24.4386C36.4025 25.0434 36.2928 25.5348 36.0736 25.9128C35.8619 26.2908 35.5633 26.5667 35.1777 26.7406C34.7922 26.9145 34.3499 27.0014 33.8509 27.0014H33.0911V30.2334H32.1499V22.1025ZM33.8509 26.1396C34.3423 26.1396 34.7317 26.0111 35.019 25.754C35.3138 25.4894 35.4612 25.0547 35.4612 24.4499C35.4612 23.9358 35.3251 23.5616 35.053 23.3272C34.7808 23.0853 34.3952 22.9643 33.8963 22.9643H33.0911V26.1396H33.8509ZM37.4767 30.2334V22.1025H38.4179V25.1757H39.3365C40.1227 25.1757 40.7351 25.376 41.1736 25.7767C41.6196 26.1698 41.8427 26.7746 41.8427 27.5911C41.8427 28.2111 41.733 28.7176 41.5138 29.1107C41.3021 29.4963 41.0035 29.7798 40.6179 29.9612C40.2324 30.1427 39.7901 30.2334 39.2911 30.2334H37.4767ZM42.5684 22.1138H43.5097V30.2334H42.5684V22.1138ZM39.2911 29.3715C39.7825 29.3715 40.1719 29.2355 40.4592 28.9633C40.754 28.6836 40.9014 28.23 40.9014 27.6025C40.9014 27.0733 40.7653 26.6801 40.4932 26.4231C40.221 26.166 39.8354 26.0375 39.3365 26.0375H38.4179V29.3715H39.2911ZM44.5547 22.1025H45.6547L47.129 25.187L48.5692 22.1025H49.5444L47.6053 25.9922L49.7032 30.2334H48.5919L46.9815 26.82L45.3259 30.2334H44.3506L46.5053 25.9922L44.5547 22.1025ZM54.9595 30.3468C53.9993 30.3468 53.2547 29.9764 52.7254 29.2355C52.2038 28.4946 51.943 27.4739 51.943 26.1736C51.943 24.8657 52.2038 23.8451 52.7254 23.1117C53.2471 22.3709 54.0031 22.0004 54.9935 22.0004C55.7344 22.0004 56.3392 22.1894 56.8079 22.5674V23.486C56.5736 23.2894 56.2938 23.1382 55.9687 23.0324C55.6437 22.919 55.3224 22.8623 55.0048 22.8623C54.2866 22.8623 53.765 23.142 53.4399 23.7014C53.1148 24.2609 52.9523 25.0849 52.9523 26.1736C52.9523 27.2623 53.1224 28.0863 53.4626 28.6458C53.8103 29.2052 54.3471 29.4849 55.0729 29.4849C55.7079 29.4849 56.2863 29.2468 56.8079 28.7705V29.6891C56.6114 29.8856 56.343 30.0444 56.0028 30.1654C55.6701 30.2863 55.3224 30.3468 54.9595 30.3468ZM60.3928 30.3468C59.5082 30.3468 58.8127 29.9839 58.3062 29.2581C57.8072 28.5248 57.5577 27.4853 57.5577 26.1396C57.5577 24.7863 57.8072 23.7581 58.3062 23.055C58.8127 22.352 59.5082 22.0004 60.3928 22.0004C61.2849 22.0004 61.9804 22.3557 62.4794 23.0664C62.9783 23.7695 63.2278 24.7977 63.2278 26.1509C63.2278 27.4891 62.9783 28.5248 62.4794 29.2581C61.9804 29.9839 61.2849 30.3468 60.3928 30.3468ZM60.3928 29.4849C60.9673 29.4849 61.4172 29.2241 61.7422 28.7025C62.0673 28.1808 62.2299 27.3379 62.2299 26.1736C62.2299 25.0018 62.0673 24.1588 61.7422 23.6447C61.4172 23.1231 60.9673 22.8623 60.3928 22.8623C59.8182 22.8623 59.3684 23.1231 59.0433 23.6447C58.7182 24.1588 58.5556 25.0018 58.5556 26.1736C58.5556 27.3379 58.7182 28.1808 59.0433 28.7025C59.3684 29.2241 59.8182 29.4849 60.3928 29.4849ZM63.609 29.3715H64.1193C64.2403 29.1977 64.3424 28.9973 64.4255 28.7705C64.5163 28.5437 64.5881 28.2602 64.641 27.92C64.7015 27.5722 64.7468 27.1413 64.7771 26.6272C64.8149 26.1131 64.8413 25.4894 64.8565 24.7561C64.8791 24.0152 64.898 23.1306 64.9132 22.1025H69.075V29.3715H69.9255V31.8437H69.0864L68.9956 30.2334H64.5276L64.4369 31.8437H63.609V29.3715ZM65.1286 29.3715H68.1338V22.9757H65.7864C65.7788 24.0265 65.7599 24.9148 65.7297 25.6406C65.707 26.3588 65.6692 26.9561 65.6163 27.4324C65.5709 27.9011 65.5066 28.2904 65.4235 28.6004C65.3479 28.9028 65.2496 29.1599 65.1286 29.3715ZM70.9657 22.1025H74.8441V22.9757H71.907V25.5612H74.3905V26.4231H71.907V29.3602H74.8894V30.2334H70.9657V22.1025ZM76.1375 22.1025H77.8839C78.6701 22.1025 79.2825 22.2915 79.721 22.6695C80.167 23.0475 80.3901 23.6372 80.3901 24.4386C80.3901 25.0434 80.2804 25.5348 80.0612 25.9128C79.8495 26.2908 79.5509 26.5667 79.1653 26.7406C78.7797 26.9145 78.3375 27.0014 77.8385 27.0014H77.0787V30.2334H76.1375V22.1025ZM77.8385 26.1396C78.3299 26.1396 78.7193 26.0111 79.0066 25.754C79.3014 25.4894 79.4488 25.0547 79.4488 24.4499C79.4488 23.9358 79.3127 23.5616 79.0406 23.3272C78.7684 23.0853 78.3828 22.9643 77.8839 22.9643H77.0787V26.1396H77.8385ZM80.6547 30.2334L82.6165 26.0829L80.7454 22.1025H81.7887L83.4671 25.7767H84.2722V22.1025H85.2135V25.7767H86.0186L87.697 22.1025H88.7403L86.8805 26.0602L88.831 30.2334H87.697L86.03 26.5932H85.2135V30.2334H84.2722V26.5932H83.4444L81.766 30.2334H80.6547ZM90.757 30.2334H89.759V22.1025H90.7003V28.5777L93.7734 22.1025H94.7714V30.2334H93.8301V23.7581L90.757 30.2334ZM95.7729 22.9757V22.1025H100.797V22.9757H98.7553V30.2334H97.8141V22.9757H95.7729ZM104.075 30.3468C103.114 30.3468 102.37 29.9764 101.841 29.2355C101.319 28.4946 101.058 27.4739 101.058 26.1736C101.058 24.8657 101.319 23.8451 101.841 23.1117C102.362 22.3709 103.118 22.0004 104.109 22.0004C104.849 22.0004 105.454 22.1894 105.923 22.5674V23.486C105.689 23.2894 105.409 23.1382 105.084 23.0324C104.759 22.919 104.437 22.8623 104.12 22.8623C103.402 22.8623 102.88 23.142 102.555 23.7014C102.23 24.2609 102.067 25.0849 102.067 26.1736C102.067 27.2623 102.237 28.0863 102.578 28.6458C102.925 29.2052 103.462 29.4849 104.188 29.4849C104.823 29.4849 105.401 29.2468 105.923 28.7705V29.6891C105.726 29.8856 105.458 30.0444 105.118 30.1654C104.785 30.2863 104.437 30.3468 104.075 30.3468ZM107.033 24.4953C107.033 23.6863 107.248 23.0853 107.679 22.6922C108.11 22.299 108.692 22.1025 109.426 22.1025H111.41V30.2334H110.469V26.9221H109.38L107.657 30.2334H106.591L108.462 26.7179C107.986 26.5743 107.626 26.321 107.385 25.9581C107.15 25.5953 107.033 25.1076 107.033 24.4953ZM109.346 26.0602H110.469V22.9643H109.426C108.98 22.9643 108.628 23.0815 108.371 23.3159C108.114 23.5502 107.986 23.9509 107.986 24.5179C107.986 25.0471 108.099 25.4365 108.326 25.686C108.56 25.9355 108.9 26.0602 109.346 26.0602ZM114.621 22.1025H116.481C117.244 22.1025 117.83 22.2537 118.239 22.5561C118.654 22.8585 118.862 23.3688 118.862 24.087C118.862 24.6691 118.726 25.1114 118.454 25.4138C118.189 25.7087 117.842 25.909 117.411 26.0148C117.948 26.098 118.36 26.287 118.647 26.5819C118.934 26.8767 119.078 27.3152 119.078 27.8973C119.078 28.4568 118.961 28.9104 118.726 29.2581C118.499 29.5983 118.186 29.8478 117.785 30.0066C117.392 30.1578 116.95 30.2334 116.458 30.2334H114.621V22.1025ZM116.481 25.6293C116.904 25.6293 117.248 25.5159 117.513 25.2891C117.777 25.0547 117.91 24.6767 117.91 24.155C117.91 23.7166 117.789 23.4104 117.547 23.2365C117.305 23.055 116.965 22.9643 116.526 22.9643H115.562V25.6293H116.481ZM116.515 29.3715C116.984 29.3715 117.362 29.2657 117.649 29.054C117.944 28.8423 118.091 28.4643 118.091 27.92C118.091 27.3983 117.955 27.0317 117.683 26.82C117.411 26.6008 116.995 26.4911 116.436 26.4911H115.562V29.3715H116.515ZM122.008 30.2334V22.1025H125.931V22.9757H122.949V25.4252H123.788C124.552 25.4252 125.153 25.6104 125.591 25.9808C126.03 26.3437 126.249 26.9296 126.249 27.7386C126.249 28.3358 126.139 28.8197 125.92 29.1901C125.701 29.553 125.398 29.8176 125.013 29.9839C124.627 30.1502 124.189 30.2334 123.697 30.2334H122.008ZM123.777 29.3715C124.23 29.3715 124.593 29.2544 124.865 29.02C125.138 28.7856 125.274 28.3736 125.274 27.7839C125.274 26.786 124.797 26.287 123.845 26.287H122.949V29.3715H123.777ZM132.246 30.2334H131.271L130.67 27.8406H128.232L127.608 30.2334H126.746L128.89 22.1025H130.137L132.246 30.2334ZM128.447 27.0014H130.455L129.468 23.1004L128.447 27.0014ZM134.801 30.3468C134.159 30.3468 133.561 30.1843 133.01 29.8592V28.9406C133.327 29.1296 133.626 29.2695 133.905 29.3602C134.193 29.4434 134.488 29.4849 134.79 29.4849C135.062 29.4849 135.315 29.4358 135.55 29.3375C135.792 29.2392 135.985 29.0767 136.128 28.8499C136.279 28.6155 136.355 28.3056 136.355 27.92C136.355 27.3908 136.226 27.0166 135.969 26.7973C135.712 26.5781 135.323 26.4684 134.801 26.4684H134.087V25.652H134.801C135.24 25.652 135.576 25.5234 135.811 25.2664C136.045 25.0093 136.162 24.6351 136.162 24.1437C136.162 23.6825 136.041 23.3537 135.799 23.1571C135.565 22.9605 135.263 22.8623 134.892 22.8623C134.325 22.8623 133.724 23.0437 133.089 23.4066V22.488C133.664 22.163 134.28 22.0004 134.937 22.0004C135.595 22.0004 136.121 22.1705 136.514 22.5107C136.914 22.8509 137.115 23.3575 137.115 24.0303C137.115 24.5671 136.99 25.0018 136.741 25.3344C136.499 25.6595 136.158 25.8825 135.72 26.0035C136.234 26.0867 136.631 26.2832 136.911 26.5932C137.19 26.9032 137.33 27.3379 137.33 27.8973C137.33 28.4719 137.213 28.9406 136.979 29.3035C136.744 29.6664 136.434 29.931 136.049 30.0973C135.663 30.2636 135.247 30.3468 134.801 30.3468ZM138.486 22.1025H142.365V22.9757H139.428V25.5612H141.911V26.4231H139.428V29.3602H142.41V30.2334H138.486V22.1025ZM144.807 29.3715H145.317C145.438 29.1977 145.54 28.9973 145.623 28.7705C145.714 28.5437 145.786 28.2602 145.839 27.92C145.899 27.5722 145.944 27.1413 145.975 26.6272C146.013 26.1131 146.039 25.4894 146.054 24.7561C146.077 24.0152 146.096 23.1306 146.111 22.1025H150.273V29.3715H151.123V31.8437H150.284L150.193 30.2334H145.725L145.635 31.8437H144.807V29.3715ZM146.326 29.3715H149.331V22.9757H146.984C146.976 24.0265 146.958 24.9148 146.927 25.6406C146.905 26.3588 146.867 26.9561 146.814 27.4324C146.769 27.9011 146.704 28.2904 146.621 28.6004C146.546 28.9028 146.447 29.1599 146.326 29.3715ZM157.142 30.2334H156.166L155.565 27.8406H153.127L152.504 30.2334H151.642L153.785 22.1025H155.032L157.142 30.2334ZM153.343 27.0014H155.35L154.363 23.1004L153.343 27.0014ZM158.221 22.1025H159.162V25.7654H162.122V22.1025H163.075V30.2334H162.122V26.6386H159.162V30.2334H158.221V22.1025ZM164.511 22.1025H165.453V25.7654H168.412V22.1025H169.365V30.2334H168.412V26.6386H165.453V30.2334H164.511V22.1025ZM170.802 30.2334V22.1025H171.743V25.1757H172.661C173.448 25.1757 174.06 25.376 174.499 25.7767C174.945 26.1698 175.168 26.7746 175.168 27.5911C175.168 28.2111 175.058 28.7176 174.839 29.1107C174.627 29.4963 174.328 29.7798 173.943 29.9612C173.557 30.1427 173.115 30.2334 172.616 30.2334H170.802ZM175.893 22.1138H176.835V30.2334H175.893V22.1138ZM172.616 29.3715C173.107 29.3715 173.497 29.2355 173.784 28.9633C174.079 28.6836 174.226 28.23 174.226 27.6025C174.226 27.0733 174.09 26.6801 173.818 26.4231C173.546 26.166 173.16 26.0375 172.661 26.0375H171.743V29.3715H172.616ZM177.88 22.1025H178.98L180.454 25.187L181.894 22.1025H182.869L180.93 25.9922L183.028 30.2334H181.917L180.306 26.82L178.651 30.2334H177.676L179.83 25.9922L177.88 22.1025ZM190.586 30.2334H189.611L189.01 27.8406H186.572L185.948 30.2334H185.086L187.23 22.1025H188.477L190.586 30.2334ZM186.788 27.0014H188.795L187.808 23.1004L186.788 27.0014ZM191.666 22.1025H193.526C194.289 22.1025 194.875 22.2537 195.283 22.5561C195.699 22.8585 195.907 23.3688 195.907 24.087C195.907 24.6691 195.771 25.1114 195.499 25.4138C195.234 25.7087 194.886 25.909 194.456 26.0148C194.992 26.098 195.404 26.287 195.692 26.5819C195.979 26.8767 196.123 27.3152 196.123 27.8973C196.123 28.4568 196.005 28.9104 195.771 29.2581C195.544 29.5983 195.23 29.8478 194.83 30.0066C194.437 30.1578 193.994 30.2334 193.503 30.2334H191.666V22.1025ZM193.526 25.6293C193.949 25.6293 194.293 25.5159 194.558 25.2891C194.822 25.0547 194.954 24.6767 194.954 24.155C194.954 23.7166 194.834 23.4104 194.592 23.2365C194.35 23.055 194.009 22.9643 193.571 22.9643H192.607V25.6293H193.526ZM193.56 29.3715C194.028 29.3715 194.406 29.2657 194.694 29.054C194.989 28.8423 195.136 28.4643 195.136 27.92C195.136 27.3983 195 27.0317 194.728 26.82C194.456 26.6008 194.04 26.4911 193.48 26.4911H192.607V29.3715H193.56ZM196.617 22.9757V22.1025H201.64V22.9757H199.599V30.2334H198.658V22.9757H196.617ZM204.737 30.3468C203.852 30.3468 203.157 29.9839 202.65 29.2581C202.151 28.5248 201.902 27.4853 201.902 26.1396C201.902 24.7863 202.151 23.7581 202.65 23.055C203.157 22.352 203.852 22.0004 204.737 22.0004C205.629 22.0004 206.324 22.3557 206.823 23.0664C207.322 23.7695 207.572 24.7977 207.572 26.1509C207.572 27.4891 207.322 28.5248 206.823 29.2581C206.324 29.9839 205.629 30.3468 204.737 30.3468ZM204.737 29.4849C205.311 29.4849 205.761 29.2241 206.086 28.7025C206.411 28.1808 206.574 27.3379 206.574 26.1736C206.574 25.0018 206.411 24.1588 206.086 23.6447C205.761 23.1231 205.311 22.8623 204.737 22.8623C204.162 22.8623 203.712 23.1231 203.387 23.6447C203.062 24.1588 202.9 25.0018 202.9 26.1736C202.9 27.3379 203.062 28.1808 203.387 28.7025C203.712 29.2241 204.162 29.4849 204.737 29.4849ZM208.886 30.3014C208.697 30.3014 208.542 30.2372 208.421 30.1087C208.307 29.9801 208.251 29.8214 208.251 29.6324C208.251 29.4358 208.307 29.277 208.421 29.1561C208.542 29.0276 208.697 28.9633 208.886 28.9633C209.059 28.9633 209.207 29.0276 209.328 29.1561C209.449 29.277 209.509 29.4358 209.509 29.6324C209.509 29.8214 209.449 29.9801 209.328 30.1087C209.207 30.2372 209.059 30.3014 208.886 30.3014ZM210.747 22.1025H212.493C213.28 22.1025 213.892 22.2915 214.331 22.6695C214.777 23.0475 215 23.6372 215 24.4386C215 25.0434 214.89 25.5348 214.671 25.9128C214.459 26.2908 214.16 26.5667 213.775 26.7406C213.389 26.9145 212.947 27.0014 212.448 27.0014H211.688V30.2334H210.747V22.1025ZM212.448 26.1396C212.939 26.1396 213.329 26.0111 213.616 25.754C213.911 25.4894 214.058 25.0547 214.058 24.4499C214.058 23.9358 213.922 23.5616 213.65 23.3272C213.378 23.0853 212.992 22.9643 212.493 22.9643H211.688V26.1396H212.448ZM216.142 29.3375C216.202 29.3451 216.27 29.3526 216.346 29.3602C216.422 29.3602 216.501 29.3602 216.584 29.3602C216.879 29.3602 217.125 29.277 217.321 29.1107C217.525 28.9368 217.696 28.6647 217.832 28.2942L215.564 22.1025H216.607L218.297 26.8767L219.737 22.1025H220.689L218.796 28.0334C218.538 28.8348 218.244 29.4056 217.911 29.7458C217.586 30.0784 217.159 30.2447 216.63 30.2447C216.531 30.2447 216.444 30.241 216.369 30.2334C216.301 30.2334 216.225 30.2296 216.142 30.2221V29.3375ZM220.868 30.3014C220.679 30.3014 220.524 30.2372 220.403 30.1087C220.29 29.9801 220.233 29.8214 220.233 29.6324C220.233 29.4358 220.29 29.277 220.403 29.1561C220.524 29.0276 220.679 28.9633 220.868 28.9633C221.042 28.9633 221.189 29.0276 221.31 29.1561C221.431 29.277 221.492 29.4358 221.492 29.6324C221.492 29.8214 221.431 29.9801 221.31 30.1087C221.189 30.2372 221.042 30.3014 220.868 30.3014ZM224.49 22.1025H225.432V25.7654H228.391V22.1025H229.344V30.2334H228.391V26.6386H225.432V30.2334H224.49V22.1025ZM230.781 22.1025H234.659V22.9757H231.722V25.5612H234.205V26.4231H231.722V29.3602H234.704V30.2334H230.781V22.1025ZM0.441692 35.4953C0.441692 34.6863 0.657156 34.0853 1.08808 33.6922C1.51901 33.299 2.10114 33.1025 2.83448 33.1025H4.81901V41.2334H3.87777V37.9221H2.78911L1.0654 41.2334H-0.00057586L1.87056 37.7179C1.39427 37.5743 1.03516 37.321 0.793239 36.9581C0.558874 36.5953 0.441692 36.1076 0.441692 35.4953ZM2.75509 37.0602H3.87777V33.9643H2.83448C2.38843 33.9643 2.03688 34.0815 1.77984 34.3159C1.52279 34.5502 1.39427 34.9509 1.39427 35.5179C1.39427 36.0471 1.50767 36.4365 1.73448 36.686C1.96884 36.9355 2.30905 37.0602 2.75509 37.0602ZM6.26896 33.1025H8.12876C8.89233 33.1025 9.47824 33.2537 9.88649 33.5561C10.3023 33.8585 10.5102 34.3688 10.5102 35.087C10.5102 35.6691 10.3741 36.1114 10.102 36.4138C9.83735 36.7087 9.48958 36.909 9.05865 37.0148C9.59542 37.098 10.0075 37.287 10.2947 37.5819C10.582 37.8767 10.7257 38.3152 10.7257 38.8973C10.7257 39.4568 10.6085 39.9104 10.3741 40.2581C10.1473 40.5983 9.83357 40.8478 9.43288 41.0066C9.03975 41.1578 8.59749 41.2334 8.10608 41.2334H6.26896V33.1025ZM8.12876 36.6293C8.55212 36.6293 8.89611 36.5159 9.16072 36.2891C9.42532 36.0547 9.55762 35.6767 9.55762 35.155C9.55762 34.7166 9.43666 34.4104 9.19474 34.2365C8.95281 34.055 8.61261 33.9643 8.17412 33.9643H7.2102V36.6293H8.12876ZM8.16278 40.3715C8.63151 40.3715 9.00951 40.2657 9.2968 40.054C9.59164 39.8423 9.73907 39.4643 9.73907 38.92C9.73907 38.3983 9.60298 38.0317 9.33082 37.82C9.05865 37.6008 8.64285 37.4911 8.0834 37.4911H7.2102V40.3715H8.16278ZM11.3391 40.2922C11.7095 40.3148 11.9628 40.2355 12.0989 40.054C12.2425 39.865 12.3408 39.5248 12.3937 39.0334C12.424 38.7688 12.4467 38.4777 12.4618 38.1602C12.4845 37.8351 12.5034 37.4495 12.5185 37.0035C12.5336 36.5575 12.5449 36.0207 12.5525 35.3932C12.5601 34.7581 12.5638 33.9946 12.5638 33.1025H16.5556V41.2334H15.6144V33.9757H13.4484C13.4408 35.2382 13.4257 36.2815 13.403 37.1056C13.3803 37.9221 13.3425 38.5874 13.2896 39.1014C13.214 39.9028 13.0212 40.4736 12.7113 40.8138C12.4013 41.154 11.9439 41.309 11.3391 41.2788V40.2922ZM17.9171 35.4953C17.9171 34.6863 18.1326 34.0853 18.5635 33.6922C18.9944 33.299 19.5766 33.1025 20.3099 33.1025H22.2944V41.2334H21.3532V37.9221H20.2646L18.5408 41.2334H17.4749L19.346 37.7179C18.8697 37.5743 18.5106 37.321 18.2687 36.9581C18.0343 36.5953 17.9171 36.1076 17.9171 35.4953ZM20.2305 37.0602H21.3532V33.9643H20.3099C19.8639 33.9643 19.5123 34.0815 19.2553 34.3159C18.9982 34.5502 18.8697 34.9509 18.8697 35.5179C18.8697 36.0471 18.9831 36.4365 19.2099 36.686C19.4443 36.9355 19.7845 37.0602 20.2305 37.0602ZM23.7444 33.1025H27.6227V33.9757H24.6856V36.5612H27.1691V37.4231H24.6856V40.3602H27.6681V41.2334H23.7444V33.1025ZM28.4072 33.9757V33.1025H33.4309V33.9757H31.3896V41.2334H30.4484V33.9757H28.4072ZM36.7088 41.3468C35.7487 41.3468 35.004 40.9764 34.4748 40.2355C33.9532 39.4946 33.6923 38.4739 33.6923 37.1736C33.6923 35.8657 33.9532 34.8451 34.4748 34.1117C34.9965 33.3709 35.7525 33.0004 36.7428 33.0004C37.4837 33.0004 38.0885 33.1894 38.5573 33.5674V34.486C38.3229 34.2894 38.0432 34.1382 37.7181 34.0324C37.393 33.919 37.0717 33.8623 36.7542 33.8623C36.036 33.8623 35.5143 34.142 35.1892 34.7014C34.8642 35.2609 34.7016 36.0849 34.7016 37.1736C34.7016 38.2623 34.8717 39.0863 35.2119 39.6458C35.5597 40.2052 36.0965 40.4849 36.8222 40.4849C37.4573 40.4849 38.0356 40.2468 38.5573 39.7705V40.6891C38.3607 40.8856 38.0923 41.0444 37.7521 41.1654C37.4195 41.2863 37.0717 41.3468 36.7088 41.3468ZM39.6673 35.4953C39.6673 34.6863 39.8828 34.0853 40.3137 33.6922C40.7446 33.299 41.3267 33.1025 42.0601 33.1025H44.0446V41.2334H43.1034V37.9221H42.0147L40.291 41.2334H39.225L41.0962 37.7179C40.6199 37.5743 40.2608 37.321 40.0188 36.9581C39.7845 36.5953 39.6673 36.1076 39.6673 35.4953ZM41.9807 37.0602H43.1034V33.9643H42.0601C41.614 33.9643 41.2625 34.0815 41.0054 34.3159C40.7484 34.5502 40.6199 34.9509 40.6199 35.5179C40.6199 36.0471 40.7333 36.4365 40.9601 36.686C41.1944 36.9355 41.5346 37.0602 41.9807 37.0602ZM49.7502 41.3468C48.8657 41.3468 48.1702 40.9839 47.6636 40.2581C47.1647 39.5248 46.9152 38.4853 46.9152 37.1396C46.9152 35.7863 47.1647 34.7581 47.6636 34.055C48.1702 33.352 48.8657 33.0004 49.7502 33.0004C50.6423 33.0004 51.3379 33.3557 51.8368 34.0664C52.3358 34.7695 52.5853 35.7977 52.5853 37.1509C52.5853 38.4891 52.3358 39.5248 51.8368 40.2581C51.3379 40.9839 50.6423 41.3468 49.7502 41.3468ZM49.7502 40.4849C50.3248 40.4849 50.7746 40.2241 51.0997 39.7025C51.4248 39.1808 51.5873 38.3379 51.5873 37.1736C51.5873 36.0018 51.4248 35.1588 51.0997 34.6447C50.7746 34.1231 50.3248 33.8623 49.7502 33.8623C49.1757 33.8623 48.7258 34.1231 48.4008 34.6447C48.0757 35.1588 47.9131 36.0018 47.9131 37.1736C47.9131 38.3379 48.0757 39.1808 48.4008 39.7025C48.7258 40.2241 49.1757 40.4849 49.7502 40.4849ZM53.9222 41.2334V33.1025H54.8634V40.3715H57.6758V33.1025H58.617V40.3715H59.4676V42.8437H58.6284L58.5377 41.2334H53.9222ZM60.5115 33.1025H64.3898V33.9757H61.4527V36.5612H63.9362V37.4231H61.4527V40.3602H64.4352V41.2334H60.5115V33.1025ZM65.6832 33.1025H66.6245V36.7654H69.5843V33.1025H70.5368V41.2334H69.5843V37.6386H66.6245V41.2334H65.6832V33.1025ZM74.4683 41.3468C73.5838 41.3468 72.8883 40.9839 72.3817 40.2581C71.8828 39.5248 71.6333 38.4853 71.6333 37.1396C71.6333 35.7863 71.8828 34.7581 72.3817 34.055C72.8883 33.352 73.5838 33.0004 74.4683 33.0004C75.3604 33.0004 76.056 33.3557 76.5549 34.0664C77.0539 34.7695 77.3034 35.7977 77.3034 37.1509C77.3034 38.4891 77.0539 39.5248 76.5549 40.2581C76.056 40.9839 75.3604 41.3468 74.4683 41.3468ZM74.4683 40.4849C75.0429 40.4849 75.4927 40.2241 75.8178 39.7025C76.1429 39.1808 76.3055 38.3379 76.3055 37.1736C76.3055 36.0018 76.1429 35.1588 75.8178 34.6447C75.4927 34.1231 75.0429 33.8623 74.4683 33.8623C73.8938 33.8623 73.4439 34.1231 73.1189 34.6447C72.7938 35.1588 72.6312 36.0018 72.6312 37.1736C72.6312 38.3379 72.7938 39.1808 73.1189 39.7025C73.4439 40.2241 73.8938 40.4849 74.4683 40.4849ZM78.3054 35.7788V33.1025H79.2466V35.6994C79.2466 36.2513 79.3563 36.6746 79.5755 36.9695C79.8023 37.2568 80.1652 37.4004 80.6642 37.4004C80.9212 37.4004 81.1594 37.3588 81.3786 37.2757C81.6054 37.1925 81.8095 37.0564 81.991 36.8674V33.1025H82.9322V41.2334H81.991V37.6726C81.5525 38.0355 81.0384 38.2169 80.4487 38.2169C79.7834 38.2169 79.258 38.0166 78.8724 37.6159C78.4944 37.2076 78.3054 36.5953 78.3054 35.7788ZM84.3879 33.1025H85.3292V36.7654H88.289V33.1025H89.2415V41.2334H88.289V37.6386H85.3292V41.2334H84.3879V33.1025ZM93.173 41.3468C92.2885 41.3468 91.593 40.9839 91.0864 40.2581C90.5875 39.5248 90.338 38.4853 90.338 37.1396C90.338 35.7863 90.5875 34.7581 91.0864 34.055C91.593 33.352 92.2885 33.0004 93.173 33.0004C94.0651 33.0004 94.7607 33.3557 95.2596 34.0664C95.7586 34.7695 96.0081 35.7977 96.0081 37.1509C96.0081 38.4891 95.7586 39.5248 95.2596 40.2581C94.7607 40.9839 94.0651 41.3468 93.173 41.3468ZM93.173 40.4849C93.7476 40.4849 94.1974 40.2241 94.5225 39.7025C94.8476 39.1808 95.0102 38.3379 95.0102 37.1736C95.0102 36.0018 94.8476 35.1588 94.5225 34.6447C94.1974 34.1231 93.7476 33.8623 93.173 33.8623C92.5985 33.8623 92.1486 34.1231 91.8236 34.6447C91.4985 35.1588 91.3359 36.0018 91.3359 37.1736C91.3359 38.3379 91.4985 39.1808 91.8236 39.7025C92.1486 40.2241 92.5985 40.4849 93.173 40.4849ZM99.8512 32.6489C99.3522 32.6489 98.9818 32.4939 98.7398 32.1839C98.4979 31.8664 98.377 31.4808 98.377 31.0272H99.2161C99.2161 31.3674 99.2728 31.6131 99.3862 31.7643C99.5072 31.908 99.6622 31.9798 99.8512 31.9798C100.048 31.9798 100.203 31.908 100.316 31.7643C100.437 31.6131 100.498 31.3674 100.498 31.0272H101.325C101.325 31.4808 101.204 31.8664 100.963 32.1839C100.721 32.4939 100.35 32.6489 99.8512 32.6489ZM98.3429 41.2334H97.345V33.1025H98.2862V39.5777L101.359 33.1025H102.357V41.2334H101.416V34.7581L98.3429 41.2334ZM104.961 40.3715H105.471C105.592 40.1977 105.694 39.9973 105.777 39.7705C105.868 39.5437 105.94 39.2602 105.993 38.92C106.053 38.5722 106.099 38.1413 106.129 37.6272C106.167 37.1131 106.193 36.4894 106.208 35.7561C106.231 35.0152 106.25 34.1306 106.265 33.1025H110.427V40.3715H111.277V42.8437H110.438L110.348 41.2334H105.879L105.789 42.8437H104.961V40.3715ZM106.481 40.3715H109.486V33.9757H107.138C107.131 35.0265 107.112 35.9148 107.082 36.6406C107.059 37.3588 107.021 37.9561 106.968 38.4324C106.923 38.9011 106.859 39.2904 106.775 39.6004C106.7 39.9028 106.601 40.1599 106.481 40.3715ZM112.318 33.1025H116.196V33.9757H113.259V36.5612H115.742V37.4231H113.259V40.3602H116.241V41.2334H112.318V33.1025ZM117.399 35.4953C117.399 34.6863 117.614 34.0853 118.045 33.6922C118.476 33.299 119.058 33.1025 119.791 33.1025H121.776V41.2334H120.835V37.9221H119.746L118.022 41.2334H116.956L118.828 37.7179C118.351 37.5743 117.992 37.321 117.75 36.9581C117.516 36.5953 117.399 36.1076 117.399 35.4953ZM119.712 37.0602H120.835V33.9643H119.791C119.345 33.9643 118.994 34.0815 118.737 34.3159C118.48 34.5502 118.351 34.9509 118.351 35.5179C118.351 36.0471 118.465 36.4365 118.691 36.686C118.926 36.9355 119.266 37.0602 119.712 37.0602ZM122.772 33.9757V33.1025H127.796V33.9757H125.755V41.2334H124.814V33.9757H122.772ZM128.796 33.1025H132.675V33.9757H129.738V36.5612H132.221V37.4231H129.738V40.3602H132.72V41.2334H128.796V33.1025ZM133.412 40.2922C133.783 40.3148 134.036 40.2355 134.172 40.054C134.316 39.865 134.414 39.5248 134.467 39.0334C134.497 38.7688 134.52 38.4777 134.535 38.1602C134.558 37.8351 134.577 37.4495 134.592 37.0035C134.607 36.5575 134.618 36.0207 134.626 35.3932C134.633 34.7581 134.637 33.9946 134.637 33.1025H138.629V41.2334H137.688V33.9757H135.522C135.514 35.2382 135.499 36.2815 135.476 37.1056C135.454 37.9221 135.416 38.5874 135.363 39.1014C135.287 39.9028 135.095 40.4736 134.785 40.8138C134.475 41.154 134.017 41.309 133.412 41.2788V40.2922ZM140.081 41.2334V33.1025H141.022V36.1757H141.941C142.727 36.1757 143.34 36.376 143.778 36.7767C144.224 37.1698 144.447 37.7746 144.447 38.5911C144.447 39.2111 144.338 39.7176 144.118 40.1107C143.907 40.4963 143.608 40.7798 143.222 40.9612C142.837 41.1427 142.395 41.2334 141.896 41.2334H140.081ZM141.896 40.3715C142.387 40.3715 142.776 40.2355 143.064 39.9633C143.359 39.6836 143.506 39.23 143.506 38.6025C143.506 38.0733 143.37 37.6801 143.098 37.4231C142.826 37.166 142.44 37.0375 141.941 37.0375H141.022V40.3715H141.896ZM145.585 33.1025H146.526V36.7654H149.486V33.1025H150.439V41.2334H149.486V37.6386H146.526V41.2334H145.585V33.1025ZM154.37 41.3468C153.486 41.3468 152.79 40.9839 152.284 40.2581C151.785 39.5248 151.535 38.4853 151.535 37.1396C151.535 35.7863 151.785 34.7581 152.284 34.055C152.79 33.352 153.486 33.0004 154.37 33.0004C155.262 33.0004 155.958 33.3557 156.457 34.0664C156.956 34.7695 157.205 35.7977 157.205 37.1509C157.205 38.4891 156.956 39.5248 156.457 40.2581C155.958 40.9839 155.262 41.3468 154.37 41.3468ZM154.37 40.4849C154.945 40.4849 155.395 40.2241 155.72 39.7025C156.045 39.1808 156.207 38.3379 156.207 37.1736C156.207 36.0018 156.045 35.1588 155.72 34.6447C155.395 34.1231 154.945 33.8623 154.37 33.8623C153.796 33.8623 153.346 34.1231 153.021 34.6447C152.696 35.1588 152.533 36.0018 152.533 37.1736C152.533 38.3379 152.696 39.1808 153.021 39.7025C153.346 40.2241 153.796 40.4849 154.37 40.4849ZM161.219 41.3468C160.258 41.3468 159.514 40.9764 158.985 40.2355C158.463 39.4946 158.202 38.4739 158.202 37.1736C158.202 35.8657 158.463 34.8451 158.985 34.1117C159.506 33.3709 160.262 33.0004 161.253 33.0004C161.993 33.0004 162.598 33.1894 163.067 33.5674V34.486C162.833 34.2894 162.553 34.1382 162.228 34.0324C161.903 33.919 161.581 33.8623 161.264 33.8623C160.546 33.8623 160.024 34.142 159.699 34.7014C159.374 35.2609 159.211 36.0849 159.211 37.1736C159.211 38.2623 159.381 39.0863 159.722 39.6458C160.069 40.2052 160.606 40.4849 161.332 40.4849C161.967 40.4849 162.545 40.2468 163.067 39.7705V40.6891C162.87 40.8856 162.602 41.0444 162.262 41.1654C161.929 41.2863 161.581 41.3468 161.219 41.3468ZM163.869 33.9757V33.1025H168.893V33.9757H166.852V41.2334H165.911V33.9757H163.869ZM169.894 41.2334V33.1025H170.835V36.1757H171.753C172.54 36.1757 173.152 36.376 173.59 36.7767C174.036 37.1698 174.26 37.7746 174.26 38.5911C174.26 39.2111 174.15 39.7176 173.931 40.1107C173.719 40.4963 173.42 40.7798 173.035 40.9612C172.649 41.1427 172.207 41.2334 171.708 41.2334H169.894ZM171.708 40.3715C172.199 40.3715 172.589 40.2355 172.876 39.9633C173.171 39.6836 173.318 39.23 173.318 38.6025C173.318 38.0733 173.182 37.6801 172.91 37.4231C172.638 37.166 172.252 37.0375 171.753 37.0375H170.835V40.3715H171.708ZM180.194 41.3468C179.695 41.3468 179.242 41.2183 178.834 40.9612C178.425 40.7042 178.093 40.3035 177.836 39.7592C177.586 39.2148 177.443 38.508 177.405 37.6386H176.339V41.2334H175.398V33.1025H176.339V36.7654H177.405C177.443 35.8884 177.586 35.1739 177.836 34.6221C178.093 34.0702 178.425 33.6619 178.834 33.3973C179.242 33.1327 179.695 33.0004 180.194 33.0004C180.716 33.0004 181.189 33.1441 181.612 33.4313C182.035 33.7111 182.368 34.1571 182.61 34.7695C182.859 35.3743 182.984 36.1643 182.984 37.1396C182.984 38.1148 182.859 38.9124 182.61 39.5324C182.368 40.1523 182.035 40.6097 181.612 40.9045C181.189 41.1994 180.716 41.3468 180.194 41.3468ZM180.194 40.4849C180.542 40.4849 180.848 40.3867 181.113 40.1901C181.385 39.9935 181.601 39.6571 181.759 39.1808C181.918 38.697 181.998 38.0279 181.998 37.1736C181.998 36.3193 181.918 35.654 181.759 35.1777C181.601 34.6939 181.385 34.3537 181.113 34.1571C180.848 33.9605 180.542 33.8623 180.194 33.8623C179.854 33.8623 179.548 33.9605 179.276 34.1571C179.004 34.3537 178.788 34.6939 178.629 35.1777C178.478 35.654 178.403 36.3193 178.403 37.1736C178.403 38.0279 178.478 38.697 178.629 39.1808C178.788 39.6571 179.004 39.9935 179.276 40.1901C179.548 40.3867 179.854 40.4849 180.194 40.4849ZM184.079 41.3014C183.89 41.3014 183.735 41.2372 183.614 41.1087C183.501 40.9801 183.444 40.8214 183.444 40.6324C183.444 40.4358 183.501 40.277 183.614 40.1561C183.735 40.0276 183.89 39.9633 184.079 39.9633C184.253 39.9633 184.4 40.0276 184.521 40.1561C184.642 40.277 184.703 40.4358 184.703 40.6324C184.703 40.8214 184.642 40.9801 184.521 41.1087C184.4 41.2372 184.253 41.3014 184.079 41.3014Z" fill="white"/>
</svg>
