<svg width="597" height="56" viewBox="0 0 597 56" fill="none" xmlns="http://www.w3.org/2000/svg">
<path opacity="0.6" d="M7.33402 13.2386H5.72202L3.70702 9.30931L5.72202 5.38006H7.33402L5.31902 9.30931L7.33402 13.2386ZM3.98912 13.2386H2.37712L0.362119 9.30931L2.37712 5.38006H3.98912L1.99427 9.30931L3.98912 13.2386ZM18.0565 14.6289H16.3236L15.2556 10.3773H10.9234L9.81515 14.6289H8.28375L12.0921 0.181355H14.3086L18.0565 14.6289ZM11.3062 8.88616H14.8728L13.1197 1.95456L11.3062 8.88616ZM19.9744 0.181355H23.279C24.6357 0.181355 25.6768 0.450021 26.4022 0.987354C27.1411 1.52469 27.5105 2.43144 27.5105 3.7076C27.5105 4.74197 27.2687 5.52782 26.7851 6.06516C26.3149 6.58906 25.697 6.94504 24.9313 7.13311C25.885 7.28087 26.6172 7.61671 27.1276 8.14061C27.6381 8.66451 27.8933 9.44364 27.8933 10.478C27.8933 11.4721 27.6851 12.2781 27.2687 12.896C26.8657 13.5005 26.3082 13.9438 25.5962 14.2259C24.8977 14.4946 24.1118 14.6289 23.2387 14.6289H19.9744V0.181355ZM23.279 6.44801C24.0312 6.44801 24.6425 6.24651 25.1126 5.84351C25.5828 5.42707 25.8179 4.75541 25.8179 3.82851C25.8179 3.04937 25.6029 2.50532 25.1731 2.19635C24.7432 1.87395 24.1387 1.71275 23.3596 1.71275H21.6468V6.44801H23.279ZM23.3394 13.0975C24.1723 13.0975 24.844 12.9094 25.3544 12.5333C25.8783 12.1572 26.1403 11.4855 26.1403 10.5183C26.1403 9.59141 25.8985 8.93989 25.4149 8.56376C24.9313 8.17419 24.1924 7.97941 23.1984 7.97941H21.6468V13.0975H23.3394ZM28.7711 1.7329V0.181355H37.6976V1.7329H34.0706V14.6289H32.3981V1.7329H28.7711ZM43.1996 14.8304C41.6279 14.8304 40.392 14.1856 39.492 12.896C38.6054 11.593 38.1621 9.74589 38.1621 7.35476C38.1621 4.95019 38.6054 3.12325 39.492 1.87395C40.392 0.624655 41.6279 4.92122e-06 43.1996 4.92122e-06C44.7847 4.92122e-06 46.0206 0.631372 46.9072 1.8941C47.7938 3.1434 48.2371 4.97034 48.2371 7.37491C48.2371 9.75261 47.7938 11.593 46.9072 12.896C46.0206 14.1856 44.7847 14.8304 43.1996 14.8304ZM43.1996 13.299C44.2205 13.299 45.0198 12.8356 45.5975 11.9087C46.1751 10.9818 46.4639 9.48394 46.4639 7.41521C46.4639 5.33304 46.1751 3.83522 45.5975 2.92175C45.0198 1.99485 44.2205 1.5314 43.1996 1.5314C42.1787 1.5314 41.3794 1.99485 40.8018 2.92175C40.2241 3.83522 39.9353 5.33304 39.9353 7.41521C39.9353 9.48394 40.2241 10.9818 40.8018 11.9087C41.3794 12.8356 42.1787 13.299 43.1996 13.299ZM50.5715 14.7498C50.2357 14.7498 49.9603 14.6356 49.7454 14.4073C49.5439 14.1789 49.4431 13.8968 49.4431 13.561C49.4431 13.2117 49.5439 12.9296 49.7454 12.7147C49.9603 12.4863 50.2357 12.3721 50.5715 12.3721C50.8805 12.3721 51.1424 12.4863 51.3574 12.7147C51.5723 12.9296 51.6798 13.2117 51.6798 13.561C51.6798 13.8968 51.5723 14.1789 51.3574 14.4073C51.1424 14.6356 50.8805 14.7498 50.5715 14.7498ZM53.8791 0.181355H56.9822C58.3793 0.181355 59.4674 0.517188 60.2465 1.18885C61.0391 1.86052 61.4354 2.90832 61.4354 4.33225C61.4354 5.40692 61.2406 6.28009 60.851 6.95176C60.4749 7.62342 59.9443 8.11374 59.2592 8.42271C58.5741 8.73167 57.7882 8.88616 56.9016 8.88616H55.5516V14.6289H53.8791V0.181355ZM56.9016 7.35476C57.7748 7.35476 58.4666 7.12639 58.9771 6.66966C59.501 6.19949 59.7629 5.42707 59.7629 4.3524C59.7629 3.43894 59.5211 2.77399 59.0375 2.35755C58.5539 1.92769 57.8688 1.71275 56.9822 1.71275H55.5516V7.35476H56.9016ZM63.465 13.0371C63.5725 13.0505 63.6934 13.0639 63.8277 13.0774C63.962 13.0774 64.1031 13.0774 64.2508 13.0774C64.7747 13.0774 65.2113 12.9296 65.5606 12.6341C65.9233 12.3251 66.2255 11.8415 66.4673 11.1833L62.4373 0.181355H64.2911L67.2935 8.66451L69.8525 0.181355H71.5451L68.1801 10.7198C67.7234 12.1437 67.1995 13.158 66.6084 13.7625C66.0308 14.3535 65.2718 14.6491 64.3314 14.6491C64.1568 14.6491 64.0023 14.6423 63.868 14.6289C63.7471 14.6289 63.6128 14.6222 63.465 14.6088V13.0371ZM80.666 14.8304C79.0943 14.8304 77.8584 14.1856 76.9584 12.896C76.0718 11.593 75.6285 9.74589 75.6285 7.35476C75.6285 4.95019 76.0718 3.12325 76.9584 1.87395C77.8584 0.624655 79.0943 4.92122e-06 80.666 4.92122e-06C82.2511 4.92122e-06 83.487 0.631372 84.3736 1.8941C85.2602 3.1434 85.7035 4.97034 85.7035 7.37491C85.7035 9.75261 85.2602 11.593 84.3736 12.896C83.487 14.1856 82.2511 14.8304 80.666 14.8304ZM80.666 13.299C81.6869 13.299 82.4862 12.8356 83.0639 11.9087C83.6415 10.9818 83.9303 9.48394 83.9303 7.41521C83.9303 5.33304 83.6415 3.83522 83.0639 2.92175C82.4862 1.99485 81.6869 1.5314 80.666 1.5314C79.6451 1.5314 78.8458 1.99485 78.2682 2.92175C77.6905 3.83522 77.4017 5.33304 77.4017 7.41521C77.4017 9.48394 77.6905 10.9818 78.2682 11.9087C78.8458 12.8356 79.6451 13.299 80.666 13.299ZM88.079 14.6289V0.181355H89.7515V13.0975H94.7487V0.181355H96.4211V13.0975H97.9324V17.4902H96.4413L96.2801 14.6289H88.079ZM99.7873 0.181355H106.679V1.7329H101.46V6.32711H105.873V7.85851H101.46V13.0774H106.759V14.6289H99.7873V0.181355ZM108.977 0.181355H110.649V6.68981H115.908V0.181355H117.601V14.6289H115.908V8.24136H110.649V14.6289H108.977V0.181355ZM128.637 14.6289H126.622L123.217 8.24136H121.826V14.6289H120.154V0.181355H121.826V6.70996H123.217L126.622 0.181355H128.476L124.687 7.33461L128.637 14.6289ZM139.035 14.6289H137.302L136.234 10.3773H131.902L130.794 14.6289H129.262L133.071 0.181355H135.287L139.035 14.6289ZM132.285 8.88616H135.852L134.098 1.95456L132.285 8.88616ZM143.613 13.2386L145.608 9.30931L143.613 5.38006H145.225L147.24 9.30931L145.225 13.2386H143.613ZM140.268 13.2386L142.283 9.30931L140.268 5.38006H141.88L143.895 9.30931L141.88 13.2386H140.268ZM152.347 0.181355H160.689V14.6289H159.016V1.7329H154.019V14.6289H152.347V0.181355ZM167.701 14.8304C166.129 14.8304 164.893 14.1856 163.993 12.896C163.106 11.593 162.663 9.74589 162.663 7.35476C162.663 4.95019 163.106 3.12325 163.993 1.87395C164.893 0.624655 166.129 4.92122e-06 167.701 4.92122e-06C169.286 4.92122e-06 170.522 0.631372 171.408 1.8941C172.295 3.1434 172.738 4.97034 172.738 7.37491C172.738 9.75261 172.295 11.593 171.408 12.896C170.522 14.1856 169.286 14.8304 167.701 14.8304ZM167.701 13.299C168.722 13.299 169.521 12.8356 170.098 11.9087C170.676 10.9818 170.965 9.48394 170.965 7.41521C170.965 5.33304 170.676 3.83522 170.098 2.92175C169.521 1.99485 168.722 1.5314 167.701 1.5314C166.68 1.5314 165.88 1.99485 165.303 2.92175C164.725 3.83522 164.436 5.33304 164.436 7.41521C164.436 9.48394 164.725 10.9818 165.303 11.9087C165.88 12.8356 166.68 13.299 167.701 13.299ZM183.597 14.6289H181.582L178.176 8.24136H176.786V14.6289H175.114V0.181355H176.786V6.70996H178.176L181.582 0.181355H183.436L179.647 7.33461L183.597 14.6289ZM193.995 14.6289H192.262L191.194 10.3773H186.862L185.754 14.6289H184.222L188.031 0.181355H190.247L193.995 14.6289ZM187.245 8.88616H190.811L189.058 1.95456L187.245 8.88616ZM198.535 14.8304C197.393 14.8304 196.332 14.5416 195.351 13.964V12.3318C195.915 12.6676 196.446 12.9162 196.943 13.0774C197.453 13.2251 197.977 13.299 198.515 13.299C198.998 13.299 199.448 13.2117 199.865 13.0371C200.295 12.8624 200.637 12.5736 200.892 12.1706C201.161 11.7542 201.295 11.2034 201.295 10.5183C201.295 9.57797 201.067 8.91302 200.61 8.52346C200.154 8.13389 199.462 7.93911 198.535 7.93911H197.265V6.48831H198.535C199.314 6.48831 199.912 6.25994 200.328 5.80321C200.745 5.34647 200.953 4.68152 200.953 3.80836C200.953 2.98892 200.738 2.40457 200.308 2.05531C199.892 1.70604 199.354 1.5314 198.696 1.5314C197.689 1.5314 196.621 1.8538 195.492 2.4986V0.866455C196.513 0.288821 197.608 4.92122e-06 198.777 4.92122e-06C199.945 4.92122e-06 200.879 0.302255 201.578 0.906754C202.289 1.51125 202.645 2.41129 202.645 3.60685C202.645 4.56062 202.424 5.33304 201.981 5.92411C201.551 6.50174 200.946 6.89802 200.167 7.11296C201.08 7.26072 201.786 7.60999 202.283 8.16076C202.78 8.71152 203.028 9.48394 203.028 10.478C203.028 11.4989 202.82 12.3318 202.404 12.9766C201.987 13.6214 201.436 14.0916 200.751 14.3871C200.066 14.6826 199.327 14.8304 198.535 14.8304ZM205.083 14.6289V0.181355H206.755V5.64201H208.387C209.784 5.64201 210.873 5.99799 211.652 6.70996C212.444 7.40849 212.841 8.48316 212.841 9.93396C212.841 11.0355 212.646 11.9355 212.256 12.6341C211.88 13.3192 211.349 13.8229 210.664 14.1453C209.979 14.4677 209.193 14.6289 208.307 14.6289H205.083ZM214.13 0.201505H215.803V14.6289H214.13V0.201505ZM208.307 13.0975C209.18 13.0975 209.872 12.8557 210.382 12.3721C210.906 11.8751 211.168 11.0691 211.168 9.95411C211.168 9.01377 210.926 8.31524 210.443 7.85851C209.959 7.40177 209.274 7.17341 208.387 7.17341H206.755V13.0975H208.307ZM218.385 0.181355H221.69C223.046 0.181355 224.087 0.450021 224.813 0.987354C225.552 1.52469 225.921 2.43144 225.921 3.7076C225.921 4.74197 225.679 5.52782 225.196 6.06516C224.726 6.58906 224.108 6.94504 223.342 7.13311C224.296 7.28087 225.028 7.61671 225.538 8.14061C226.049 8.66451 226.304 9.44364 226.304 10.478C226.304 11.4721 226.096 12.2781 225.679 12.896C225.276 13.5005 224.719 13.9438 224.007 14.2259C223.308 14.4946 222.522 14.6289 221.649 14.6289H218.385V0.181355ZM221.69 6.44801C222.442 6.44801 223.053 6.24651 223.523 5.84351C223.993 5.42707 224.228 4.75541 224.228 3.82851C224.228 3.04937 224.014 2.50532 223.584 2.19635C223.154 1.87395 222.549 1.71275 221.77 1.71275H220.057V6.44801H221.69ZM221.75 13.0975C222.583 13.0975 223.255 12.9094 223.765 12.5333C224.289 12.1572 224.551 11.4855 224.551 10.5183C224.551 9.59141 224.309 8.93989 223.825 8.56376C223.342 8.17419 222.603 7.97941 221.609 7.97941H220.057V13.0975H221.75ZM236.932 14.6289H235.199L234.131 10.3773H229.799L228.691 14.6289H227.159L230.968 0.181355H233.184L236.932 14.6289ZM230.182 8.88616H233.748L231.995 1.95456L230.182 8.88616ZM238.85 0.181355H245.741V1.7329H240.522V6.32711H244.935V7.85851H240.522V13.0774H245.822V14.6289H238.85V0.181355ZM247.135 1.7329V0.181355H256.061V1.7329H252.434V14.6289H250.762V1.7329H247.135ZM265.401 14.8304C263.829 14.8304 262.593 14.1856 261.693 12.896C260.806 11.593 260.363 9.74589 260.363 7.35476C260.363 4.95019 260.806 3.12325 261.693 1.87395C262.593 0.624655 263.829 4.92122e-06 265.401 4.92122e-06C266.986 4.92122e-06 268.222 0.631372 269.108 1.8941C269.995 3.1434 270.438 4.97034 270.438 7.37491C270.438 9.75261 269.995 11.593 269.108 12.896C268.222 14.1856 266.986 14.8304 265.401 14.8304ZM265.401 13.299C266.422 13.299 267.221 12.8356 267.798 11.9087C268.376 10.9818 268.665 9.48394 268.665 7.41521C268.665 5.33304 268.376 3.83522 267.798 2.92175C267.221 1.99485 266.422 1.5314 265.401 1.5314C264.38 1.5314 263.58 1.99485 263.003 2.92175C262.425 3.83522 262.136 5.33304 262.136 7.41521C262.136 9.48394 262.425 10.9818 263.003 11.9087C263.58 12.8356 264.38 13.299 265.401 13.299ZM272.814 0.181355H275.917C277.314 0.181355 278.402 0.517188 279.181 1.18885C279.974 1.86052 280.37 2.90832 280.37 4.33225C280.37 5.40692 280.175 6.28009 279.785 6.95176C279.409 7.62342 278.879 8.11374 278.194 8.42271C277.509 8.73167 276.723 8.88616 275.836 8.88616H274.486V14.6289H272.814V0.181355ZM275.836 7.35476C276.709 7.35476 277.401 7.12639 277.912 6.66966C278.435 6.19949 278.697 5.42707 278.697 4.3524C278.697 3.43894 278.456 2.77399 277.972 2.35755C277.488 1.92769 276.803 1.71275 275.917 1.71275H274.486V7.35476H275.836ZM284.052 14.6289H282.279V0.181355H283.951V11.687L289.412 0.181355H291.185V14.6289H289.512V3.12325L284.052 14.6289ZM293.77 0.181355H300.662V1.7329H295.443V6.32711H299.856V7.85851H295.443V13.0774H300.742V14.6289H293.77V0.181355ZM302.96 0.181355H304.632V6.68981H309.891V0.181355H311.584V14.6289H309.891V8.24136H304.632V14.6289H302.96V0.181355ZM313.331 1.7329V0.181355H322.257V1.7329H318.63V14.6289H316.958V1.7329H313.331ZM325.808 14.6289H324.035V0.181355H325.707V11.687L331.168 0.181355H332.941V14.6289H331.269V3.12325L325.808 14.6289ZM335.527 0.181355H338.63C340.027 0.181355 341.115 0.517188 341.894 1.18885C342.687 1.86052 343.083 2.90832 343.083 4.33225C343.083 5.40692 342.888 6.28009 342.498 6.95176C342.122 7.62342 341.592 8.11374 340.907 8.42271C340.221 8.73167 339.436 8.88616 338.549 8.88616H337.199V14.6289H335.527V0.181355ZM338.549 7.35476C339.422 7.35476 340.114 7.12639 340.624 6.66966C341.148 6.19949 341.41 5.42707 341.41 4.3524C341.41 3.43894 341.169 2.77399 340.685 2.35755C340.201 1.92769 339.516 1.71275 338.63 1.71275H337.199V7.35476H338.549ZM349.425 14.8304C347.853 14.8304 346.617 14.1856 345.717 12.896C344.83 11.593 344.387 9.74589 344.387 7.35476C344.387 4.95019 344.83 3.12325 345.717 1.87395C346.617 0.624655 347.853 4.92122e-06 349.425 4.92122e-06C351.01 4.92122e-06 352.246 0.631372 353.132 1.8941C354.019 3.1434 354.462 4.97034 354.462 7.37491C354.462 9.75261 354.019 11.593 353.132 12.896C352.246 14.1856 351.01 14.8304 349.425 14.8304ZM349.425 13.299C350.445 13.299 351.245 12.8356 351.822 11.9087C352.4 10.9818 352.689 9.48394 352.689 7.41521C352.689 5.33304 352.4 3.83522 351.822 2.92175C351.245 1.99485 350.445 1.5314 349.425 1.5314C348.404 1.5314 347.604 1.99485 347.027 2.92175C346.449 3.83522 346.16 5.33304 346.16 7.41521C346.16 9.48394 346.449 10.9818 347.027 11.9087C347.604 12.8356 348.404 13.299 349.425 13.299ZM356.838 0.181355H360.142C361.499 0.181355 362.54 0.450021 363.265 0.987354C364.004 1.52469 364.374 2.43144 364.374 3.7076C364.374 4.74197 364.132 5.52782 363.648 6.06516C363.178 6.58906 362.56 6.94504 361.794 7.13311C362.748 7.28087 363.48 7.61671 363.991 8.14061C364.501 8.66451 364.756 9.44364 364.756 10.478C364.756 11.4721 364.548 12.2781 364.132 12.896C363.729 13.5005 363.171 13.9438 362.459 14.2259C361.761 14.4946 360.975 14.6289 360.102 14.6289H356.838V0.181355ZM360.142 6.44801C360.894 6.44801 361.506 6.24651 361.976 5.84351C362.446 5.42707 362.681 4.75541 362.681 3.82851C362.681 3.04937 362.466 2.50532 362.036 2.19635C361.606 1.87395 361.002 1.71275 360.223 1.71275H358.51V6.44801H360.142ZM360.203 13.0975C361.035 13.0975 361.707 12.9094 362.218 12.5333C362.741 12.1572 363.003 11.4855 363.003 10.5183C363.003 9.59141 362.762 8.93989 362.278 8.56376C361.794 8.17419 361.056 7.97941 360.062 7.97941H358.51V13.0975H360.203ZM371.168 14.8304C369.597 14.8304 368.361 14.1856 367.461 12.896C366.574 11.593 366.131 9.74589 366.131 7.35476C366.131 4.95019 366.574 3.12325 367.461 1.87395C368.361 0.624655 369.597 4.92122e-06 371.168 4.92122e-06C372.754 4.92122e-06 373.989 0.631372 374.876 1.8941C375.763 3.1434 376.206 4.97034 376.206 7.37491C376.206 9.75261 375.763 11.593 374.876 12.896C373.989 14.1856 372.754 14.8304 371.168 14.8304ZM371.168 13.299C372.189 13.299 372.989 12.8356 373.566 11.9087C374.144 10.9818 374.433 9.48394 374.433 7.41521C374.433 5.33304 374.144 3.83522 373.566 2.92175C372.989 1.99485 372.189 1.5314 371.168 1.5314C370.147 1.5314 369.348 1.99485 368.771 2.92175C368.193 3.83522 367.904 5.33304 367.904 7.41521C367.904 9.48394 368.193 10.9818 368.771 11.9087C369.348 12.8356 370.147 13.299 371.168 13.299ZM377.986 4.93675V0.181355H379.659V4.7957C379.659 5.77634 379.854 6.52861 380.243 7.05251C380.646 7.56297 381.291 7.81821 382.178 7.81821C382.634 7.81821 383.057 7.74432 383.447 7.59656C383.85 7.44879 384.213 7.20699 384.535 6.87116V0.181355H386.208V14.6289H384.535V8.30181C383.756 8.94661 382.843 9.26901 381.795 9.26901C380.613 9.26901 379.679 8.91302 378.994 8.20106C378.322 7.47566 377.986 6.38756 377.986 4.93675ZM388.794 0.181355H390.467V6.68981H395.726V0.181355H397.418V14.6289H395.726V8.24136H390.467V14.6289H388.794V0.181355ZM400.092 13.0371C400.199 13.0505 400.32 13.0639 400.455 13.0774C400.589 13.0774 400.73 13.0774 400.878 13.0774C401.402 13.0774 401.838 12.9296 402.188 12.6341C402.55 12.3251 402.853 11.8415 403.094 11.1833L399.064 0.181355H400.918L403.921 8.66451L406.48 0.181355H408.172L404.807 10.7198C404.35 12.1437 403.826 13.158 403.235 13.7625C402.658 14.3535 401.899 14.6491 400.958 14.6491C400.784 14.6491 400.629 14.6423 400.495 14.6289C400.374 14.6289 400.24 14.6222 400.092 14.6088V13.0371ZM418.255 14.8304C417.368 14.8304 416.562 14.602 415.837 14.1453C415.111 13.6886 414.52 12.9766 414.064 12.0094C413.62 11.0422 413.365 9.78619 413.298 8.24136H411.404V14.6289H409.731V0.181355H411.404V6.68981H413.298C413.365 5.13154 413.62 3.86209 414.064 2.88146C414.52 1.90082 415.111 1.17542 415.837 0.705254C416.562 0.235088 417.368 4.92122e-06 418.255 4.92122e-06C419.182 4.92122e-06 420.021 0.255238 420.773 0.765705C421.526 1.26274 422.117 2.0553 422.547 3.1434C422.99 4.21807 423.212 5.62186 423.212 7.35476C423.212 9.08766 422.99 10.5049 422.547 11.6064C422.117 12.7079 421.526 13.5207 420.773 14.0446C420.021 14.5685 419.182 14.8304 418.255 14.8304ZM418.255 13.299C418.873 13.299 419.417 13.1244 419.887 12.7751C420.37 12.4258 420.753 11.8281 421.035 10.9818C421.318 10.122 421.459 8.93317 421.459 7.41521C421.459 5.89724 421.318 4.71511 421.035 3.8688C420.753 3.00907 420.37 2.40457 419.887 2.05531C419.417 1.70604 418.873 1.5314 418.255 1.5314C417.65 1.5314 417.106 1.70604 416.623 2.05531C416.139 2.40457 415.756 3.00907 415.474 3.8688C415.205 4.71511 415.071 5.89724 415.071 7.41521C415.071 8.93317 415.205 10.122 415.474 10.9818C415.756 11.8281 416.139 12.4258 416.623 12.7751C417.106 13.1244 417.65 13.299 418.255 13.299ZM428.327 14.6289V0.181355H429.999V13.0975H434.996V0.181355H436.669V13.0975H438.18V17.4902H436.689L436.528 14.6289H428.327ZM440.035 0.181355H446.926V1.7329H441.707V6.32711H446.12V7.85851H441.707V13.0774H447.007V14.6289H440.035V0.181355ZM449.225 0.181355H450.897V6.68981H456.156V0.181355H457.849V14.6289H456.156V8.24136H450.897V14.6289H449.225V0.181355ZM460.522 13.0371C460.63 13.0505 460.751 13.0639 460.885 13.0774C461.019 13.0774 461.16 13.0774 461.308 13.0774C461.832 13.0774 462.269 12.9296 462.618 12.6341C462.981 12.3251 463.283 11.8415 463.525 11.1833L459.495 0.181355H461.348L464.351 8.66451L466.91 0.181355H468.602L465.237 10.7198C464.781 12.1437 464.257 13.158 463.666 13.7625C463.088 14.3535 462.329 14.6491 461.389 14.6491C461.214 14.6491 461.06 14.6423 460.925 14.6289C460.804 14.6289 460.67 14.6222 460.522 14.6088V13.0371ZM468.92 14.7498C468.584 14.7498 468.309 14.6356 468.094 14.4073C467.893 14.1789 467.792 13.8968 467.792 13.561C467.792 13.2117 467.893 12.9296 468.094 12.7147C468.309 12.4863 468.584 12.3721 468.92 12.3721C469.229 12.3721 469.491 12.4863 469.706 12.7147C469.921 12.9296 470.028 13.2117 470.028 13.561C470.028 13.8968 469.921 14.1789 469.706 14.4073C469.491 14.6356 469.229 14.7498 468.92 14.7498ZM474.268 13.0975H475.175C475.39 12.7885 475.571 12.4326 475.719 12.0296C475.88 11.6266 476.008 11.1228 476.102 10.5183C476.21 9.90037 476.29 9.13467 476.344 8.22121C476.411 7.30774 476.458 6.19949 476.485 4.89646C476.525 3.57999 476.559 2.00829 476.586 0.181355H483.981V13.0975H485.492V17.4902H484.001L483.84 14.6289H475.901L475.739 17.4902H474.268V13.0975ZM476.969 13.0975H482.308V1.7329H478.137C478.124 3.60014 478.09 5.17855 478.036 6.46816C477.996 7.74432 477.929 8.80556 477.835 9.65186C477.754 10.4847 477.64 11.1765 477.492 11.7273C477.358 12.2646 477.183 12.7214 476.969 13.0975ZM491.38 14.8304C489.808 14.8304 488.572 14.1856 487.672 12.896C486.786 11.593 486.342 9.74589 486.342 7.35476C486.342 4.95019 486.786 3.12325 487.672 1.87395C488.572 0.624655 489.808 4.92122e-06 491.38 4.92122e-06C492.965 4.92122e-06 494.201 0.631372 495.087 1.8941C495.974 3.1434 496.417 4.97034 496.417 7.37491C496.417 9.75261 495.974 11.593 495.087 12.896C494.201 14.1856 492.965 14.8304 491.38 14.8304ZM491.38 13.299C492.401 13.299 493.2 12.8356 493.778 11.9087C494.355 10.9818 494.644 9.48394 494.644 7.41521C494.644 5.33304 494.355 3.83522 493.778 2.92175C493.2 1.99485 492.401 1.5314 491.38 1.5314C490.359 1.5314 489.559 1.99485 488.982 2.92175C488.404 3.83522 488.115 5.33304 488.115 7.41521C488.115 9.48394 488.404 10.9818 488.982 11.9087C489.559 12.8356 490.359 13.299 491.38 13.299ZM503.548 14.8304C501.842 14.8304 500.519 14.1722 499.579 12.8557C498.652 11.5392 498.188 9.72574 498.188 7.41521C498.188 5.09124 498.652 3.27774 499.579 1.9747C500.505 0.658238 501.849 4.92122e-06 503.609 4.92122e-06C504.925 4.92122e-06 506 0.335838 506.833 1.0075V2.63965C506.416 2.29039 505.919 2.02172 505.341 1.83365C504.764 1.63215 504.193 1.5314 503.629 1.5314C502.353 1.5314 501.426 2.02844 500.848 3.0225C500.27 4.01657 499.982 5.48081 499.982 7.41521C499.982 9.34961 500.284 10.8138 500.888 11.8079C501.506 12.802 502.46 13.299 503.75 13.299C504.878 13.299 505.906 12.8759 506.833 12.0296V13.6617C506.483 14.011 506.006 14.2931 505.402 14.508C504.811 14.7229 504.193 14.8304 503.548 14.8304ZM508.259 1.7329V0.181355H517.185V1.7329H513.558V14.6289H511.886V1.7329H508.259ZM519.28 13.0371C519.388 13.0505 519.508 13.0639 519.643 13.0774C519.777 13.0774 519.918 13.0774 520.066 13.0774C520.59 13.0774 521.026 12.9296 521.376 12.6341C521.738 12.3251 522.041 11.8415 522.282 11.1833L518.252 0.181355H520.106L523.109 8.66451L525.668 0.181355H527.36L523.995 10.7198C523.538 12.1437 523.015 13.158 522.423 13.7625C521.846 14.3535 521.087 14.6491 520.147 14.6491C519.972 14.6491 519.817 14.6423 519.683 14.6289C519.562 14.6289 519.428 14.6222 519.28 14.6088V13.0371ZM528.919 0.181355H537.261V14.6289H535.589V1.7329H530.592V14.6289H528.919V0.181355ZM539.84 0.181355H541.513V6.68981H546.772V0.181355H548.465V14.6289H546.772V8.24136H541.513V14.6289H539.84V0.181355ZM555.45 14.8304C553.879 14.8304 552.643 14.1856 551.743 12.896C550.856 11.593 550.413 9.74589 550.413 7.35476C550.413 4.95019 550.856 3.12325 551.743 1.87395C552.643 0.624655 553.879 4.92122e-06 555.45 4.92122e-06C557.036 4.92122e-06 558.271 0.631372 559.158 1.8941C560.045 3.1434 560.488 4.97034 560.488 7.37491C560.488 9.75261 560.045 11.593 559.158 12.896C558.271 14.1856 557.036 14.8304 555.45 14.8304ZM555.45 13.299C556.471 13.299 557.271 12.8356 557.848 11.9087C558.426 10.9818 558.715 9.48394 558.715 7.41521C558.715 5.33304 558.426 3.83522 557.848 2.92175C557.271 1.99485 556.471 1.5314 555.45 1.5314C554.43 1.5314 553.63 1.99485 553.053 2.92175C552.475 3.83522 552.186 5.33304 552.186 7.41521C552.186 9.48394 552.475 10.9818 553.053 11.9087C553.63 12.8356 554.43 13.299 555.45 13.299ZM564.904 13.0975H565.811C566.026 12.7885 566.207 12.4326 566.355 12.0296C566.516 11.6266 566.644 11.1228 566.738 10.5183C566.845 9.90037 566.926 9.13467 566.98 8.22121C567.047 7.30774 567.094 6.19949 567.121 4.89646C567.161 3.57999 567.194 2.00829 567.221 0.181355H574.616V13.0975H576.128V17.4902H574.637L574.475 14.6289H566.536L566.375 17.4902H564.904V13.0975ZM567.604 13.0975H572.944V1.7329H568.773C568.759 3.60014 568.726 5.17855 568.672 6.46816C568.632 7.74432 568.565 8.80556 568.471 9.65186C568.39 10.4847 568.276 11.1765 568.128 11.7273C567.994 12.2646 567.819 12.7214 567.604 13.0975ZM577.087 12.9565C577.745 12.9968 578.195 12.8557 578.437 12.5333C578.692 12.1975 578.867 11.593 578.961 10.7198C579.015 10.2496 579.055 9.73246 579.082 9.16826C579.122 8.59062 579.156 7.90552 579.183 7.11296C579.209 6.32039 579.23 5.36662 579.243 4.25165C579.256 3.12325 579.263 1.76649 579.263 0.181355H586.356V14.6289H584.684V1.7329H580.835C580.821 3.97627 580.795 5.83007 580.754 7.29431C580.714 8.74511 580.647 9.92724 580.553 10.8407C580.418 12.2646 580.076 13.2789 579.525 13.8834C578.974 14.4879 578.162 14.7632 577.087 14.7095V12.9565ZM588.775 4.433C588.775 2.99564 589.158 1.92769 589.924 1.22915C590.69 0.530622 591.724 0.181355 593.027 0.181355H596.553V14.6289H594.881V8.74511H592.946L589.884 14.6289H587.989L591.314 8.38241C590.468 8.12717 589.83 7.67716 589.4 7.03236C588.983 6.38756 588.775 5.52111 588.775 4.433ZM592.886 7.21371H594.881V1.71275H593.027C592.234 1.71275 591.61 1.92097 591.153 2.33741C590.696 2.75384 590.468 3.4658 590.468 4.47331C590.468 5.41364 590.669 6.10546 591.072 6.54876C591.489 6.99206 592.093 7.21371 592.886 7.21371ZM9.77217 33.6289H8.03927L6.97132 29.3773H2.63907L1.53082 33.6289H-0.000581201L3.80777 19.1814H6.02427L9.77217 33.6289ZM3.02192 27.8862H6.58847L4.83542 20.9546L3.02192 27.8862ZM11.69 19.1814H14.9946C16.3514 19.1814 17.3925 19.45 18.1179 19.9874C18.8567 20.5247 19.2261 21.4314 19.2261 22.7076C19.2261 23.742 18.9843 24.5278 18.5007 25.0652C18.0306 25.5891 17.4126 25.945 16.6469 26.1331C17.6007 26.2809 18.3328 26.6167 18.8433 27.1406C19.3538 27.6645 19.609 28.4436 19.609 29.478C19.609 30.4721 19.4008 31.2781 18.9843 31.896C18.5813 32.5005 18.0239 32.9438 17.3119 33.2259C16.6134 33.4946 15.8275 33.6289 14.9543 33.6289H11.69V19.1814ZM14.9946 25.448C15.7469 25.448 16.3581 25.2465 16.8283 24.8435C17.2985 24.4271 17.5335 23.7554 17.5335 22.8285C17.5335 22.0494 17.3186 21.5053 16.8887 21.1964C16.4589 20.874 15.8544 20.7128 15.0752 20.7128H13.3625V25.448H14.9946ZM15.0551 32.0975C15.888 32.0975 16.5596 31.9094 17.0701 31.5333C17.594 31.1572 17.8559 30.4855 17.8559 29.5183C17.8559 28.5914 17.6141 27.9399 17.1305 27.5638C16.6469 27.1742 15.9081 26.9794 14.914 26.9794H13.3625V32.0975H15.0551ZM20.4868 20.7329V19.1814H29.4132V20.7329H25.7862V33.6289H24.1138V20.7329H20.4868ZM34.9153 33.8304C33.3436 33.8304 32.1077 33.1856 31.2077 31.896C30.3211 30.593 29.8778 28.7459 29.8778 26.3548C29.8778 23.9502 30.3211 22.1233 31.2077 20.874C32.1077 19.6247 33.3436 19 34.9153 19C36.5004 19 37.7363 19.6314 38.6229 20.8941C39.5095 22.1434 39.9528 23.9703 39.9528 26.3749C39.9528 28.7526 39.5095 30.593 38.6229 31.896C37.7363 33.1856 36.5004 33.8304 34.9153 33.8304ZM34.9153 32.299C35.9362 32.299 36.7355 31.8356 37.3131 30.9087C37.8908 29.9818 38.1796 28.4839 38.1796 26.4152C38.1796 24.333 37.8908 22.8352 37.3131 21.9218C36.7355 20.9949 35.9362 20.5314 34.9153 20.5314C33.8943 20.5314 33.0951 20.9949 32.5174 21.9218C31.9398 22.8352 31.651 24.333 31.651 26.4152C31.651 28.4839 31.9398 29.9818 32.5174 30.9087C33.0951 31.8356 33.8943 32.299 34.9153 32.299ZM48.4136 31.4326H46.8822L43.8597 21.9621V33.6289H42.3283V19.1814H44.6858L47.7688 28.8534L50.9525 19.1814H53.1891V33.6289H51.5167V22.0024L48.4136 31.4326ZM60.1815 33.8304C58.6098 33.8304 57.3739 33.1856 56.4739 31.896C55.5873 30.593 55.144 28.7459 55.144 26.3548C55.144 23.9502 55.5873 22.1233 56.4739 20.874C57.3739 19.6247 58.6098 19 60.1815 19C61.7666 19 63.0025 19.6314 63.8891 20.8941C64.7757 22.1434 65.219 23.9703 65.219 26.3749C65.219 28.7526 64.7757 30.593 63.8891 31.896C63.0025 33.1856 61.7666 33.8304 60.1815 33.8304ZM60.1815 32.299C61.2024 32.299 62.0017 31.8356 62.5793 30.9087C63.157 29.9818 63.4458 28.4839 63.4458 26.4152C63.4458 24.333 63.157 22.8352 62.5793 21.9218C62.0017 20.9949 61.2024 20.5314 60.1815 20.5314C59.1606 20.5314 58.3613 20.9949 57.7836 21.9218C57.206 22.8352 56.9172 24.333 56.9172 26.4152C56.9172 28.4839 57.206 29.9818 57.7836 30.9087C58.3613 31.8356 59.1606 32.299 60.1815 32.299ZM67.5945 33.6289V19.1814H74.5664V20.7329H69.2669V25.0853H70.758C72.1148 25.0853 73.1828 25.4144 73.9619 26.0727C74.741 26.7175 75.1306 27.7585 75.1306 29.1959C75.1306 30.2571 74.9358 31.1169 74.5462 31.7751C74.1567 32.4199 73.6193 32.8901 72.9342 33.1856C72.2491 33.4811 71.47 33.6289 70.5968 33.6289H67.5945ZM70.7379 32.0975C71.5439 32.0975 72.1887 31.8893 72.6723 31.4729C73.1559 31.0564 73.3977 30.3243 73.3977 29.2765C73.3977 27.5033 72.5514 26.6167 70.8588 26.6167H69.2669V32.0975H70.7379ZM79.0098 33.6289H77.2366V19.1814H78.909V30.687L84.3697 19.1814H86.1429V33.6289H84.4704V22.1233L79.0098 33.6289ZM87.741 31.9565C88.3993 31.9968 88.8493 31.8557 89.0911 31.5333C89.3463 31.1975 89.5209 30.593 89.615 29.7198C89.6687 29.2496 89.709 28.7325 89.7359 28.1683C89.7762 27.5906 89.8098 26.9055 89.8366 26.113C89.8635 25.3204 89.8836 24.3666 89.8971 23.2517C89.9105 22.1233 89.9172 20.7665 89.9172 19.1814H97.01V33.6289H95.3376V20.7329H91.4889C91.4755 22.9763 91.4486 24.8301 91.4083 26.2943C91.368 27.7451 91.3009 28.9272 91.2068 29.8407C91.0725 31.2646 90.7299 32.2789 90.1792 32.8834C89.6284 33.4879 88.8157 33.7632 87.741 33.7095V31.9565ZM99.5905 19.1814H106.482V20.7329H101.263V25.3271H105.676V26.8585H101.263V32.0774H106.562V33.6289H99.5905V19.1814ZM113.233 18.3754C112.347 18.3754 111.688 18.1 111.258 17.5492C110.829 16.985 110.614 16.2999 110.614 15.4939H112.105C112.105 16.0984 112.205 16.535 112.407 16.8037C112.622 17.0589 112.897 17.1865 113.233 17.1865C113.582 17.1865 113.858 17.0589 114.059 16.8037C114.274 16.535 114.382 16.0984 114.382 15.4939H115.853C115.853 16.2999 115.638 16.985 115.208 17.5492C114.778 18.1 114.12 18.3754 113.233 18.3754ZM110.553 33.6289H108.78V19.1814H110.452V30.687L115.913 19.1814H117.686V33.6289H116.014V22.1233L110.553 33.6289ZM121.037 35.7245H119.889C120.09 35.4424 120.279 35.1066 120.453 34.717C120.628 34.3409 120.729 33.9983 120.755 33.6894C120.5 33.6491 120.292 33.5282 120.131 33.3267C119.983 33.1117 119.909 32.8632 119.909 32.5811C119.909 32.2184 120.01 31.9296 120.211 31.7147C120.426 31.4863 120.702 31.3721 121.037 31.3721C121.36 31.3721 121.622 31.4863 121.823 31.7147C122.038 31.943 122.146 32.2654 122.146 32.6819C122.146 33.2864 122.018 33.8707 121.763 34.4349C121.521 34.9991 121.279 35.429 121.037 35.7245ZM129.247 33.6289H127.474V19.1814H129.146V30.687L134.607 19.1814H136.38V33.6289H134.708V22.1233L129.247 33.6289ZM138.966 19.1814H140.638V25.6898H145.897V19.1814H147.59V33.6289H145.897V27.2414H140.638V33.6289H138.966V19.1814ZM154.938 18.7985H156.611V20.471C157.712 20.5381 158.686 20.7934 159.532 21.2367C160.392 21.6665 161.064 22.2979 161.547 23.1308C162.031 23.9636 162.273 24.998 162.273 26.2339C162.273 27.4429 162.031 28.4772 161.547 29.337C161.064 30.1833 160.392 30.8482 159.532 31.3318C158.686 31.802 157.712 32.0706 156.611 32.1378V34.0319H154.938V32.1378C153.85 32.0841 152.876 31.8423 152.017 31.4124C151.157 30.9691 150.478 30.331 149.981 29.4982C149.498 28.6653 149.256 27.6309 149.256 26.3951C149.256 25.1726 149.498 24.1383 149.981 23.292C150.478 22.4322 151.157 21.7673 152.017 21.2971C152.876 20.8135 153.85 20.5381 154.938 20.471V18.7985ZM150.989 26.3548C150.989 27.3623 151.157 28.1817 151.493 28.8131C151.842 29.4444 152.312 29.9146 152.903 30.2236C153.494 30.5191 154.173 30.6937 154.938 30.7475V21.8412C154.173 21.9083 153.494 22.1031 152.903 22.4255C152.312 22.7479 151.842 23.2315 151.493 23.8763C151.157 24.5211 150.989 25.3473 150.989 26.3548ZM160.56 26.2742C160.56 25.2667 160.392 24.4472 160.056 23.8159C159.721 23.1845 159.25 22.721 158.646 22.4255C158.055 22.1165 157.376 21.9352 156.611 21.8815V30.7676C157.376 30.7004 158.055 30.5057 158.646 30.1833C159.25 29.8609 159.721 29.384 160.056 28.7526C160.392 28.1078 160.56 27.2817 160.56 26.2742ZM168.389 33.8304C166.818 33.8304 165.582 33.1856 164.682 31.896C163.795 30.593 163.352 28.7459 163.352 26.3548C163.352 23.9502 163.795 22.1233 164.682 20.874C165.582 19.6247 166.818 19 168.389 19C169.974 19 171.21 19.6314 172.097 20.8941C172.984 22.1434 173.427 23.9703 173.427 26.3749C173.427 28.7526 172.984 30.593 172.097 31.896C171.21 33.1856 169.974 33.8304 168.389 33.8304ZM168.389 32.299C169.41 32.299 170.21 31.8356 170.787 30.9087C171.365 29.9818 171.654 28.4839 171.654 26.4152C171.654 24.333 171.365 22.8352 170.787 21.9218C170.21 20.9949 169.41 20.5314 168.389 20.5314C167.368 20.5314 166.569 20.9949 165.992 21.9218C165.414 22.8352 165.125 24.333 165.125 26.4152C165.125 28.4839 165.414 29.9818 165.992 30.9087C166.569 31.8356 167.368 32.299 168.389 32.299ZM175.802 19.1814H178.905C180.303 19.1814 181.391 19.5172 182.17 20.1889C182.962 20.8605 183.359 21.9083 183.359 23.3323C183.359 24.4069 183.164 25.2801 182.774 25.9518C182.398 26.6234 181.868 27.1137 181.182 27.4227C180.497 27.7317 179.711 27.8862 178.825 27.8862H177.475V33.6289H175.802V19.1814ZM178.825 26.3548C179.698 26.3548 180.39 26.1264 180.9 25.6697C181.424 25.1995 181.686 24.4271 181.686 23.3524C181.686 22.4389 181.444 21.774 180.961 21.3576C180.477 20.9277 179.792 20.7128 178.905 20.7128H177.475V26.3548H178.825ZM191.353 31.4326H189.821L186.799 21.9621V33.6289H185.267V19.1814H187.625L190.708 28.8534L193.892 19.1814H196.128V33.6289H194.456V22.0024L191.353 31.4326ZM207.533 33.6289H205.801L204.733 29.3773H200.4L199.292 33.6289H197.761L201.569 19.1814H203.786L207.533 33.6289ZM200.783 27.8862H204.35L202.597 20.9546L200.783 27.8862ZM209.451 33.6289V19.1814H211.124V32.0975H216.121V19.1814H217.793V32.0975H219.305V36.4902H217.814L217.652 33.6289H209.451ZM222.933 33.6289H221.16V19.1814H222.832V30.687L228.293 19.1814H230.066V33.6289H228.393V22.1233L222.933 33.6289ZM232.49 23.433C232.49 21.9956 232.873 20.9277 233.639 20.2292C234.404 19.5306 235.439 19.1814 236.742 19.1814H240.268V33.6289H238.596V27.7451H236.661L233.598 33.6289H231.704L235.029 27.3824C234.183 27.1272 233.545 26.6772 233.115 26.0324C232.698 25.3876 232.49 24.5211 232.49 23.433ZM236.601 26.2137H238.596V20.7128H236.742C235.949 20.7128 235.325 20.921 234.868 21.3374C234.411 21.7538 234.183 22.4658 234.183 23.4733C234.183 24.4136 234.384 25.1055 234.787 25.5488C235.204 25.9921 235.808 26.2137 236.601 26.2137ZM250.406 33.8304C248.834 33.8304 247.599 33.1856 246.699 31.896C245.812 30.593 245.369 28.7459 245.369 26.3548C245.369 23.9502 245.812 22.1233 246.699 20.874C247.599 19.6247 248.834 19 250.406 19C251.991 19 253.227 19.6314 254.114 20.8941C255 22.1434 255.444 23.9703 255.444 26.3749C255.444 28.7526 255 30.593 254.114 31.896C253.227 33.1856 251.991 33.8304 250.406 33.8304ZM250.406 32.299C251.427 32.299 252.226 31.8356 252.804 30.9087C253.382 29.9818 253.67 28.4839 253.67 26.4152C253.67 24.333 253.382 22.8352 252.804 21.9218C252.226 20.9949 251.427 20.5314 250.406 20.5314C249.385 20.5314 248.586 20.9949 248.008 21.9218C247.431 22.8352 247.142 24.333 247.142 26.4152C247.142 28.4839 247.431 29.9818 248.008 30.9087C248.586 31.8356 249.385 32.299 250.406 32.299ZM269.431 33.6289H267.416L264.011 27.2414H262.62V33.6289H260.948V19.1814H262.62V25.71H264.011L267.416 19.1814H269.27L265.482 26.3346L269.431 33.6289ZM274.413 33.8304C272.841 33.8304 271.605 33.1856 270.705 31.896C269.819 30.593 269.375 28.7459 269.375 26.3548C269.375 23.9502 269.819 22.1233 270.705 20.874C271.605 19.6247 272.841 19 274.413 19C275.998 19 277.234 19.6314 278.121 20.8941C279.007 22.1434 279.451 23.9703 279.451 26.3749C279.451 28.7526 279.007 30.593 278.121 31.896C277.234 33.1856 275.998 33.8304 274.413 33.8304ZM274.413 32.299C275.434 32.299 276.233 31.8356 276.811 30.9087C277.388 29.9818 277.677 28.4839 277.677 26.4152C277.677 24.333 277.388 22.8352 276.811 21.9218C276.233 20.9949 275.434 20.5314 274.413 20.5314C273.392 20.5314 272.593 20.9949 272.015 21.9218C271.438 22.8352 271.149 24.333 271.149 26.4152C271.149 28.4839 271.438 29.9818 272.015 30.9087C272.593 31.8356 273.392 32.299 274.413 32.299ZM280.312 20.7329V19.1814H289.238V20.7329H285.611V33.6289H283.939V20.7329H280.312ZM294.74 33.8304C293.168 33.8304 291.933 33.1856 291.032 31.896C290.146 30.593 289.703 28.7459 289.703 26.3548C289.703 23.9502 290.146 22.1233 291.032 20.874C291.933 19.6247 293.168 19 294.74 19C296.325 19 297.561 19.6314 298.448 20.8941C299.334 22.1434 299.778 23.9703 299.778 26.3749C299.778 28.7526 299.334 30.593 298.448 31.896C297.561 33.1856 296.325 33.8304 294.74 33.8304ZM294.74 32.299C295.761 32.299 296.56 31.8356 297.138 30.9087C297.716 29.9818 298.004 28.4839 298.004 26.4152C298.004 24.333 297.716 22.8352 297.138 21.9218C296.56 20.9949 295.761 20.5314 294.74 20.5314C293.719 20.5314 292.92 20.9949 292.342 21.9218C291.765 22.8352 291.476 24.333 291.476 26.4152C291.476 28.4839 291.765 29.9818 292.342 30.9087C292.92 31.8356 293.719 32.299 294.74 32.299ZM302.153 19.1814H305.256C306.653 19.1814 307.741 19.5172 308.52 20.1889C309.313 20.8605 309.709 21.9083 309.709 23.3323C309.709 24.4069 309.515 25.2801 309.125 25.9518C308.749 26.6234 308.218 27.1137 307.533 27.4227C306.848 27.7317 306.062 27.8862 305.176 27.8862H303.826V33.6289H302.153V19.1814ZM305.176 26.3548C306.049 26.3548 306.741 26.1264 307.251 25.6697C307.775 25.1995 308.037 24.4271 308.037 23.3524C308.037 22.4389 307.795 21.774 307.311 21.3576C306.828 20.9277 306.143 20.7128 305.256 20.7128H303.826V26.3548H305.176ZM311.618 33.6289V19.1814H313.291V24.642H314.923C316.32 24.642 317.408 24.998 318.187 25.71C318.98 26.4085 319.376 27.4832 319.376 28.934C319.376 30.0355 319.181 30.9355 318.791 31.6341C318.415 32.3192 317.885 32.8229 317.2 33.1453C316.515 33.4677 315.729 33.6289 314.842 33.6289H311.618ZM320.665 19.2015H322.338V33.6289H320.665V19.2015ZM314.842 32.0975C315.715 32.0975 316.407 31.8557 316.918 31.3721C317.441 30.8751 317.703 30.0691 317.703 28.9541C317.703 28.0138 317.462 27.3152 316.978 26.8585C316.494 26.4018 315.809 26.1734 314.923 26.1734H313.291V32.0975H314.842ZM324.195 19.1814H326.149L328.769 24.6622L331.328 19.1814H333.061L329.615 26.0928L333.343 33.6289H331.368L328.507 27.5638L325.565 33.6289H323.832L327.661 26.0928L324.195 19.1814ZM342.683 33.8304C340.977 33.8304 339.653 33.1722 338.713 31.8557C337.786 30.5392 337.323 28.7257 337.323 26.4152C337.323 24.0912 337.786 22.2777 338.713 20.9747C339.64 19.6582 340.983 19 342.743 19C344.06 19 345.134 19.3358 345.967 20.0075V21.6397C345.551 21.2904 345.054 21.0217 344.476 20.8337C343.898 20.6322 343.327 20.5314 342.763 20.5314C341.487 20.5314 340.56 21.0284 339.983 22.0225C339.405 23.0166 339.116 24.4808 339.116 26.4152C339.116 28.3496 339.418 29.8138 340.023 30.8079C340.641 31.802 341.595 32.299 342.884 32.299C344.013 32.299 345.04 31.8759 345.967 31.0296V32.6617C345.618 33.011 345.141 33.2931 344.536 33.508C343.945 33.7229 343.327 33.8304 342.683 33.8304ZM352.337 33.8304C350.765 33.8304 349.529 33.1856 348.629 31.896C347.743 30.593 347.299 28.7459 347.299 26.3548C347.299 23.9502 347.743 22.1233 348.629 20.874C349.529 19.6247 350.765 19 352.337 19C353.922 19 355.158 19.6314 356.044 20.8941C356.931 22.1434 357.374 23.9703 357.374 26.3749C357.374 28.7526 356.931 30.593 356.044 31.896C355.158 33.1856 353.922 33.8304 352.337 33.8304ZM352.337 32.299C353.358 32.299 354.157 31.8356 354.735 30.9087C355.312 29.9818 355.601 28.4839 355.601 26.4152C355.601 24.333 355.312 22.8352 354.735 21.9218C354.157 20.9949 353.358 20.5314 352.337 20.5314C351.316 20.5314 350.517 20.9949 349.939 21.9218C349.361 22.8352 349.073 24.333 349.073 26.4152C349.073 28.4839 349.361 29.9818 349.939 30.9087C350.517 31.8356 351.316 32.299 352.337 32.299ZM358.052 32.0975H358.958C359.173 31.7885 359.355 31.4326 359.503 31.0296C359.664 30.6266 359.791 30.1228 359.885 29.5183C359.993 28.9004 360.073 28.1347 360.127 27.2212C360.194 26.3077 360.241 25.1995 360.268 23.8965C360.309 22.58 360.342 21.0083 360.369 19.1814H367.764V32.0975H369.275V36.4902H367.784L367.623 33.6289H359.684L359.523 36.4902H358.052V32.0975ZM360.752 32.0975H366.092V20.7329H361.921C361.907 22.6001 361.874 24.1786 361.82 25.4682C361.779 26.7443 361.712 27.8056 361.618 28.6519C361.538 29.4847 361.423 30.1765 361.276 30.7273C361.141 31.2646 360.967 31.7214 360.752 32.0975ZM371.124 19.1814H378.015V20.7329H372.796V25.3271H377.209V26.8585H372.796V32.0774H378.095V33.6289H371.124V19.1814ZM380.313 19.1814H383.416C384.813 19.1814 385.901 19.5172 386.68 20.1889C387.473 20.8605 387.869 21.9083 387.869 23.3323C387.869 24.4069 387.675 25.2801 387.285 25.9518C386.909 26.6234 386.378 27.1137 385.693 27.4227C385.008 27.7317 384.222 27.8862 383.336 27.8862H381.986V33.6289H380.313V19.1814ZM383.336 26.3548C384.209 26.3548 384.901 26.1264 385.411 25.6697C385.935 25.1995 386.197 24.4271 386.197 23.3524C386.197 22.4389 385.955 21.774 385.471 21.3576C384.988 20.9277 384.303 20.7128 383.416 20.7128H381.986V26.3548H383.336ZM388.34 33.6289L391.825 26.254L388.501 19.1814H390.355L393.337 25.71H394.767V19.1814H396.44V25.71H397.87L400.853 19.1814H402.706L399.402 26.2137L402.868 33.6289H400.853L397.891 27.1608H396.44V33.6289H394.767V27.1608H393.296L390.314 33.6289H388.34ZM406.29 33.6289H404.517V19.1814H406.189V30.687L411.65 19.1814H413.423V33.6289H411.751V22.1233L406.29 33.6289ZM415.202 20.7329V19.1814H424.129V20.7329H420.502V33.6289H418.829V20.7329H415.202ZM429.953 33.8304C428.247 33.8304 426.924 33.1722 425.984 31.8557C425.057 30.5392 424.593 28.7257 424.593 26.4152C424.593 24.0912 425.057 22.2777 425.984 20.9747C426.911 19.6582 428.254 19 430.014 19C431.33 19 432.405 19.3358 433.238 20.0075V21.6397C432.821 21.2904 432.324 21.0217 431.747 20.8337C431.169 20.6322 430.598 20.5314 430.034 20.5314C428.758 20.5314 427.831 21.0284 427.253 22.0225C426.676 23.0166 426.387 24.4808 426.387 26.4152C426.387 28.3496 426.689 29.8138 427.294 30.8079C427.912 31.802 428.865 32.299 430.155 32.299C431.283 32.299 432.311 31.8759 433.238 31.0296V32.6617C432.889 33.011 432.412 33.2931 431.807 33.508C431.216 33.7229 430.598 33.8304 429.953 33.8304ZM435.21 23.433C435.21 21.9956 435.593 20.9277 436.359 20.2292C437.124 19.5306 438.159 19.1814 439.462 19.1814H442.988V33.6289H441.316V27.7451H439.381L436.318 33.6289H434.424L437.749 27.3824C436.903 27.1272 436.265 26.6772 435.835 26.0324C435.418 25.3876 435.21 24.5211 435.21 23.433ZM439.321 26.2137H441.316V20.7128H439.462C438.669 20.7128 438.045 20.921 437.588 21.3374C437.131 21.7538 436.903 22.4658 436.903 23.4733C436.903 24.4136 437.104 25.1055 437.507 25.5488C437.924 25.9921 438.528 26.2137 439.321 26.2137ZM448.693 19.1814H451.998C453.355 19.1814 454.396 19.45 455.121 19.9874C455.86 20.5247 456.229 21.4314 456.229 22.7076C456.229 23.742 455.987 24.5278 455.504 25.0652C455.034 25.5891 454.416 25.945 453.65 26.1331C454.604 26.2809 455.336 26.6167 455.846 27.1406C456.357 27.6645 456.612 28.4436 456.612 29.478C456.612 30.4721 456.404 31.2781 455.987 31.896C455.584 32.5005 455.027 32.9438 454.315 33.2259C453.617 33.4946 452.831 33.6289 451.957 33.6289H448.693V19.1814ZM451.998 25.448C452.75 25.448 453.361 25.2465 453.831 24.8435C454.302 24.4271 454.537 23.7554 454.537 22.8285C454.537 22.0494 454.322 21.5053 453.892 21.1964C453.462 20.874 452.858 20.7128 452.078 20.7128H450.366V25.448H451.998ZM452.058 32.0975C452.891 32.0975 453.563 31.9094 454.073 31.5333C454.597 31.1572 454.859 30.4855 454.859 29.5183C454.859 28.5914 454.617 27.9399 454.134 27.5638C453.65 27.1742 452.911 26.9794 451.917 26.9794H450.366V32.0975H452.058ZM461.818 33.6289V19.1814H468.79V20.7329H463.491V25.0853H464.982C466.339 25.0853 467.407 25.4144 468.186 26.0727C468.965 26.7175 469.354 27.7585 469.354 29.1959C469.354 30.2571 469.16 31.1169 468.77 31.7751C468.38 32.4199 467.843 32.8901 467.158 33.1856C466.473 33.4811 465.694 33.6289 464.821 33.6289H461.818ZM464.962 32.0975C465.768 32.0975 466.412 31.8893 466.896 31.4729C467.38 31.0564 467.621 30.3243 467.621 29.2765C467.621 27.5033 466.775 26.6167 465.083 26.6167H463.491V32.0975H464.962ZM480.011 33.6289H478.278L477.21 29.3773H472.878L471.77 33.6289H470.238L474.047 19.1814H476.263L480.011 33.6289ZM473.261 27.8862H476.827L475.074 20.9546L473.261 27.8862ZM484.551 33.8304C483.409 33.8304 482.348 33.5416 481.367 32.964V31.3318C481.931 31.6676 482.462 31.9162 482.959 32.0774C483.469 32.2251 483.993 32.299 484.531 32.299C485.014 32.299 485.464 32.2117 485.881 32.0371C486.311 31.8624 486.653 31.5736 486.908 31.1706C487.177 30.7542 487.311 30.2034 487.311 29.5183C487.311 28.578 487.083 27.913 486.626 27.5235C486.169 27.1339 485.478 26.9391 484.551 26.9391H483.281V25.4883H484.551C485.33 25.4883 485.928 25.2599 486.344 24.8032C486.761 24.3465 486.969 23.6815 486.969 22.8084C486.969 21.9889 486.754 21.4046 486.324 21.0553C485.908 20.706 485.37 20.5314 484.712 20.5314C483.704 20.5314 482.636 20.8538 481.508 21.4986V19.8665C482.529 19.2888 483.624 19 484.793 19C485.961 19 486.895 19.3023 487.593 19.9068C488.305 20.5113 488.661 21.4113 488.661 22.6069C488.661 23.5606 488.44 24.333 487.996 24.9241C487.567 25.5017 486.962 25.898 486.183 26.113C487.096 26.2607 487.802 26.61 488.299 27.1608C488.796 27.7115 489.044 28.4839 489.044 29.478C489.044 30.4989 488.836 31.3318 488.42 31.9766C488.003 32.6214 487.452 33.0916 486.767 33.3871C486.082 33.6826 485.343 33.8304 484.551 33.8304ZM491.099 19.1814H497.99V20.7329H492.771V25.3271H497.184V26.8585H492.771V32.0774H498.071V33.6289H491.099V19.1814ZM502.329 32.0975H503.236C503.451 31.7885 503.632 31.4326 503.78 31.0296C503.941 30.6266 504.068 30.1228 504.163 29.5183C504.27 28.9004 504.351 28.1347 504.404 27.2212C504.471 26.3077 504.519 25.1995 504.545 23.8965C504.586 22.58 504.619 21.0083 504.646 19.1814H512.041V32.0975H513.552V36.4902H512.061L511.9 33.6289H503.961L503.8 36.4902H502.329V32.0975ZM505.029 32.0975H510.369V20.7329H506.198C506.184 22.6001 506.151 24.1786 506.097 25.4682C506.057 26.7443 505.989 27.8056 505.895 28.6519C505.815 29.4847 505.701 30.1765 505.553 30.7273C505.419 31.2646 505.244 31.7214 505.029 32.0975ZM524.247 33.6289H522.514L521.446 29.3773H517.113L516.005 33.6289H514.474L518.282 19.1814H520.499L524.247 33.6289ZM517.496 27.8862H521.063L519.31 20.9546L517.496 27.8862ZM526.164 19.1814H527.837V25.6898H533.096V19.1814H534.789V33.6289H533.096V27.2414H527.837V33.6289H526.164V19.1814ZM537.341 19.1814H539.014V25.6898H544.273V19.1814H545.966V33.6289H544.273V27.2414H539.014V33.6289H537.341V19.1814ZM548.518 33.6289V19.1814H550.191V24.642H551.823C553.22 24.642 554.308 24.998 555.087 25.71C555.88 26.4085 556.276 27.4832 556.276 28.934C556.276 30.0355 556.081 30.9355 555.692 31.6341C555.316 32.3192 554.785 32.8229 554.1 33.1453C553.415 33.4677 552.629 33.6289 551.742 33.6289H548.518ZM557.566 19.2015H559.238V33.6289H557.566V19.2015ZM551.742 32.0975C552.616 32.0975 553.307 31.8557 553.818 31.3721C554.342 30.8751 554.604 30.0691 554.604 28.9541C554.604 28.0138 554.362 27.3152 553.878 26.8585C553.395 26.4018 552.71 26.1734 551.823 26.1734H550.191V32.0975H551.742ZM561.095 19.1814H563.05L565.669 24.6622L568.228 19.1814H569.961L566.515 26.0928L570.243 33.6289H568.268L565.407 27.5638L562.465 33.6289H560.732L564.561 26.0928L561.095 19.1814ZM9.77217 52.6289H8.03927L6.97132 48.3773H2.63907L1.53082 52.6289H-0.000581201L3.80777 38.1814H6.02427L9.77217 52.6289ZM3.02192 46.8862H6.58847L4.83542 39.9546L3.02192 46.8862ZM11.69 38.1814H14.9946C16.3514 38.1814 17.3925 38.45 18.1179 38.9874C18.8567 39.5247 19.2261 40.4314 19.2261 41.7076C19.2261 42.742 18.9843 43.5278 18.5007 44.0652C18.0306 44.5891 17.4126 44.945 16.6469 45.1331C17.6007 45.2809 18.3328 45.6167 18.8433 46.1406C19.3538 46.6645 19.609 47.4436 19.609 48.478C19.609 49.4721 19.4008 50.2781 18.9843 50.896C18.5813 51.5005 18.0239 51.9438 17.3119 52.2259C16.6134 52.4946 15.8275 52.6289 14.9543 52.6289H11.69V38.1814ZM14.9946 44.448C15.7469 44.448 16.3581 44.2465 16.8283 43.8435C17.2985 43.4271 17.5335 42.7554 17.5335 41.8285C17.5335 41.0494 17.3186 40.5053 16.8887 40.1964C16.4589 39.874 15.8544 39.7128 15.0752 39.7128H13.3625V44.448H14.9946ZM15.0551 51.0975C15.888 51.0975 16.5596 50.9094 17.0701 50.5333C17.594 50.1572 17.8559 49.4855 17.8559 48.5183C17.8559 47.5914 17.6141 46.9399 17.1305 46.5638C16.6469 46.1742 15.9081 45.9794 14.914 45.9794H13.3625V51.0975H15.0551ZM20.4868 39.7329V38.1814H29.4132V39.7329H25.7862V52.6289H24.1138V39.7329H20.4868ZM34.9153 52.8304C33.3436 52.8304 32.1077 52.1856 31.2077 50.896C30.3211 49.593 29.8778 47.7459 29.8778 45.3548C29.8778 42.9502 30.3211 41.1233 31.2077 39.874C32.1077 38.6247 33.3436 38 34.9153 38C36.5004 38 37.7363 38.6314 38.6229 39.8941C39.5095 41.1434 39.9528 42.9703 39.9528 45.3749C39.9528 47.7526 39.5095 49.593 38.6229 50.896C37.7363 52.1856 36.5004 52.8304 34.9153 52.8304ZM34.9153 51.299C35.9362 51.299 36.7355 50.8356 37.3131 49.9087C37.8908 48.9818 38.1796 47.4839 38.1796 45.4152C38.1796 43.333 37.8908 41.8352 37.3131 40.9218C36.7355 39.9949 35.9362 39.5314 34.9153 39.5314C33.8943 39.5314 33.0951 39.9949 32.5174 40.9218C31.9398 41.8352 31.651 43.333 31.651 45.4152C31.651 47.4839 31.9398 48.9818 32.5174 49.9087C33.0951 50.8356 33.8943 51.299 34.9153 51.299ZM42.2872 52.7498C41.9514 52.7498 41.676 52.6356 41.461 52.4073C41.2595 52.1789 41.1588 51.8968 41.1588 51.561C41.1588 51.2117 41.2595 50.9296 41.461 50.7147C41.676 50.4863 41.9514 50.3721 42.2872 50.3721C42.5962 50.3721 42.8581 50.4863 43.073 50.7147C43.288 50.9296 43.3954 51.2117 43.3954 51.561C43.3954 51.8968 43.288 52.1789 43.073 52.4073C42.8581 52.6356 42.5962 52.7498 42.2872 52.7498ZM45.5948 38.1814H48.6979C50.0949 38.1814 51.183 38.5172 51.9622 39.1889C52.7547 39.8605 53.151 40.9083 53.151 42.3323C53.151 43.4069 52.9562 44.2801 52.5667 44.9518C52.1905 45.6234 51.6599 46.1137 50.9748 46.4227C50.2897 46.7317 49.5039 46.8862 48.6173 46.8862H47.2672V52.6289H45.5948V38.1814ZM48.6173 45.3548C49.4904 45.3548 50.1823 45.1264 50.6927 44.6697C51.2166 44.1995 51.4786 43.4271 51.4786 42.3524C51.4786 41.4389 51.2368 40.774 50.7532 40.3576C50.2696 39.9277 49.5845 39.7128 48.6979 39.7128H47.2672V45.3548H48.6173ZM55.1807 51.0371C55.2881 51.0505 55.409 51.0639 55.5434 51.0774C55.6777 51.0774 55.8188 51.0774 55.9665 51.0774C56.4904 51.0774 56.927 50.9296 57.2763 50.6341C57.639 50.3251 57.9412 49.8415 58.183 49.1833L54.153 38.1814H56.0068L59.0092 46.6645L61.5682 38.1814H63.2608L59.8958 48.7198C59.439 50.1437 58.9151 51.158 58.3241 51.7625C57.7464 52.3535 56.9875 52.6491 56.0471 52.6491C55.8725 52.6491 55.718 52.6423 55.5837 52.6289C55.4628 52.6289 55.3284 52.6222 55.1807 52.6088V51.0371ZM63.5785 52.7498C63.2427 52.7498 62.9673 52.6356 62.7523 52.4073C62.5508 52.1789 62.4501 51.8968 62.4501 51.561C62.4501 51.2117 62.5508 50.9296 62.7523 50.7147C62.9673 50.4863 63.2427 50.3721 63.5785 50.3721C63.8875 50.3721 64.1494 50.4863 64.3643 50.7147C64.5793 50.9296 64.6867 51.2117 64.6867 51.561C64.6867 51.8968 64.5793 52.1789 64.3643 52.4073C64.1494 52.6356 63.8875 52.7498 63.5785 52.7498ZM70.0149 38.1814H71.6873V44.6898H76.9465V38.1814H78.6391V52.6289H76.9465V46.2414H71.6873V52.6289H70.0149V38.1814ZM81.1918 38.1814H88.0831V39.7329H82.8643V44.3271H87.2771V45.8585H82.8643V51.0774H88.1637V52.6289H81.1918V38.1814ZM93.3489 42.433C93.3489 40.9956 93.7317 39.9277 94.4974 39.2292C95.2631 38.5306 96.2975 38.1814 97.6005 38.1814H101.127V52.6289H99.4543V46.7451H97.5199L94.4571 52.6289H92.563L95.8878 46.3824C95.0415 46.1272 94.4034 45.6772 93.9735 45.0324C93.5571 44.3876 93.3489 43.5211 93.3489 42.433ZM97.4595 45.2137H99.4543V39.7128H97.6005C96.808 39.7128 96.1833 39.921 95.7266 40.3374C95.2698 40.7538 95.0415 41.4658 95.0415 42.4733C95.0415 43.4136 95.243 44.1055 95.646 44.5488C96.0624 44.9921 96.6669 45.2137 97.4595 45.2137ZM103.703 38.1814H107.008C108.365 38.1814 109.406 38.45 110.131 38.9874C110.87 39.5247 111.239 40.4314 111.239 41.7076C111.239 42.742 110.997 43.5278 110.514 44.0652C110.044 44.5891 109.426 44.945 108.66 45.1331C109.614 45.2809 110.346 45.6167 110.856 46.1406C111.367 46.6645 111.622 47.4436 111.622 48.478C111.622 49.4721 111.414 50.2781 110.997 50.896C110.594 51.5005 110.037 51.9438 109.325 52.2259C108.626 52.4946 107.841 52.6289 106.967 52.6289H103.703V38.1814ZM107.008 44.448C107.76 44.448 108.371 44.2465 108.841 43.8435C109.312 43.4271 109.547 42.7554 109.547 41.8285C109.547 41.0494 109.332 40.5053 108.902 40.1964C108.472 39.874 107.867 39.7128 107.088 39.7128H105.376V44.448H107.008ZM107.068 51.0975C107.901 51.0975 108.573 50.9094 109.083 50.5333C109.607 50.1572 109.869 49.4855 109.869 48.5183C109.869 47.5914 109.627 46.9399 109.144 46.5638C108.66 46.1742 107.921 45.9794 106.927 45.9794H105.376V51.0975H107.068ZM112.712 50.9565C113.37 50.9968 113.82 50.8557 114.062 50.5333C114.317 50.1975 114.492 49.593 114.586 48.7198C114.64 48.2496 114.68 47.7325 114.707 47.1683C114.747 46.5906 114.781 45.9055 114.808 45.113C114.835 44.3204 114.855 43.3666 114.868 42.2517C114.882 41.1233 114.888 39.7665 114.888 38.1814H121.981V52.6289H120.309V39.7329H116.46C116.447 41.9763 116.42 43.8301 116.379 45.2943C116.339 46.7451 116.272 47.9272 116.178 48.8407C116.044 50.2646 115.701 51.2789 115.15 51.8834C114.599 52.4879 113.787 52.7632 112.712 52.7095V50.9565ZM124.4 42.433C124.4 40.9956 124.783 39.9277 125.549 39.2292C126.315 38.5306 127.349 38.1814 128.652 38.1814H132.178V52.6289H130.506V46.7451H128.571L125.509 52.6289H123.614L126.939 46.3824C126.093 46.1272 125.455 45.6772 125.025 45.0324C124.609 44.3876 124.4 43.5211 124.4 42.433ZM128.511 45.2137H130.506V39.7128H128.652C127.859 39.7128 127.235 39.921 126.778 40.3374C126.321 40.7538 126.093 41.4658 126.093 42.4733C126.093 43.4136 126.294 44.1055 126.697 44.5488C127.114 44.9921 127.718 45.2137 128.511 45.2137ZM134.755 38.1814H141.646V39.7329H136.427V44.3271H140.84V45.8585H136.427V51.0774H141.726V52.6289H134.755V38.1814ZM143.04 39.7329V38.1814H151.966V39.7329H148.339V52.6289H146.667V39.7329H143.04ZM157.791 52.8304C156.085 52.8304 154.761 52.1722 153.821 50.8557C152.894 49.5392 152.431 47.7257 152.431 45.4152C152.431 43.0912 152.894 41.2777 153.821 39.9747C154.748 38.6582 156.091 38 157.851 38C159.168 38 160.242 38.3358 161.075 39.0075V40.6397C160.659 40.2904 160.162 40.0217 159.584 39.8337C159.006 39.6322 158.435 39.5314 157.871 39.5314C156.595 39.5314 155.668 40.0284 155.091 41.0225C154.513 42.0166 154.224 43.4808 154.224 45.4152C154.224 47.3496 154.526 48.8138 155.131 49.8079C155.749 50.802 156.703 51.299 157.992 51.299C159.121 51.299 160.148 50.8759 161.075 50.0296V51.6617C160.726 52.011 160.249 52.2931 159.644 52.508C159.053 52.7229 158.435 52.8304 157.791 52.8304ZM163.047 42.433C163.047 40.9956 163.43 39.9277 164.196 39.2292C164.962 38.5306 165.996 38.1814 167.299 38.1814H170.825V52.6289H169.153V46.7451H167.218L164.156 52.6289H162.262L165.586 46.3824C164.74 46.1272 164.102 45.6772 163.672 45.0324C163.256 44.3876 163.047 43.5211 163.047 42.433ZM167.158 45.2137H169.153V39.7128H167.299C166.506 39.7128 165.882 39.921 165.425 40.3374C164.968 40.7538 164.74 41.4658 164.74 42.4733C164.74 43.4136 164.942 44.1055 165.345 44.5488C165.761 44.9921 166.365 45.2137 167.158 45.2137ZM180.963 52.8304C179.392 52.8304 178.156 52.1856 177.256 50.896C176.369 49.593 175.926 47.7459 175.926 45.3548C175.926 42.9502 176.369 41.1233 177.256 39.874C178.156 38.6247 179.392 38 180.963 38C182.549 38 183.784 38.6314 184.671 39.8941C185.558 41.1434 186.001 42.9703 186.001 45.3749C186.001 47.7526 185.558 49.593 184.671 50.896C183.784 52.1856 182.549 52.8304 180.963 52.8304ZM180.963 51.299C181.984 51.299 182.784 50.8356 183.361 49.9087C183.939 48.9818 184.228 47.4839 184.228 45.4152C184.228 43.333 183.939 41.8352 183.361 40.9218C182.784 39.9949 181.984 39.5314 180.963 39.5314C179.942 39.5314 179.143 39.9949 178.566 40.9218C177.988 41.8352 177.699 43.333 177.699 45.4152C177.699 47.4839 177.988 48.9818 178.566 49.9087C179.143 50.8356 179.942 51.299 180.963 51.299ZM188.376 52.6289V38.1814H190.049V51.0975H195.046V38.1814H196.719V51.0975H198.23V55.4902H196.739L196.577 52.6289H188.376ZM200.085 38.1814H206.976V39.7329H201.757V44.3271H206.17V45.8585H201.757V51.0774H207.057V52.6289H200.085V38.1814ZM209.274 38.1814H210.947V44.6898H216.206V38.1814H217.898V52.6289H216.206V46.2414H210.947V52.6289H209.274V38.1814ZM224.884 52.8304C223.312 52.8304 222.077 52.1856 221.177 50.896C220.29 49.593 219.847 47.7459 219.847 45.3548C219.847 42.9502 220.29 41.1233 221.177 39.874C222.077 38.6247 223.312 38 224.884 38C226.469 38 227.705 38.6314 228.592 39.8941C229.478 41.1434 229.922 42.9703 229.922 45.3749C229.922 47.7526 229.478 49.593 228.592 50.896C227.705 52.1856 226.469 52.8304 224.884 52.8304ZM224.884 51.299C225.905 51.299 226.704 50.8356 227.282 49.9087C227.86 48.9818 228.148 47.4839 228.148 45.4152C228.148 43.333 227.86 41.8352 227.282 40.9218C226.704 39.9949 225.905 39.5314 224.884 39.5314C223.863 39.5314 223.064 39.9949 222.486 40.9218C221.909 41.8352 221.62 43.333 221.62 45.4152C221.62 47.4839 221.909 48.9818 222.486 49.9087C223.064 50.8356 223.863 51.299 224.884 51.299ZM231.702 42.9368V38.1814H233.375V42.7957C233.375 43.7763 233.569 44.5286 233.959 45.0525C234.362 45.563 235.007 45.8182 235.893 45.8182C236.35 45.8182 236.773 45.7443 237.163 45.5966C237.566 45.4488 237.928 45.207 238.251 44.8712V38.1814H239.923V52.6289H238.251V46.3018C237.472 46.9466 236.558 47.269 235.51 47.269C234.328 47.269 233.395 46.913 232.71 46.2011C232.038 45.4757 231.702 44.3876 231.702 42.9368ZM242.51 38.1814H244.182V44.6898H249.441V38.1814H251.134V52.6289H249.441V46.2414H244.182V52.6289H242.51V38.1814ZM258.12 52.8304C256.548 52.8304 255.312 52.1856 254.412 50.896C253.526 49.593 253.082 47.7459 253.082 45.3548C253.082 42.9502 253.526 41.1233 254.412 39.874C255.312 38.6247 256.548 38 258.12 38C259.705 38 260.941 38.6314 261.827 39.8941C262.714 41.1434 263.157 42.9703 263.157 45.3749C263.157 47.7526 262.714 49.593 261.827 50.896C260.941 52.1856 259.705 52.8304 258.12 52.8304ZM258.12 51.299C259.141 51.299 259.94 50.8356 260.518 49.9087C261.095 48.9818 261.384 47.4839 261.384 45.4152C261.384 43.333 261.095 41.8352 260.518 40.9218C259.94 39.9949 259.141 39.5314 258.12 39.5314C257.099 39.5314 256.3 39.9949 255.722 40.9218C255.144 41.8352 254.856 43.333 254.856 45.4152C254.856 47.4839 255.144 48.9818 255.722 49.9087C256.3 50.8356 257.099 51.299 258.12 51.299ZM269.986 37.3754C269.099 37.3754 268.441 37.1 268.011 36.5492C267.581 35.985 267.366 35.2999 267.366 34.4939H268.858C268.858 35.0984 268.958 35.535 269.16 35.8037C269.375 36.0589 269.65 36.1865 269.986 36.1865C270.335 36.1865 270.611 36.0589 270.812 35.8037C271.027 35.535 271.135 35.0984 271.135 34.4939H272.605C272.605 35.2999 272.391 35.985 271.961 36.5492C271.531 37.1 270.873 37.3754 269.986 37.3754ZM267.306 52.6289H265.533V38.1814H267.205V49.687L272.666 38.1814H274.439V52.6289H272.767V41.1233L267.306 52.6289ZM279.065 51.0975H279.972C280.187 50.7885 280.368 50.4326 280.516 50.0296C280.677 49.6266 280.805 49.1228 280.899 48.5183C281.006 47.9004 281.087 47.1347 281.141 46.2212C281.208 45.3077 281.255 44.1995 281.282 42.8965C281.322 41.58 281.356 40.0083 281.383 38.1814H288.778V51.0975H290.289V55.4902H288.798L288.637 52.6289H280.697L280.536 55.4902H279.065V51.0975ZM281.765 51.0975H287.105V39.7329H282.934C282.921 41.6001 282.887 43.1786 282.833 44.4682C282.793 45.7443 282.726 46.8056 282.632 47.6519C282.551 48.4847 282.437 49.1765 282.289 49.7273C282.155 50.2646 281.98 50.7214 281.765 51.0975ZM292.137 38.1814H299.028V39.7329H293.81V44.3271H298.222V45.8585H293.81V51.0774H299.109V52.6289H292.137V38.1814ZM301.165 42.433C301.165 40.9956 301.548 39.9277 302.314 39.2292C303.08 38.5306 304.114 38.1814 305.417 38.1814H308.943V52.6289H307.271V46.7451H305.336L302.274 52.6289H300.38L303.704 46.3824C302.858 46.1272 302.22 45.6772 301.79 45.0324C301.374 44.3876 301.165 43.5211 301.165 42.433ZM305.276 45.2137H307.271V39.7128H305.417C304.625 39.7128 304 39.921 303.543 40.3374C303.086 40.7538 302.858 41.4658 302.858 42.4733C302.858 43.4136 303.06 44.1055 303.463 44.5488C303.879 44.9921 304.483 45.2137 305.276 45.2137ZM310.714 39.7329V38.1814H319.64V39.7329H316.013V52.6289H314.341V39.7329H310.714ZM321.418 38.1814H328.309V39.7329H323.09V44.3271H327.503V45.8585H323.09V51.0774H328.389V52.6289H321.418V38.1814ZM329.62 50.9565C330.278 50.9968 330.728 50.8557 330.97 50.5333C331.225 50.1975 331.4 49.593 331.494 48.7198C331.547 48.2496 331.588 47.7325 331.615 47.1683C331.655 46.5906 331.688 45.9055 331.715 45.113C331.742 44.3204 331.762 43.3666 331.776 42.2517C331.789 41.1233 331.796 39.7665 331.796 38.1814H338.889V52.6289H337.216V39.7329H333.368C333.354 41.9763 333.327 43.8301 333.287 45.2943C333.247 46.7451 333.18 47.9272 333.086 48.8407C332.951 50.2646 332.609 51.2789 332.058 51.8834C331.507 52.4879 330.694 52.7632 329.62 52.7095V50.9565ZM341.469 52.6289V38.1814H343.142V43.642H344.774C346.171 43.642 347.259 43.998 348.038 44.71C348.831 45.4085 349.227 46.4832 349.227 47.934C349.227 49.0355 349.032 49.9355 348.643 50.6341C348.266 51.3192 347.736 51.8229 347.051 52.1453C346.366 52.4677 345.58 52.6289 344.693 52.6289H341.469ZM344.693 51.0975C345.566 51.0975 346.258 50.8557 346.769 50.3721C347.293 49.8751 347.555 49.0691 347.555 47.9541C347.555 47.0138 347.313 46.3152 346.829 45.8585C346.346 45.4018 345.66 45.1734 344.774 45.1734H343.142V51.0975H344.693ZM351.249 38.1814H352.921V44.6898H358.181V38.1814H359.873V52.6289H358.181V46.2414H352.921V52.6289H351.249V38.1814ZM366.859 52.8304C365.287 52.8304 364.051 52.1856 363.151 50.896C362.265 49.593 361.822 47.7459 361.822 45.3548C361.822 42.9502 362.265 41.1233 363.151 39.874C364.051 38.6247 365.287 38 366.859 38C368.444 38 369.68 38.6314 370.567 39.8941C371.453 41.1434 371.897 42.9703 371.897 45.3749C371.897 47.7526 371.453 49.593 370.567 50.896C369.68 52.1856 368.444 52.8304 366.859 52.8304ZM366.859 51.299C367.88 51.299 368.679 50.8356 369.257 49.9087C369.834 48.9818 370.123 47.4839 370.123 45.4152C370.123 43.333 369.834 41.8352 369.257 40.9218C368.679 39.9949 367.88 39.5314 366.859 39.5314C365.838 39.5314 365.039 39.9949 364.461 40.9218C363.884 41.8352 363.595 43.333 363.595 45.4152C363.595 47.4839 363.884 48.9818 364.461 49.9087C365.039 50.8356 365.838 51.299 366.859 51.299ZM379.027 52.8304C377.321 52.8304 375.998 52.1722 375.058 50.8557C374.131 49.5392 373.667 47.7257 373.667 45.4152C373.667 43.0912 374.131 41.2777 375.058 39.9747C375.985 38.6582 377.328 38 379.088 38C380.404 38 381.479 38.3358 382.312 39.0075V40.6397C381.895 40.2904 381.398 40.0217 380.821 39.8337C380.243 39.6322 379.672 39.5314 379.108 39.5314C377.832 39.5314 376.905 40.0284 376.327 41.0225C375.75 42.0166 375.461 43.4808 375.461 45.4152C375.461 47.3496 375.763 48.8138 376.368 49.8079C376.986 50.802 377.939 51.299 379.229 51.299C380.357 51.299 381.385 50.8759 382.312 50.0296V51.6617C381.963 52.011 381.486 52.2931 380.881 52.508C380.29 52.7229 379.672 52.8304 379.027 52.8304ZM383.738 39.7329V38.1814H392.664V39.7329H389.037V52.6289H387.365V39.7329H383.738ZM394.442 52.6289V38.1814H396.114V43.642H397.746C399.143 43.642 400.231 43.998 401.011 44.71C401.803 45.4085 402.199 46.4832 402.199 47.934C402.199 49.0355 402.005 49.9355 401.615 50.6341C401.239 51.3192 400.708 51.8229 400.023 52.1453C399.338 52.4677 398.552 52.6289 397.666 52.6289H394.442ZM397.666 51.0975C398.539 51.0975 399.231 50.8557 399.741 50.3721C400.265 49.8751 400.527 49.0691 400.527 47.9541C400.527 47.0138 400.285 46.3152 399.802 45.8585C399.318 45.4018 398.633 45.1734 397.746 45.1734H396.114V51.0975H397.666ZM412.745 52.8304C411.858 52.8304 411.052 52.602 410.327 52.1453C409.602 51.6886 409.01 50.9766 408.554 50.0094C408.11 49.0422 407.855 47.7862 407.788 46.2414H405.894V52.6289H404.222V38.1814H405.894V44.6898H407.788C407.855 43.1315 408.11 41.8621 408.554 40.8815C409.01 39.9008 409.602 39.1754 410.327 38.7053C411.052 38.2351 411.858 38 412.745 38C413.672 38 414.511 38.2552 415.264 38.7657C416.016 39.2627 416.607 40.0553 417.037 41.1434C417.48 42.2181 417.702 43.6219 417.702 45.3548C417.702 47.0877 417.48 48.5049 417.037 49.6064C416.607 50.7079 416.016 51.5207 415.264 52.0446C414.511 52.5685 413.672 52.8304 412.745 52.8304ZM412.745 51.299C413.363 51.299 413.907 51.1244 414.377 50.7751C414.861 50.4258 415.244 49.8281 415.526 48.9818C415.808 48.122 415.949 46.9332 415.949 45.4152C415.949 43.8972 415.808 42.7151 415.526 41.8688C415.244 41.0091 414.861 40.4046 414.377 40.0553C413.907 39.706 413.363 39.5314 412.745 39.5314C412.14 39.5314 411.596 39.706 411.113 40.0553C410.629 40.4046 410.246 41.0091 409.964 41.8688C409.696 42.7151 409.561 43.8972 409.561 45.4152C409.561 46.9332 409.696 48.122 409.964 48.9818C410.246 49.8281 410.629 50.4258 411.113 50.7751C411.596 51.1244 412.14 51.299 412.745 51.299ZM419.647 52.7498C419.311 52.7498 419.036 52.6356 418.821 52.4073C418.619 52.1789 418.519 51.8968 418.519 51.561C418.519 51.2117 418.619 50.9296 418.821 50.7147C419.036 50.4863 419.311 50.3721 419.647 50.3721C419.956 50.3721 420.218 50.4863 420.433 50.7147C420.648 50.9296 420.755 51.2117 420.755 51.561C420.755 51.8968 420.648 52.1789 420.433 52.4073C420.218 52.6356 419.956 52.7498 419.647 52.7498Z" fill="white"/>
</svg>
